M48
;Layer_Color=9474304
;FILE_FORMAT=2:5
INCH,LZ
;TYPE=PLATED
T1F00S00C0.01968
T2F00S00C0.02362
T3F00S00C0.03543
T4F00S00C0.04724
T5F00S00C0.15748
%
T01
X0193955Y003104
X0214813Y0071468
X0269015Y0068784
X0269723Y0036846
X0275321Y00372
X0279276Y0012656
X0282946Y0123574
X0292427Y0159576
X0288021Y0179729
X0282474Y017961
X0273928Y0158134
X026878Y0146138
X0264024Y0145843
X025814Y0145547
X0249949Y0139542
X0240773Y0140811
X0245026Y0152064
X0239732Y0159352
X0251804Y0172342
X0248556Y0179394
X0244484Y0181067
X0251676Y0183049
X0251511Y019206
X0258827Y0187156
X023993Y0193877
X023959Y019939
X0232196Y019964
X0227098Y020323
X0222139Y0204217
X0226333Y0194041
X0235209Y0192255
X0228649Y0181483
X0205902Y0187938
X0200023Y0172118
X0209451Y0165762
X0211058Y0161956
X0214042Y0156666
X0209495Y0140493
X0208882Y013255
X0201708
X0199355Y0140325
X0198179Y0145453
X020086Y0148004
X01794Y0148306
X0179435Y0153315
X0171685Y0149855
X0167588Y0153449
X0166179Y0171247
X0186363Y0178056
X017554Y0196811
X013599Y0204108
X0143348Y0178077
X0133116Y0161115
X0130326Y014132
X0150445Y0136562
X0153332Y0134037
X0156601Y0131545
X0155133Y0124401
X0150827Y0126708
X0149697Y0122269
X0161627Y0122446
X0166694Y0126593
X0171231Y0126078
X0179707Y012331
X0179049Y0131438
X0177684Y0138025
X01777Y01426
X0151691Y0148583
X0151037Y0100605
X0141988Y0090115
X0132686Y0086915
X0181311Y0079379
X0226902Y0083337
X0206817Y0122435
X0233505Y021074
X0094748Y0204217
X0023946
X0086464Y0127452
X0119157Y0125984
X0118878Y0120897
X0122118Y0097962
X0100494Y0093513
X0220017Y0236076
T02
X0130434Y0077061
X0138308
X0146182
X0154056
X016193
X0169804
X012256
X0114686
T03
X0303Y0138
X0313
X0323
X0333
X0343
X0225599Y0130201
Y0120201
Y0110201
Y0100201
Y0090201
X0105744Y0111115
Y0121115
Y0131114
Y0141114
Y0151114
Y0161115
T04
X0051304Y0028958
Y0048643
X0299913Y0221069
X0319598
X0189531
X0169846
X0061011Y0222269
X0041326
X0050104Y0177635
Y0157949
Y0135702
Y0116017
X0051304Y0093013
Y0073328
T05
X0010917Y0010161
X0348838Y001354
X0347149Y0182079
X0092018Y0182923
M30
