M48
;Layer_Color=9474304
;FILE_FORMAT=2:5
INCH,LZ
;TYPE=PLATED
T1F00S00C0.01968
T2F00S00C0.02953
T3F00S00C0.03150
T4F00S00C0.03543
T5F00S00C0.03937
T6F00S00C0.04606
T7F00S00C0.04724
T8F00S00C0.05906
%
T01
X033027Y00166
X032267Y0097
X034347Y01019
X043527Y00882
X026177Y00359
X025687Y002073
X0102955Y00367
X008447
X007827Y0042906
X007897Y0090472
X00206Y00493
X026487Y0131647
X027567Y01241
X032797Y01507
T02
X0098963Y0116
X0106837
T03
X02097Y00633
X02147
X02197
X02353Y00624
X02403
X02453
Y00913
Y00963
Y01013
X02459Y01156
Y01206
Y01256
Y01396
Y01446
Y01496
T04
X02256Y00902
Y01002
X00109Y0069
Y0059
Y0039
Y0029
X02256Y01102
Y01202
Y01302
X0303Y0138
X0313
X0323
X0333
X0343
T05
X047749Y0021683
X0524734
X054709Y0020983
X0594334
Y0069014
X0570712Y0076888
X054709Y0069014
X0524734Y0069714
X0501112Y0077588
X047749Y0069714
X0453134Y0071014
X0429512Y0078888
X040589Y0071014
X0383534Y0072314
X0359912Y0080188
X033629Y0072314
Y0024283
X0383534
X040589Y0022983
X0453134
X0312134Y0024083
X026489
Y0072114
X0288512Y0079988
X0312134Y0072114
X01014Y007
Y008
Y009
T06
X012513Y01071
T07
X0032757Y0117
X0052443
X0378457Y01322
X0398143
X0424657
X0444343
X0472258
X0491943
X0518558Y01334
X0538242
X0565357
X0585042
T08
X020387Y01071
M30
