%FSLAX25Y25*%
%MOIN*%
G70*
G01*
G75*
G04 Layer_Physical_Order=2*
G04 Layer_Color=16711680*
%ADD10R,0.03937X0.05906*%
%ADD11C,0.01000*%
%ADD12C,0.03000*%
%ADD13C,0.04724*%
%ADD14R,0.04724X0.04724*%
%ADD15C,0.12000*%
G04:AMPARAMS|DCode=16|XSize=82.68mil|YSize=82.68mil|CornerRadius=0mil|HoleSize=0mil|Usage=FLASHONLY|Rotation=90.000|XOffset=0mil|YOffset=0mil|HoleType=Round|Shape=Octagon|*
%AMOCTAGOND16*
4,1,8,0.02067,0.04134,-0.02067,0.04134,-0.04134,0.02067,-0.04134,-0.02067,-0.02067,-0.04134,0.02067,-0.04134,0.04134,-0.02067,0.04134,0.02067,0.02067,0.04134,0.0*
%
%ADD16OCTAGOND16*%

%ADD17C,0.03937*%
%ADD18C,0.05000*%
D11*
X15695Y218865D02*
X126208D01*
X9352Y225208D02*
X15695Y218865D01*
X9352Y225208D02*
Y334733D01*
X30465Y355847D01*
X126208Y218865D02*
X134047Y226704D01*
X159232Y287913D02*
X172087Y300769D01*
X159232Y233912D02*
Y287913D01*
Y233912D02*
X166440Y226704D01*
Y281182D02*
Y286048D01*
X169299Y288907D02*
X176825D01*
X166440Y286048D02*
X169299Y288907D01*
X176825D02*
X191791Y303872D01*
X52272Y441469D02*
X67587D01*
X50075Y439271D02*
X52272Y441469D01*
X50075Y434721D02*
Y439271D01*
X111468Y399213D02*
X121743D01*
X114667Y407087D02*
X119992Y401762D01*
X155586D01*
X125314Y79281D02*
X134047Y70547D01*
X125314Y79281D02*
Y94600D01*
X90523Y129392D02*
X125314Y94600D01*
X164225Y81669D02*
X173035D01*
X110893Y111850D02*
X134044D01*
X164225Y81669D01*
X104087Y118656D02*
X110893Y111850D01*
X134047Y42988D02*
Y70547D01*
X104087Y118656D02*
Y158669D01*
X50582Y129392D02*
X90523D01*
X46999Y125809D02*
X50582Y129392D01*
X27813Y235796D02*
Y325411D01*
X27568Y325656D02*
X27813Y325411D01*
X109205Y438583D02*
X113067Y434721D01*
X87845Y438583D02*
X109205D01*
X183205Y363469D02*
Y368487D01*
X153930Y397762D02*
X183205Y368487D01*
X155586Y401762D02*
X189791Y367558D01*
Y330272D02*
Y367558D01*
X191791Y303872D02*
Y370565D01*
X154887Y407469D02*
X191791Y370565D01*
X174500Y370269D02*
X178800Y365969D01*
Y356181D02*
Y365969D01*
X166987Y344369D02*
X178800Y356181D01*
X85583Y421923D02*
X107052Y400454D01*
X85583Y421923D02*
Y436320D01*
X69687Y432163D02*
Y439369D01*
X108709Y396454D02*
X111468Y399213D01*
X105395Y396454D02*
X108709D01*
X69687Y432163D02*
X105395Y396454D01*
X85583Y436320D02*
X87845Y438583D01*
X114667Y391339D02*
X124483Y381523D01*
X105157Y391339D02*
X114667D01*
X115884Y383465D02*
X118351Y380998D01*
X108789Y383465D02*
X115884D01*
X65823Y430673D02*
X105157Y391339D01*
X65823Y430673D02*
Y434721D01*
X57949Y434304D02*
X108789Y383465D01*
X57949Y434304D02*
Y434721D01*
X89445D02*
X109205Y414961D01*
Y409349D02*
Y414961D01*
Y409349D02*
X111468Y407087D01*
X114667D01*
X137031Y370269D02*
X174500D01*
X126331Y367569D02*
X171231D01*
X175331Y363469D01*
X140442Y359969D02*
X166440Y333971D01*
X93331Y359969D02*
X140442D01*
X89445Y363854D02*
X93331Y359969D01*
X119487Y407469D02*
X154887D01*
X151138Y374720D02*
Y382646D01*
X151064Y382720D02*
X151138Y382646D01*
X118351Y380998D02*
X118930D01*
X124483Y374569D02*
Y381523D01*
X34327Y434721D02*
X93379Y375669D01*
X115587D01*
X120987Y370269D01*
X27568Y325656D02*
Y349221D01*
X42201Y363854D01*
X30465Y365454D02*
X38079Y373068D01*
X73725D01*
X30465Y355847D02*
Y365454D01*
X135587Y349469D02*
X142664Y342391D01*
Y303519D02*
Y342391D01*
X137114Y297969D02*
X142664Y303519D01*
X52817Y297969D02*
X137114D01*
X81571Y363854D02*
X83064Y365347D01*
Y367194D01*
X85587Y369717D01*
X94559D01*
X96507Y367769D01*
X126131D01*
X126331Y367569D01*
X99853Y379769D02*
X100019Y379602D01*
X113067D01*
X173035Y81669D02*
X184157Y70547D01*
X104087Y158669D02*
X115387Y169969D01*
Y182469D01*
X107987Y189869D02*
X115387Y182469D01*
X52887Y189869D02*
X107987D01*
X93457Y367717D02*
X97319Y363854D01*
X87035Y367717D02*
X93457D01*
X85487Y366169D02*
X87035Y367717D01*
X85487Y359969D02*
Y366169D01*
Y359969D02*
X95987Y349469D01*
X135587D01*
X36030Y281182D02*
X52817Y297969D01*
X73697Y363854D02*
X90083Y347469D01*
X120549D01*
X134047Y333971D01*
X57949Y355889D02*
Y363854D01*
X36030Y333971D02*
X57949Y355889D01*
X172087Y300769D02*
Y312569D01*
X189791Y330272D01*
X120987Y370269D02*
X128331D01*
X129031Y369569D01*
X136331D01*
X137031Y370269D01*
X91475Y371728D02*
X113067D01*
X85487Y377717D02*
X91475Y371728D01*
X29635Y377717D02*
X85487D01*
X22487Y370569D02*
X29635Y377717D01*
X22487Y359969D02*
Y370569D01*
X7887Y345369D02*
X22487Y359969D01*
X11887Y164169D02*
X99857D01*
X109731Y174043D01*
X36030Y232212D02*
X73987Y270169D01*
X36030Y226704D02*
Y232212D01*
X132287Y373569D02*
Y388669D01*
X121743Y399213D02*
X132287Y388669D01*
X67587Y441469D02*
X69687Y439369D01*
X151675Y120083D02*
X189887Y158294D01*
X134047Y120083D02*
X151675D01*
X113067Y418973D02*
X116987Y415053D01*
Y409969D02*
Y415053D01*
Y409969D02*
X119487Y407469D01*
D12*
X36030Y120083D02*
X67436D01*
X116331Y42988D02*
X123050Y36269D01*
X159721D01*
X166440Y42988D01*
X67436D02*
X74155Y36269D01*
X109612D01*
X116331Y42988D01*
X67436Y333971D02*
X74138Y327269D01*
X109629D01*
X116331Y333971D01*
X54987Y199144D02*
X67436D01*
X48311Y192469D02*
X54987Y199144D01*
X24990Y192469D02*
X48311D01*
X18314Y199144D02*
X24990Y192469D01*
X60975Y146484D02*
X92015D01*
X75330Y240290D02*
X138322D01*
D13*
X18579Y363854D02*
D03*
Y371728D02*
D03*
Y379602D02*
D03*
Y387476D02*
D03*
Y395350D02*
D03*
Y403225D02*
D03*
Y411099D02*
D03*
Y418973D02*
D03*
Y426847D02*
D03*
Y434721D02*
D03*
X113067D02*
D03*
Y363854D02*
D03*
X105193D02*
D03*
X97319D02*
D03*
X89445D02*
D03*
X81571D02*
D03*
X73697D02*
D03*
X65823D02*
D03*
X113067Y371728D02*
D03*
Y379602D02*
D03*
Y387476D02*
D03*
Y395350D02*
D03*
Y403225D02*
D03*
Y411099D02*
D03*
Y418973D02*
D03*
Y426847D02*
D03*
X100520Y413189D02*
D03*
X105193Y434721D02*
D03*
X97319D02*
D03*
X89445D02*
D03*
X81571D02*
D03*
X73697D02*
D03*
X65823D02*
D03*
X57949D02*
D03*
X50075D02*
D03*
X42201D02*
D03*
X34327D02*
D03*
X26453D02*
D03*
Y363854D02*
D03*
X34327D02*
D03*
X42201D02*
D03*
X50075D02*
D03*
D14*
X57949D02*
D03*
D15*
X138322Y240290D02*
D03*
Y22967D02*
D03*
X75330D02*
D03*
Y240290D02*
D03*
D16*
X184157Y42988D02*
D03*
X166440D02*
D03*
X184157Y70547D02*
D03*
X166440D02*
D03*
X85152Y42988D02*
D03*
X67436D02*
D03*
X85152Y70547D02*
D03*
X67436D02*
D03*
X18314Y120083D02*
D03*
X36030D02*
D03*
X18314Y92523D02*
D03*
X36030D02*
D03*
X134047Y199144D02*
D03*
X116331D02*
D03*
X134047Y226704D02*
D03*
X116331D02*
D03*
X85152Y253622D02*
D03*
X67436D02*
D03*
X85152Y281182D02*
D03*
X67436D02*
D03*
X36030Y306411D02*
D03*
X18314D02*
D03*
X36030Y333971D02*
D03*
X18314D02*
D03*
X134047Y42988D02*
D03*
X116331D02*
D03*
X134047Y70547D02*
D03*
X116331D02*
D03*
X85152Y92523D02*
D03*
X67436D02*
D03*
X85152Y120083D02*
D03*
X67436D02*
D03*
X166440Y226704D02*
D03*
X184157D02*
D03*
X166440Y199144D02*
D03*
X184157D02*
D03*
X134047Y253622D02*
D03*
X116331D02*
D03*
X134047Y281182D02*
D03*
X116331D02*
D03*
X85152Y306411D02*
D03*
X67436D02*
D03*
X85152Y333971D02*
D03*
X67436D02*
D03*
X134047Y92523D02*
D03*
X116331D02*
D03*
X134047Y120083D02*
D03*
X116331D02*
D03*
X43259Y174043D02*
D03*
X60975D02*
D03*
X43259Y146484D02*
D03*
X60975D02*
D03*
X166440Y281182D02*
D03*
X184157D02*
D03*
X166440Y253622D02*
D03*
X184157D02*
D03*
X134047Y306411D02*
D03*
X116331D02*
D03*
X134047Y333971D02*
D03*
X116331D02*
D03*
X184157Y92523D02*
D03*
X166440D02*
D03*
X184157Y120083D02*
D03*
X166440D02*
D03*
X109731Y146484D02*
D03*
X92015D02*
D03*
X109731Y174043D02*
D03*
X92015D02*
D03*
X36030Y199144D02*
D03*
X18314D02*
D03*
X36030Y226704D02*
D03*
X18314D02*
D03*
X166440Y333971D02*
D03*
X184157D02*
D03*
X166440Y306411D02*
D03*
X184157D02*
D03*
X36030Y42988D02*
D03*
X18314D02*
D03*
X36030Y70547D02*
D03*
X18314D02*
D03*
X142409Y174043D02*
D03*
X160126D02*
D03*
X142409Y146484D02*
D03*
X160126D02*
D03*
X85152Y199144D02*
D03*
X67436D02*
D03*
X85152Y226704D02*
D03*
X67436D02*
D03*
X36030Y253622D02*
D03*
X18314D02*
D03*
X36030Y281182D02*
D03*
X18314D02*
D03*
D17*
X183205Y363469D02*
D03*
X175331D02*
D03*
X167457D02*
D03*
X159583D02*
D03*
X151709D02*
D03*
X143835D02*
D03*
X135961D02*
D03*
X128087D02*
D03*
D18*
X46999Y125809D02*
D03*
X27813Y235796D02*
D03*
X153930Y397762D02*
D03*
X107052Y400454D02*
D03*
X151064Y382720D02*
D03*
X118930Y380998D02*
D03*
X151138Y374720D02*
D03*
X73725Y373068D02*
D03*
X99853Y379769D02*
D03*
X52887Y189869D02*
D03*
X124483Y374569D02*
D03*
X166987Y344369D02*
D03*
X7887Y345369D02*
D03*
X11887Y164169D02*
D03*
X73987Y270169D02*
D03*
X132287Y373569D02*
D03*
X189887Y158294D02*
D03*
M02*
