%FSLAX25Y25*%
%MOIN*%
G70*
G01*
G75*
G04 Layer_Physical_Order=1*
G04 Layer_Color=255*
%ADD10R,0.03937X0.05906*%
%ADD11C,0.01000*%
%ADD12C,0.03000*%
%ADD13C,0.04724*%
%ADD14R,0.04724X0.04724*%
%ADD15C,0.12000*%
G04:AMPARAMS|DCode=16|XSize=82.68mil|YSize=82.68mil|CornerRadius=0mil|HoleSize=0mil|Usage=FLASHONLY|Rotation=90.000|XOffset=0mil|YOffset=0mil|HoleType=Round|Shape=Octagon|*
%AMOCTAGOND16*
4,1,8,0.02067,0.04134,-0.02067,0.04134,-0.04134,0.02067,-0.04134,-0.02067,-0.02067,-0.04134,0.02067,-0.04134,0.04134,-0.02067,0.04134,0.02067,0.02067,0.04134,0.0*
%
%ADD16OCTAGOND16*%

%ADD17C,0.03937*%
%ADD18C,0.05000*%
D10*
X128087Y359969D02*
D03*
X135961D02*
D03*
X143835D02*
D03*
X151709D02*
D03*
X159583D02*
D03*
X167457D02*
D03*
X175331D02*
D03*
X183205D02*
D03*
D11*
X113067Y363854D02*
X119557Y370344D01*
Y375969D01*
X27813Y144995D02*
X46999Y125809D01*
X27813Y144995D02*
Y235796D01*
X101052Y397969D02*
X104329Y394692D01*
Y374811D02*
Y394692D01*
X101287Y371769D02*
X104329Y374811D01*
X103052Y398797D02*
X106329Y395521D01*
Y375208D02*
Y395521D01*
Y375208D02*
X109187Y372350D01*
Y190369D02*
Y372350D01*
X105193Y407790D02*
Y434721D01*
X101052Y397969D02*
Y403649D01*
X105193Y407790D01*
X103052Y402111D02*
X112040Y411099D01*
X103052Y398797D02*
Y402111D01*
X112040Y411099D02*
X113067D01*
X108294Y399213D02*
X152479D01*
X107052Y400454D02*
X108294Y399213D01*
X152479D02*
X153930Y397762D01*
X115479Y392938D02*
X183617D01*
X113067Y395350D02*
X115479Y392938D01*
X114311Y388720D02*
X183136D01*
X183617Y392938D02*
X193887Y382669D01*
Y129813D02*
Y382669D01*
X183136Y388720D02*
X189887Y381969D01*
Y158294D02*
Y381969D01*
X118930Y405162D02*
Y436126D01*
X116993Y403225D02*
X118930Y405162D01*
X148963Y378720D02*
X160236D01*
X163087Y375869D01*
X120652Y382720D02*
X151064D01*
X118930Y380998D02*
X120652Y382720D01*
X148080Y379603D02*
X148963Y378720D01*
X113067Y387476D02*
X114311Y388720D01*
X123192Y379603D02*
X148080D01*
X119557Y375969D02*
X123192Y379603D01*
X134696Y377603D02*
X143835Y368464D01*
X127517Y377603D02*
X134696D01*
X124483Y374569D02*
X127517Y377603D01*
X26787Y375669D02*
X73697Y422579D01*
X15587Y375669D02*
X26787D01*
X73697Y422579D02*
Y434721D01*
X46087Y385269D02*
X81571Y420753D01*
Y434721D01*
X101287Y424669D02*
Y436283D01*
X95287Y418669D02*
X101287Y424669D01*
X88801Y440583D02*
X114473D01*
X95287Y386115D02*
Y418669D01*
X114473Y440583D02*
X118930Y436126D01*
X151138Y374720D02*
X151709Y374149D01*
Y363469D02*
Y374149D01*
X11887Y164169D02*
Y349369D01*
X10687Y350569D02*
X11887Y349369D01*
X10687Y350569D02*
Y370769D01*
X5887Y343369D02*
X7887Y345369D01*
X5887Y132509D02*
Y343369D01*
Y132509D02*
X18314Y120083D01*
X73725Y373068D02*
Y373506D01*
X90387Y390169D01*
X183205Y359969D02*
Y363468D01*
X183205Y363469D01*
X175331Y359969D02*
Y363468D01*
X175331Y363469D01*
X74187Y131048D02*
X85152Y120083D01*
X74187Y131048D02*
Y230827D01*
X67830Y237183D02*
X74187Y230827D01*
X67830Y237183D02*
Y243412D01*
X79487Y255069D01*
Y286869D01*
X93387Y300769D01*
Y373302D01*
X99853Y379769D01*
X184157Y120083D02*
X193887Y129813D01*
X113067Y403225D02*
X116993D01*
X85487Y437269D02*
X88801Y440583D01*
X85487Y393869D02*
Y437269D01*
X61887Y370269D02*
X85487Y393869D01*
X61887Y360769D02*
Y370269D01*
X60087Y358969D02*
X61887Y360769D01*
X60087Y189869D02*
Y358969D01*
X55187Y184969D02*
X60087Y189869D01*
X55187Y89704D02*
Y184969D01*
X36030Y70547D02*
X55187Y89704D01*
X50075Y192680D02*
X52887Y189869D01*
X50075Y192680D02*
Y363854D01*
X143835Y363469D02*
Y368464D01*
X90387Y390169D02*
Y427788D01*
X97319Y434721D01*
X166987Y344369D02*
X172087Y339269D01*
Y298069D02*
Y339269D01*
X160787Y286769D02*
X172087Y298069D01*
X160787Y192420D02*
Y286769D01*
X142409Y174043D02*
X160787Y192420D01*
X10687Y370769D02*
X15587Y375669D01*
X109187Y430727D02*
X113067Y426847D01*
X109187Y430727D02*
Y436983D01*
X107587Y438583D02*
X109187Y436983D01*
X103587Y438583D02*
X107587D01*
X101287Y436283D02*
X103587Y438583D01*
X85487Y376315D02*
X95287Y386115D01*
X85487Y355069D02*
Y376315D01*
Y355069D02*
X90787Y349769D01*
Y301969D02*
Y349769D01*
X73987Y285169D02*
X90787Y301969D01*
X73987Y270169D02*
Y285169D01*
X163087Y356169D02*
Y375869D01*
X160787Y353869D02*
X163087Y356169D01*
X160787Y307921D02*
Y353869D01*
X134047Y281182D02*
X160787Y307921D01*
X132287Y367143D02*
X135961Y363469D01*
X132287Y367143D02*
Y373569D01*
X85152Y226704D02*
X101287Y242838D01*
Y371769D01*
X85152Y70547D02*
X100787Y86182D01*
Y181969D01*
X109187Y190369D01*
X105193Y203275D02*
Y363854D01*
X92587Y190669D02*
X105193Y203275D01*
X83587Y190669D02*
X92587D01*
X79487Y194769D02*
X83587Y190669D01*
X79487Y194769D02*
Y232369D01*
X85152Y238034D01*
Y253622D01*
Y333971D02*
Y344525D01*
X65823Y363854D02*
X85152Y344525D01*
X43259Y174043D02*
Y332540D01*
X46087Y335369D01*
Y385269D01*
X18314Y92523D02*
Y120083D01*
X85152Y92523D02*
Y120083D01*
X134047Y92523D02*
Y120083D01*
X184157Y92523D02*
Y120083D01*
X36030Y42988D02*
Y70547D01*
X85152Y42988D02*
Y70547D01*
X184157Y42988D02*
Y70547D01*
X143835Y359969D02*
Y363469D01*
X135961Y359969D02*
Y363469D01*
X151709Y359969D02*
Y363469D01*
X36030Y306411D02*
Y333971D01*
X85152Y306411D02*
Y333971D01*
X134047Y306411D02*
Y333971D01*
X166440Y306411D02*
Y333971D01*
X36030Y253622D02*
Y281182D01*
X85152Y253622D02*
Y281182D01*
X134047Y253622D02*
Y281182D01*
X166440Y253622D02*
Y281182D01*
X36030Y199144D02*
Y226704D01*
X85152Y199144D02*
Y226704D01*
X134047Y199144D02*
Y226704D01*
X166440Y199144D02*
Y226704D01*
X43259Y146484D02*
Y174043D01*
X109731Y146484D02*
Y174043D01*
X142409Y146484D02*
Y174043D01*
D12*
X128087Y340569D02*
Y359969D01*
X127387Y339869D02*
X128087Y340569D01*
X184157Y333971D02*
Y337024D01*
X160126Y126397D02*
Y146484D01*
Y126397D02*
X166440Y120083D01*
X36030Y88264D02*
Y92523D01*
X18314Y70547D02*
X36030Y88264D01*
X67436Y30862D02*
Y42988D01*
Y30862D02*
X75330Y22967D01*
X60975Y126543D02*
Y146484D01*
Y126543D02*
X67436Y120083D01*
Y180503D02*
Y199144D01*
X60975Y174043D02*
X67436Y180503D01*
X167457Y353724D02*
Y359969D01*
Y353724D02*
X184157Y337024D01*
X127387Y33903D02*
Y339869D01*
Y33903D02*
X138322Y22967D01*
X67436Y249080D02*
Y253622D01*
X64830Y246474D02*
X67436Y249080D01*
X64830Y235001D02*
Y246474D01*
Y235001D02*
X67436Y232396D01*
Y226704D02*
Y232396D01*
X18314Y333971D02*
Y354342D01*
X13687Y358969D02*
X18314Y354342D01*
X13687Y358969D02*
Y366836D01*
X18579Y371728D01*
X128087Y359969D02*
Y363469D01*
X167457Y359969D02*
Y363469D01*
X184157Y306411D02*
Y333971D01*
Y281182D02*
Y306411D01*
Y199144D02*
Y226704D01*
Y253622D02*
Y281182D01*
Y226704D02*
Y253622D01*
X166440Y42988D02*
Y70547D01*
Y92523D02*
Y120083D01*
Y70547D02*
Y92523D01*
X160126Y146484D02*
Y174043D01*
X18314Y199144D02*
Y226704D01*
Y253622D01*
Y306411D02*
Y333971D01*
Y253622D02*
Y281182D01*
Y306411D01*
X116331D02*
Y333971D01*
Y281182D02*
Y306411D01*
Y199144D02*
Y226704D01*
Y253622D02*
Y281182D01*
Y226704D02*
Y253622D01*
Y92523D02*
Y120083D01*
Y42988D02*
Y70547D01*
Y92523D01*
X18314Y42988D02*
Y70547D01*
X36030Y92523D02*
Y120083D01*
X67436Y92523D02*
Y120083D01*
Y42988D02*
Y70547D01*
Y92523D01*
X92015Y146484D02*
Y174043D01*
X60975Y146484D02*
Y174043D01*
X67436Y306411D02*
Y333971D01*
Y281182D02*
Y306411D01*
Y199144D02*
Y226704D01*
Y253622D02*
Y281182D01*
X160126Y174043D02*
Y175113D01*
X184157Y199144D01*
D13*
X18579Y363854D02*
D03*
Y371728D02*
D03*
Y379602D02*
D03*
Y387476D02*
D03*
Y395350D02*
D03*
Y403225D02*
D03*
Y411099D02*
D03*
Y418973D02*
D03*
Y426847D02*
D03*
Y434721D02*
D03*
X113067D02*
D03*
Y363854D02*
D03*
X105193D02*
D03*
X97319D02*
D03*
X89445D02*
D03*
X81571D02*
D03*
X73697D02*
D03*
X65823D02*
D03*
X113067Y371728D02*
D03*
Y379602D02*
D03*
Y387476D02*
D03*
Y395350D02*
D03*
Y403225D02*
D03*
Y411099D02*
D03*
Y418973D02*
D03*
Y426847D02*
D03*
X100520Y413189D02*
D03*
X105193Y434721D02*
D03*
X97319D02*
D03*
X89445D02*
D03*
X81571D02*
D03*
X73697D02*
D03*
X65823D02*
D03*
X57949D02*
D03*
X50075D02*
D03*
X42201D02*
D03*
X34327D02*
D03*
X26453D02*
D03*
Y363854D02*
D03*
X34327D02*
D03*
X42201D02*
D03*
X50075D02*
D03*
D14*
X57949D02*
D03*
D15*
X138322Y240290D02*
D03*
Y22967D02*
D03*
X75330D02*
D03*
Y240290D02*
D03*
D16*
X184157Y42988D02*
D03*
X166440D02*
D03*
X184157Y70547D02*
D03*
X166440D02*
D03*
X85152Y42988D02*
D03*
X67436D02*
D03*
X85152Y70547D02*
D03*
X67436D02*
D03*
X18314Y120083D02*
D03*
X36030D02*
D03*
X18314Y92523D02*
D03*
X36030D02*
D03*
X134047Y199144D02*
D03*
X116331D02*
D03*
X134047Y226704D02*
D03*
X116331D02*
D03*
X85152Y253622D02*
D03*
X67436D02*
D03*
X85152Y281182D02*
D03*
X67436D02*
D03*
X36030Y306411D02*
D03*
X18314D02*
D03*
X36030Y333971D02*
D03*
X18314D02*
D03*
X134047Y42988D02*
D03*
X116331D02*
D03*
X134047Y70547D02*
D03*
X116331D02*
D03*
X85152Y92523D02*
D03*
X67436D02*
D03*
X85152Y120083D02*
D03*
X67436D02*
D03*
X166440Y226704D02*
D03*
X184157D02*
D03*
X166440Y199144D02*
D03*
X184157D02*
D03*
X134047Y253622D02*
D03*
X116331D02*
D03*
X134047Y281182D02*
D03*
X116331D02*
D03*
X85152Y306411D02*
D03*
X67436D02*
D03*
X85152Y333971D02*
D03*
X67436D02*
D03*
X134047Y92523D02*
D03*
X116331D02*
D03*
X134047Y120083D02*
D03*
X116331D02*
D03*
X43259Y174043D02*
D03*
X60975D02*
D03*
X43259Y146484D02*
D03*
X60975D02*
D03*
X166440Y281182D02*
D03*
X184157D02*
D03*
X166440Y253622D02*
D03*
X184157D02*
D03*
X134047Y306411D02*
D03*
X116331D02*
D03*
X134047Y333971D02*
D03*
X116331D02*
D03*
X184157Y92523D02*
D03*
X166440D02*
D03*
X184157Y120083D02*
D03*
X166440D02*
D03*
X109731Y146484D02*
D03*
X92015D02*
D03*
X109731Y174043D02*
D03*
X92015D02*
D03*
X36030Y199144D02*
D03*
X18314D02*
D03*
X36030Y226704D02*
D03*
X18314D02*
D03*
X166440Y333971D02*
D03*
X184157D02*
D03*
X166440Y306411D02*
D03*
X184157D02*
D03*
X36030Y42988D02*
D03*
X18314D02*
D03*
X36030Y70547D02*
D03*
X18314D02*
D03*
X142409Y174043D02*
D03*
X160126D02*
D03*
X142409Y146484D02*
D03*
X160126D02*
D03*
X85152Y199144D02*
D03*
X67436D02*
D03*
X85152Y226704D02*
D03*
X67436D02*
D03*
X36030Y253622D02*
D03*
X18314D02*
D03*
X36030Y281182D02*
D03*
X18314D02*
D03*
D17*
X183205Y363469D02*
D03*
X175331D02*
D03*
X167457D02*
D03*
X159583D02*
D03*
X151709D02*
D03*
X143835D02*
D03*
X135961D02*
D03*
X128087D02*
D03*
D18*
X46999Y125809D02*
D03*
X27813Y235796D02*
D03*
X153930Y397762D02*
D03*
X107052Y400454D02*
D03*
X151064Y382720D02*
D03*
X118930Y380998D02*
D03*
X151138Y374720D02*
D03*
X73725Y373068D02*
D03*
X99853Y379769D02*
D03*
X52887Y189869D02*
D03*
X124483Y374569D02*
D03*
X166987Y344369D02*
D03*
X7887Y345369D02*
D03*
X11887Y164169D02*
D03*
X73987Y270169D02*
D03*
X132287Y373569D02*
D03*
X189887Y158294D02*
D03*
M02*
