%FSLAX25Y25*%
%MOIN*%
G70*
G01*
G75*
G04 Layer_Color=8388736*
%ADD10R,0.03937X0.05906*%
%ADD11C,0.01000*%
%ADD12C,0.03000*%
%ADD13C,0.04724*%
%ADD14R,0.04724X0.04724*%
%ADD15C,0.12000*%
G04:AMPARAMS|DCode=16|XSize=82.68mil|YSize=82.68mil|CornerRadius=0mil|HoleSize=0mil|Usage=FLASHONLY|Rotation=90.000|XOffset=0mil|YOffset=0mil|HoleType=Round|Shape=Octagon|*
%AMOCTAGOND16*
4,1,8,0.02067,0.04134,-0.02067,0.04134,-0.04134,0.02067,-0.04134,-0.02067,-0.02067,-0.04134,0.02067,-0.04134,0.04134,-0.02067,0.04134,0.02067,0.02067,0.04134,0.0*
%
%ADD16OCTAGOND16*%

%ADD17C,0.03937*%
%ADD18C,0.05000*%
%ADD19C,0.00500*%
%ADD20C,0.00600*%
%ADD21R,0.04737X0.06706*%
%ADD22C,0.05524*%
%ADD23R,0.05524X0.05524*%
%ADD24C,0.12800*%
G04:AMPARAMS|DCode=25|XSize=90.68mil|YSize=90.68mil|CornerRadius=0mil|HoleSize=0mil|Usage=FLASHONLY|Rotation=90.000|XOffset=0mil|YOffset=0mil|HoleType=Round|Shape=Octagon|*
%AMOCTAGOND25*
4,1,8,0.02267,0.04534,-0.02267,0.04534,-0.04534,0.02267,-0.04534,-0.02267,-0.02267,-0.04534,0.02267,-0.04534,0.04534,-0.02267,0.04534,0.02267,0.02267,0.04534,0.0*
%
%ADD25OCTAGOND25*%

%ADD26C,0.04737*%
%ADD27C,0.05800*%
D21*
X128087Y359969D02*
D03*
X135961D02*
D03*
X143835D02*
D03*
X151709D02*
D03*
X159583D02*
D03*
X167457D02*
D03*
X175331D02*
D03*
X183205D02*
D03*
D22*
X18579Y363854D02*
D03*
Y371728D02*
D03*
Y379602D02*
D03*
Y387476D02*
D03*
Y395350D02*
D03*
Y403225D02*
D03*
Y411099D02*
D03*
Y418973D02*
D03*
Y426847D02*
D03*
Y434721D02*
D03*
X113067D02*
D03*
Y363854D02*
D03*
X105193D02*
D03*
X97319D02*
D03*
X89445D02*
D03*
X81571D02*
D03*
X73697D02*
D03*
X65823D02*
D03*
X113067Y371728D02*
D03*
Y379602D02*
D03*
Y387476D02*
D03*
Y395350D02*
D03*
Y403225D02*
D03*
Y411099D02*
D03*
Y418973D02*
D03*
Y426847D02*
D03*
X100520Y413189D02*
D03*
X105193Y434721D02*
D03*
X97319D02*
D03*
X89445D02*
D03*
X81571D02*
D03*
X73697D02*
D03*
X65823D02*
D03*
X57949D02*
D03*
X50075D02*
D03*
X42201D02*
D03*
X34327D02*
D03*
X26453D02*
D03*
Y363854D02*
D03*
X34327D02*
D03*
X42201D02*
D03*
X50075D02*
D03*
D23*
X57949D02*
D03*
D24*
X138322Y240290D02*
D03*
Y22967D02*
D03*
X75330D02*
D03*
Y240290D02*
D03*
D25*
X184157Y42988D02*
D03*
X166440D02*
D03*
X184157Y70547D02*
D03*
X166440D02*
D03*
X85152Y42988D02*
D03*
X67436D02*
D03*
X85152Y70547D02*
D03*
X67436D02*
D03*
X18314Y120083D02*
D03*
X36030D02*
D03*
X18314Y92523D02*
D03*
X36030D02*
D03*
X134047Y199144D02*
D03*
X116331D02*
D03*
X134047Y226704D02*
D03*
X116331D02*
D03*
X85152Y253622D02*
D03*
X67436D02*
D03*
X85152Y281182D02*
D03*
X67436D02*
D03*
X36030Y306411D02*
D03*
X18314D02*
D03*
X36030Y333971D02*
D03*
X18314D02*
D03*
X134047Y42988D02*
D03*
X116331D02*
D03*
X134047Y70547D02*
D03*
X116331D02*
D03*
X85152Y92523D02*
D03*
X67436D02*
D03*
X85152Y120083D02*
D03*
X67436D02*
D03*
X166440Y226704D02*
D03*
X184157D02*
D03*
X166440Y199144D02*
D03*
X184157D02*
D03*
X134047Y253622D02*
D03*
X116331D02*
D03*
X134047Y281182D02*
D03*
X116331D02*
D03*
X85152Y306411D02*
D03*
X67436D02*
D03*
X85152Y333971D02*
D03*
X67436D02*
D03*
X134047Y92523D02*
D03*
X116331D02*
D03*
X134047Y120083D02*
D03*
X116331D02*
D03*
X43259Y174043D02*
D03*
X60975D02*
D03*
X43259Y146484D02*
D03*
X60975D02*
D03*
X166440Y281182D02*
D03*
X184157D02*
D03*
X166440Y253622D02*
D03*
X184157D02*
D03*
X134047Y306411D02*
D03*
X116331D02*
D03*
X134047Y333971D02*
D03*
X116331D02*
D03*
X184157Y92523D02*
D03*
X166440D02*
D03*
X184157Y120083D02*
D03*
X166440D02*
D03*
X109731Y146484D02*
D03*
X92015D02*
D03*
X109731Y174043D02*
D03*
X92015D02*
D03*
X36030Y199144D02*
D03*
X18314D02*
D03*
X36030Y226704D02*
D03*
X18314D02*
D03*
X166440Y333971D02*
D03*
X184157D02*
D03*
X166440Y306411D02*
D03*
X184157D02*
D03*
X36030Y42988D02*
D03*
X18314D02*
D03*
X36030Y70547D02*
D03*
X18314D02*
D03*
X142409Y174043D02*
D03*
X160126D02*
D03*
X142409Y146484D02*
D03*
X160126D02*
D03*
X85152Y199144D02*
D03*
X67436D02*
D03*
X85152Y226704D02*
D03*
X67436D02*
D03*
X36030Y253622D02*
D03*
X18314D02*
D03*
X36030Y281182D02*
D03*
X18314D02*
D03*
D26*
X183205Y363469D02*
D03*
X175331D02*
D03*
X167457D02*
D03*
X159583D02*
D03*
X151709D02*
D03*
X143835D02*
D03*
X135961D02*
D03*
X128087D02*
D03*
D27*
X46999Y125809D02*
D03*
X27813Y235796D02*
D03*
X153930Y397762D02*
D03*
X107052Y400454D02*
D03*
X151064Y382720D02*
D03*
X118930Y380998D02*
D03*
X151138Y374720D02*
D03*
X73725Y373068D02*
D03*
X99853Y379769D02*
D03*
X52887Y189869D02*
D03*
X124483Y374569D02*
D03*
X166987Y344369D02*
D03*
X7887Y345369D02*
D03*
X11887Y164169D02*
D03*
X73987Y270169D02*
D03*
X132287Y373569D02*
D03*
X189887Y158294D02*
D03*
M02*
