%FSLAX25Y25*%
%MOIN*%
G70*
G01*
G75*
G04 Layer_Color=65535*
%ADD10R,0.03937X0.05906*%
%ADD11C,0.01000*%
%ADD12C,0.03000*%
%ADD13C,0.04724*%
%ADD14R,0.04724X0.04724*%
%ADD15C,0.12000*%
G04:AMPARAMS|DCode=16|XSize=82.68mil|YSize=82.68mil|CornerRadius=0mil|HoleSize=0mil|Usage=FLASHONLY|Rotation=90.000|XOffset=0mil|YOffset=0mil|HoleType=Round|Shape=Octagon|*
%AMOCTAGOND16*
4,1,8,0.02067,0.04134,-0.02067,0.04134,-0.04134,0.02067,-0.04134,-0.02067,-0.02067,-0.04134,0.02067,-0.04134,0.04134,-0.02067,0.04134,0.02067,0.02067,0.04134,0.0*
%
%ADD16OCTAGOND16*%

%ADD17C,0.03937*%
%ADD18C,0.05000*%
%ADD19C,0.00500*%
%ADD20C,0.00600*%
D11*
X199702Y-9354D02*
Y0D01*
X0Y-9354D02*
Y0D01*
X110347Y-8354D02*
X199702D01*
X0D02*
X86154D01*
X193702Y-6354D02*
X199702Y-8354D01*
X193702Y-10354D02*
X199702Y-8354D01*
X0D02*
X6000Y-10354D01*
X0Y-8354D02*
X6000Y-6354D01*
X-12597Y447345D02*
X0D01*
X-12597Y0D02*
X0D01*
X-11597Y236169D02*
Y447345D01*
Y0D02*
Y207977D01*
X-13597Y441345D02*
X-11597Y447345D01*
X-9597Y441345D01*
X-11597Y0D02*
X-9597Y6000D01*
X-13597D02*
X-11597Y0D01*
X14587Y359969D02*
Y438669D01*
Y359969D02*
X117776D01*
Y438669D01*
X14587D02*
X117776D01*
X123363Y359969D02*
X187930D01*
X123363D02*
Y437134D01*
X187930D01*
Y359969D02*
Y437134D01*
X9985Y8971D02*
Y14969D01*
X12984D01*
X13984Y13969D01*
Y11970D01*
X12984Y10970D01*
X9985D01*
X11985D02*
X13984Y8971D01*
X18982Y14969D02*
X16983D01*
X15983Y13969D01*
Y9971D01*
X16983Y8971D01*
X18982D01*
X19982Y9971D01*
Y13969D01*
X18982Y14969D01*
X24981D02*
X22981D01*
X21982Y13969D01*
Y9971D01*
X22981Y8971D01*
X24981D01*
X25980Y9971D01*
Y13969D01*
X24981Y14969D01*
X27980Y8971D02*
Y14969D01*
X29979Y12970D01*
X31978Y14969D01*
Y8971D01*
X43974Y13969D02*
X42975Y14969D01*
X40975D01*
X39976Y13969D01*
Y12970D01*
X40975Y11970D01*
X42975D01*
X43974Y10970D01*
Y9971D01*
X42975Y8971D01*
X40975D01*
X39976Y9971D01*
X49973Y14969D02*
X45974D01*
Y8971D01*
X49973D01*
X45974Y11970D02*
X47973D01*
X51972Y14969D02*
Y8971D01*
X55971D01*
X61969Y14969D02*
X57970D01*
Y8971D01*
X61969D01*
X57970Y11970D02*
X59969D01*
X67967Y13969D02*
X66967Y14969D01*
X64968D01*
X63968Y13969D01*
Y9971D01*
X64968Y8971D01*
X66967D01*
X67967Y9971D01*
X69966Y14969D02*
X73965D01*
X71965D01*
Y8971D01*
X75964Y14969D02*
X77963D01*
X76964D01*
Y8971D01*
X75964D01*
X77963D01*
X83961Y14969D02*
X81962D01*
X80962Y13969D01*
Y9971D01*
X81962Y8971D01*
X83961D01*
X84961Y9971D01*
Y13969D01*
X83961Y14969D01*
X86961Y8971D02*
Y14969D01*
X90959Y8971D01*
Y14969D01*
D12*
X6206Y5222D02*
Y134983D01*
X6017D02*
X6206D01*
Y5222D02*
X194837D01*
Y134983D01*
X6017D02*
X194837D01*
D19*
X180165Y56724D02*
G03*
X180165Y56724I-4921J0D01*
G01*
X81160D02*
G03*
X81160Y56724I-4921J0D01*
G01*
X32148Y106346D02*
G03*
X32148Y106346I-4921J0D01*
G01*
X130056Y212881D02*
G03*
X130056Y212881I-4921J0D01*
G01*
X81160Y267359D02*
G03*
X81160Y267359I-4921J0D01*
G01*
X32039Y320148D02*
G03*
X32039Y320148I-4921J0D01*
G01*
X130056Y56724D02*
G03*
X130056Y56724I-4921J0D01*
G01*
X81160Y106260D02*
G03*
X81160Y106260I-4921J0D01*
G01*
X180275Y212967D02*
G03*
X180275Y212967I-4921J0D01*
G01*
X130056Y267359D02*
G03*
X130056Y267359I-4921J0D01*
G01*
X81160Y320148D02*
G03*
X81160Y320148I-4921J0D01*
G01*
X130056Y106260D02*
G03*
X130056Y106260I-4921J0D01*
G01*
X57093Y160307D02*
G03*
X57093Y160307I-4921J0D01*
G01*
X180275Y267445D02*
G03*
X180275Y267445I-4921J0D01*
G01*
X130056Y320148D02*
G03*
X130056Y320148I-4921J0D01*
G01*
X180165Y106260D02*
G03*
X180165Y106260I-4921J0D01*
G01*
X105739Y160220D02*
G03*
X105739Y160220I-4921J0D01*
G01*
X32039Y212881D02*
G03*
X32039Y212881I-4921J0D01*
G01*
X180275Y320234D02*
G03*
X180275Y320234I-4921J0D01*
G01*
X32039Y56724D02*
G03*
X32039Y56724I-4921J0D01*
G01*
X156244Y160307D02*
G03*
X156244Y160307I-4921J0D01*
G01*
X81160Y212881D02*
G03*
X81160Y212881I-4921J0D01*
G01*
X32039Y267359D02*
G03*
X32039Y267359I-4921J0D01*
G01*
X171755Y70153D02*
X178842D01*
X171755Y43382D02*
X178842D01*
X189299Y44015D02*
Y69524D01*
X161299Y44026D02*
Y69508D01*
X72751Y70153D02*
X79837D01*
X72751Y43382D02*
X79837D01*
X90294Y44015D02*
Y69524D01*
X62294Y44026D02*
Y69508D01*
X23629Y92917D02*
X30715D01*
X23629Y119689D02*
X30715D01*
X13172Y93546D02*
Y119055D01*
X41172Y93562D02*
Y119044D01*
X121646Y226310D02*
X128733D01*
X121646Y199538D02*
X128733D01*
X139189Y200172D02*
Y225681D01*
X111189Y200183D02*
Y225665D01*
X72751Y280788D02*
X79837D01*
X72751Y254016D02*
X79837D01*
X90294Y254650D02*
Y280159D01*
X62294Y254661D02*
Y280143D01*
X23629Y333577D02*
X30715D01*
X23629Y306805D02*
X30715D01*
X41172Y307439D02*
Y332948D01*
X13172Y307450D02*
Y332932D01*
X121646Y70153D02*
X128733D01*
X121646Y43382D02*
X128733D01*
X139189Y44015D02*
Y69524D01*
X111189Y44026D02*
Y69508D01*
X72751Y119689D02*
X79837D01*
X72751Y92917D02*
X79837D01*
X90294Y93551D02*
Y119060D01*
X62294Y93562D02*
Y119044D01*
X171755Y199538D02*
X178842D01*
X171755Y226310D02*
X178842D01*
X161299Y200167D02*
Y225676D01*
X189299Y200183D02*
Y225665D01*
X121646Y280788D02*
X128733D01*
X121646Y254016D02*
X128733D01*
X139189Y254650D02*
Y280159D01*
X111189Y254661D02*
Y280143D01*
X72751Y333577D02*
X79837D01*
X72751Y306805D02*
X79837D01*
X90294Y307439D02*
Y332948D01*
X62294Y307450D02*
Y332932D01*
X121646Y119689D02*
X128733D01*
X121646Y92917D02*
X128733D01*
X139189Y93551D02*
Y119060D01*
X111189Y93562D02*
Y119044D01*
X48574Y146877D02*
X55660D01*
X48574Y173649D02*
X55660D01*
X38117Y147506D02*
Y173016D01*
X66117Y147522D02*
Y173004D01*
X171755Y254016D02*
X178842D01*
X171755Y280788D02*
X178842D01*
X161299Y254645D02*
Y280154D01*
X189299Y254661D02*
Y280143D01*
X121646Y333577D02*
X128733D01*
X121646Y306805D02*
X128733D01*
X139189Y307439D02*
Y332948D01*
X111189Y307450D02*
Y332932D01*
X171755Y119689D02*
X178842D01*
X171755Y92917D02*
X178842D01*
X189299Y93551D02*
Y119060D01*
X161299Y93562D02*
Y119044D01*
X97330Y173649D02*
X104416D01*
X97330Y146877D02*
X104416D01*
X114873Y147511D02*
Y173020D01*
X86873Y147522D02*
Y173004D01*
X23629Y226310D02*
X30715D01*
X23629Y199538D02*
X30715D01*
X41172Y200172D02*
Y225681D01*
X13172Y200183D02*
Y225665D01*
X171755Y306805D02*
X178842D01*
X171755Y333577D02*
X178842D01*
X161299Y307434D02*
Y332943D01*
X189299Y307450D02*
Y332932D01*
X23629Y70153D02*
X30715D01*
X23629Y43382D02*
X30715D01*
X41172Y44015D02*
Y69524D01*
X13172Y44026D02*
Y69508D01*
X147724Y146877D02*
X154811D01*
X147724Y173649D02*
X154811D01*
X137268Y147506D02*
Y173016D01*
X165268Y147522D02*
Y173004D01*
X72751Y226310D02*
X79837D01*
X72751Y199538D02*
X79837D01*
X90294Y200172D02*
Y225681D01*
X62294Y200183D02*
Y225665D01*
X23629Y280788D02*
X30715D01*
X23629Y254016D02*
X30715D01*
X41172Y254650D02*
Y280159D01*
X13172Y254661D02*
Y280143D01*
X16078Y443571D02*
Y441072D01*
X16578Y440572D01*
X17577D01*
X18077Y441072D01*
Y443571D01*
X19077Y440572D02*
X20076D01*
X19577D01*
Y443571D01*
X19077Y443071D01*
X123837Y443618D02*
Y441118D01*
X124337Y440619D01*
X125337D01*
X125836Y441118D01*
Y443618D01*
X128835Y440619D02*
X126836D01*
X128835Y442618D01*
Y443118D01*
X128335Y443618D01*
X127336D01*
X126836Y443118D01*
X140442Y182896D02*
X139942Y183396D01*
X138943D01*
X138443Y182896D01*
Y182396D01*
X138943Y181896D01*
X139942D01*
X140442Y181396D01*
Y180896D01*
X139942Y180397D01*
X138943D01*
X138443Y180896D01*
X141442Y183396D02*
Y180397D01*
X142441Y181396D01*
X143441Y180397D01*
Y183396D01*
X144441Y180397D02*
X145440D01*
X144941D01*
Y183396D01*
X144441Y182896D01*
X148939Y183396D02*
X146940D01*
Y181896D01*
X147940Y182396D01*
X148440D01*
X148939Y181896D01*
Y180896D01*
X148440Y180397D01*
X147440D01*
X146940Y180896D01*
X89622Y184112D02*
X89122Y184612D01*
X88123D01*
X87623Y184112D01*
Y183612D01*
X88123Y183113D01*
X89122D01*
X89622Y182613D01*
Y182113D01*
X89122Y181613D01*
X88123D01*
X87623Y182113D01*
X90622Y184612D02*
Y181613D01*
X91622Y182613D01*
X92621Y181613D01*
Y184612D01*
X93621Y181613D02*
X94621D01*
X94121D01*
Y184612D01*
X93621Y184112D01*
X97620Y181613D02*
Y184612D01*
X96120Y183113D01*
X98119D01*
X40800Y184192D02*
X40301Y184692D01*
X39301D01*
X38801Y184192D01*
Y183693D01*
X39301Y183193D01*
X40301D01*
X40800Y182693D01*
Y182193D01*
X40301Y181693D01*
X39301D01*
X38801Y182193D01*
X41800Y184692D02*
Y181693D01*
X42800Y182693D01*
X43799Y181693D01*
Y184692D01*
X44799Y181693D02*
X45799D01*
X45299D01*
Y184692D01*
X44799Y184192D01*
X47298D02*
X47798Y184692D01*
X48798D01*
X49298Y184192D01*
Y183693D01*
X48798Y183193D01*
X48298D01*
X48798D01*
X49298Y182693D01*
Y182193D01*
X48798Y181693D01*
X47798D01*
X47298Y182193D01*
X164149Y237162D02*
X163649Y237662D01*
X162649D01*
X162149Y237162D01*
Y236662D01*
X162649Y236162D01*
X163649D01*
X164149Y235662D01*
Y235162D01*
X163649Y234663D01*
X162649D01*
X162149Y235162D01*
X165148Y237662D02*
Y234663D01*
X166148Y235662D01*
X167148Y234663D01*
Y237662D01*
X168148Y234663D02*
X169147D01*
X168647D01*
Y237662D01*
X168148Y237162D01*
X172646Y234663D02*
X170647D01*
X172646Y236662D01*
Y237162D01*
X172146Y237662D01*
X171147D01*
X170647Y237162D01*
X113939Y236773D02*
X113439Y237273D01*
X112439D01*
X111939Y236773D01*
Y236273D01*
X112439Y235773D01*
X113439D01*
X113939Y235274D01*
Y234774D01*
X113439Y234274D01*
X112439D01*
X111939Y234774D01*
X114938Y237273D02*
Y234274D01*
X115938Y235274D01*
X116938Y234274D01*
Y237273D01*
X117937Y234274D02*
X118937D01*
X118437D01*
Y237273D01*
X117937Y236773D01*
X120436Y234274D02*
X121436D01*
X120936D01*
Y237273D01*
X120436Y236773D01*
X65043D02*
X64543Y237273D01*
X63544D01*
X63044Y236773D01*
Y236273D01*
X63544Y235773D01*
X64543D01*
X65043Y235274D01*
Y234774D01*
X64543Y234274D01*
X63544D01*
X63044Y234774D01*
X66043Y237273D02*
Y234274D01*
X67043Y235274D01*
X68042Y234274D01*
Y237273D01*
X69042Y234274D02*
X70042D01*
X69542D01*
Y237273D01*
X69042Y236773D01*
X71541D02*
X72041Y237273D01*
X73041D01*
X73541Y236773D01*
Y234774D01*
X73041Y234274D01*
X72041D01*
X71541Y234774D01*
Y236773D01*
X15921D02*
X15422Y237273D01*
X14422D01*
X13922Y236773D01*
Y236273D01*
X14422Y235773D01*
X15422D01*
X15921Y235274D01*
Y234774D01*
X15422Y234274D01*
X14422D01*
X13922Y234774D01*
X16921Y237273D02*
Y234274D01*
X17921Y235274D01*
X18921Y234274D01*
Y237273D01*
X19920Y234774D02*
X20420Y234274D01*
X21420D01*
X21919Y234774D01*
Y236773D01*
X21420Y237273D01*
X20420D01*
X19920Y236773D01*
Y236273D01*
X20420Y235773D01*
X21919D01*
X165317Y290294D02*
X164817Y290793D01*
X163817D01*
X163318Y290294D01*
Y289794D01*
X163817Y289294D01*
X164817D01*
X165317Y288794D01*
Y288294D01*
X164817Y287794D01*
X163817D01*
X163318Y288294D01*
X166316Y290793D02*
Y287794D01*
X167316Y288794D01*
X168316Y287794D01*
Y290793D01*
X169316Y290294D02*
X169815Y290793D01*
X170815D01*
X171315Y290294D01*
Y289794D01*
X170815Y289294D01*
X171315Y288794D01*
Y288294D01*
X170815Y287794D01*
X169815D01*
X169316Y288294D01*
Y288794D01*
X169815Y289294D01*
X169316Y289794D01*
Y290294D01*
X169815Y289294D02*
X170815D01*
X113939Y291251D02*
X113439Y291751D01*
X112439D01*
X111939Y291251D01*
Y290751D01*
X112439Y290251D01*
X113439D01*
X113939Y289752D01*
Y289252D01*
X113439Y288752D01*
X112439D01*
X111939Y289252D01*
X114938Y291751D02*
Y288752D01*
X115938Y289752D01*
X116938Y288752D01*
Y291751D01*
X117937D02*
X119937D01*
Y291251D01*
X117937Y289252D01*
Y288752D01*
X65043Y291251D02*
X64543Y291751D01*
X63544D01*
X63044Y291251D01*
Y290751D01*
X63544Y290251D01*
X64543D01*
X65043Y289752D01*
Y289252D01*
X64543Y288752D01*
X63544D01*
X63044Y289252D01*
X66043Y291751D02*
Y288752D01*
X67043Y289752D01*
X68042Y288752D01*
Y291751D01*
X71041D02*
X70042Y291251D01*
X69042Y290251D01*
Y289252D01*
X69542Y288752D01*
X70542D01*
X71041Y289252D01*
Y289752D01*
X70542Y290251D01*
X69042D01*
X15921Y291251D02*
X15422Y291751D01*
X14422D01*
X13922Y291251D01*
Y290751D01*
X14422Y290251D01*
X15422D01*
X15921Y289752D01*
Y289252D01*
X15422Y288752D01*
X14422D01*
X13922Y289252D01*
X16921Y291751D02*
Y288752D01*
X17921Y289752D01*
X18921Y288752D01*
Y291751D01*
X21919D02*
X19920D01*
Y290251D01*
X20920Y290751D01*
X21420D01*
X21919Y290251D01*
Y289252D01*
X21420Y288752D01*
X20420D01*
X19920Y289252D01*
X164578Y343127D02*
X164078Y343627D01*
X163078D01*
X162578Y343127D01*
Y342627D01*
X163078Y342127D01*
X164078D01*
X164578Y341628D01*
Y341128D01*
X164078Y340628D01*
X163078D01*
X162578Y341128D01*
X165577Y343627D02*
Y340628D01*
X166577Y341628D01*
X167577Y340628D01*
Y343627D01*
X170076Y340628D02*
Y343627D01*
X168577Y342127D01*
X170576D01*
X113939Y344040D02*
X113439Y344540D01*
X112439D01*
X111939Y344040D01*
Y343540D01*
X112439Y343040D01*
X113439D01*
X113939Y342541D01*
Y342041D01*
X113439Y341541D01*
X112439D01*
X111939Y342041D01*
X114938Y344540D02*
Y341541D01*
X115938Y342541D01*
X116938Y341541D01*
Y344540D01*
X117937Y344040D02*
X118437Y344540D01*
X119437D01*
X119937Y344040D01*
Y343540D01*
X119437Y343040D01*
X118937D01*
X119437D01*
X119937Y342541D01*
Y342041D01*
X119437Y341541D01*
X118437D01*
X117937Y342041D01*
X65043Y344040D02*
X64543Y344540D01*
X63544D01*
X63044Y344040D01*
Y343540D01*
X63544Y343040D01*
X64543D01*
X65043Y342541D01*
Y342041D01*
X64543Y341541D01*
X63544D01*
X63044Y342041D01*
X66043Y344540D02*
Y341541D01*
X67043Y342541D01*
X68042Y341541D01*
Y344540D01*
X71041Y341541D02*
X69042D01*
X71041Y343540D01*
Y344040D01*
X70542Y344540D01*
X69542D01*
X69042Y344040D01*
X15921D02*
X15422Y344540D01*
X14422D01*
X13922Y344040D01*
Y343540D01*
X14422Y343040D01*
X15422D01*
X15921Y342541D01*
Y342041D01*
X15422Y341541D01*
X14422D01*
X13922Y342041D01*
X16921Y344540D02*
Y341541D01*
X17921Y342541D01*
X18921Y341541D01*
Y344540D01*
X19920Y341541D02*
X20920D01*
X20420D01*
Y344540D01*
X19920Y344040D01*
X162049Y78117D02*
Y81116D01*
X163548D01*
X164048Y80617D01*
Y79617D01*
X163548Y79117D01*
X162049D01*
X163048D02*
X164048Y78117D01*
X166547Y81116D02*
X165548D01*
X165048Y80617D01*
Y78617D01*
X165548Y78117D01*
X166547D01*
X167047Y78617D01*
Y80617D01*
X166547Y81116D01*
X169546D02*
X168546D01*
X168047Y80617D01*
Y78617D01*
X168546Y78117D01*
X169546D01*
X170046Y78617D01*
Y80617D01*
X169546Y81116D01*
X171046Y78117D02*
Y81116D01*
X172045Y80117D01*
X173045Y81116D01*
Y78117D01*
X174045Y80617D02*
X174545Y81116D01*
X175544D01*
X176044Y80617D01*
Y80117D01*
X175544Y79617D01*
X176044Y79117D01*
Y78617D01*
X175544Y78117D01*
X174545D01*
X174045Y78617D01*
Y79117D01*
X174545Y79617D01*
X174045Y80117D01*
Y80617D01*
X174545Y79617D02*
X175544D01*
X111939Y78117D02*
Y81116D01*
X113439D01*
X113939Y80617D01*
Y79617D01*
X113439Y79117D01*
X111939D01*
X112939D02*
X113939Y78117D01*
X116438Y81116D02*
X115438D01*
X114938Y80617D01*
Y78617D01*
X115438Y78117D01*
X116438D01*
X116938Y78617D01*
Y80617D01*
X116438Y81116D01*
X119437D02*
X118437D01*
X117937Y80617D01*
Y78617D01*
X118437Y78117D01*
X119437D01*
X119937Y78617D01*
Y80617D01*
X119437Y81116D01*
X120936Y78117D02*
Y81116D01*
X121936Y80117D01*
X122936Y81116D01*
Y78117D01*
X123935Y81116D02*
X125935D01*
Y80617D01*
X123935Y78617D01*
Y78117D01*
X63044D02*
Y81116D01*
X64543D01*
X65043Y80617D01*
Y79617D01*
X64543Y79117D01*
X63044D01*
X64044D02*
X65043Y78117D01*
X67543Y81116D02*
X66543D01*
X66043Y80617D01*
Y78617D01*
X66543Y78117D01*
X67543D01*
X68042Y78617D01*
Y80617D01*
X67543Y81116D01*
X70542D02*
X69542D01*
X69042Y80617D01*
Y78617D01*
X69542Y78117D01*
X70542D01*
X71041Y78617D01*
Y80617D01*
X70542Y81116D01*
X72041Y78117D02*
Y81116D01*
X73041Y80117D01*
X74040Y81116D01*
Y78117D01*
X77039Y81116D02*
X76040Y80617D01*
X75040Y79617D01*
Y78617D01*
X75540Y78117D01*
X76540D01*
X77039Y78617D01*
Y79117D01*
X76540Y79617D01*
X75040D01*
X13922Y78117D02*
Y81116D01*
X15422D01*
X15921Y80617D01*
Y79617D01*
X15422Y79117D01*
X13922D01*
X14922D02*
X15921Y78117D01*
X18421Y81116D02*
X17421D01*
X16921Y80617D01*
Y78617D01*
X17421Y78117D01*
X18421D01*
X18921Y78617D01*
Y80617D01*
X18421Y81116D01*
X21420D02*
X20420D01*
X19920Y80617D01*
Y78617D01*
X20420Y78117D01*
X21420D01*
X21919Y78617D01*
Y80617D01*
X21420Y81116D01*
X22919Y78117D02*
Y81116D01*
X23919Y80117D01*
X24918Y81116D01*
Y78117D01*
X27918Y81116D02*
X25918D01*
Y79617D01*
X26918Y80117D01*
X27418D01*
X27918Y79617D01*
Y78617D01*
X27418Y78117D01*
X26418D01*
X25918Y78617D01*
X162049Y127653D02*
Y130652D01*
X163548D01*
X164048Y130152D01*
Y129153D01*
X163548Y128653D01*
X162049D01*
X163048D02*
X164048Y127653D01*
X166547Y130652D02*
X165548D01*
X165048Y130152D01*
Y128153D01*
X165548Y127653D01*
X166547D01*
X167047Y128153D01*
Y130152D01*
X166547Y130652D01*
X169546D02*
X168546D01*
X168047Y130152D01*
Y128153D01*
X168546Y127653D01*
X169546D01*
X170046Y128153D01*
Y130152D01*
X169546Y130652D01*
X171046Y127653D02*
Y130652D01*
X172045Y129652D01*
X173045Y130652D01*
Y127653D01*
X175544D02*
Y130652D01*
X174045Y129153D01*
X176044D01*
X111939Y127653D02*
Y130652D01*
X113439D01*
X113939Y130152D01*
Y129153D01*
X113439Y128653D01*
X111939D01*
X112939D02*
X113939Y127653D01*
X116438Y130652D02*
X115438D01*
X114938Y130152D01*
Y128153D01*
X115438Y127653D01*
X116438D01*
X116938Y128153D01*
Y130152D01*
X116438Y130652D01*
X119437D02*
X118437D01*
X117937Y130152D01*
Y128153D01*
X118437Y127653D01*
X119437D01*
X119937Y128153D01*
Y130152D01*
X119437Y130652D01*
X120936Y127653D02*
Y130652D01*
X121936Y129652D01*
X122936Y130652D01*
Y127653D01*
X123935Y130152D02*
X124435Y130652D01*
X125435D01*
X125935Y130152D01*
Y129652D01*
X125435Y129153D01*
X124935D01*
X125435D01*
X125935Y128653D01*
Y128153D01*
X125435Y127653D01*
X124435D01*
X123935Y128153D01*
X63044Y127653D02*
Y130652D01*
X64543D01*
X65043Y130152D01*
Y129153D01*
X64543Y128653D01*
X63044D01*
X64044D02*
X65043Y127653D01*
X67543Y130652D02*
X66543D01*
X66043Y130152D01*
Y128153D01*
X66543Y127653D01*
X67543D01*
X68042Y128153D01*
Y130152D01*
X67543Y130652D01*
X70542D02*
X69542D01*
X69042Y130152D01*
Y128153D01*
X69542Y127653D01*
X70542D01*
X71041Y128153D01*
Y130152D01*
X70542Y130652D01*
X72041Y127653D02*
Y130652D01*
X73041Y129652D01*
X74040Y130652D01*
Y127653D01*
X77039D02*
X75040D01*
X77039Y129652D01*
Y130152D01*
X76540Y130652D01*
X75540D01*
X75040Y130152D01*
X13428Y126872D02*
Y129870D01*
X14927D01*
X15427Y129371D01*
Y128371D01*
X14927Y127871D01*
X13428D01*
X14427D02*
X15427Y126872D01*
X17926Y129870D02*
X16926D01*
X16427Y129371D01*
Y127371D01*
X16926Y126872D01*
X17926D01*
X18426Y127371D01*
Y129371D01*
X17926Y129870D01*
X20925D02*
X19925D01*
X19426Y129371D01*
Y127371D01*
X19925Y126872D01*
X20925D01*
X21425Y127371D01*
Y129371D01*
X20925Y129870D01*
X22425Y126872D02*
Y129870D01*
X23424Y128871D01*
X24424Y129870D01*
Y126872D01*
X25424D02*
X26423D01*
X25923D01*
Y129870D01*
X25424Y129371D01*
D20*
X91753Y-5955D02*
X87754D01*
Y-8954D01*
X89754Y-7954D01*
X90753D01*
X91753Y-8954D01*
Y-10953D01*
X90753Y-11953D01*
X88754D01*
X87754Y-10953D01*
X93752Y-11953D02*
Y-10953D01*
X94752D01*
Y-11953D01*
X93752D01*
X98751Y-6955D02*
X99750Y-5955D01*
X101750D01*
X102749Y-6955D01*
Y-10953D01*
X101750Y-11953D01*
X99750D01*
X98751Y-10953D01*
Y-6955D01*
X104749Y-5955D02*
X108747D01*
Y-6955D01*
X104749Y-10953D01*
Y-11953D01*
X-7998Y209577D02*
Y211576D01*
Y210576D01*
X-13996D01*
X-12997Y209577D01*
X-7998Y214575D02*
Y216574D01*
Y215575D01*
X-13996D01*
X-12997Y214575D01*
X-7998Y219573D02*
X-8998D01*
Y220573D01*
X-7998D01*
Y219573D01*
X-12997Y224572D02*
X-13996Y225571D01*
Y227571D01*
X-12997Y228571D01*
X-11997D01*
X-10997Y227571D01*
Y226571D01*
Y227571D01*
X-9997Y228571D01*
X-8998D01*
X-7998Y227571D01*
Y225571D01*
X-8998Y224572D01*
X-13996Y234569D02*
X-12997Y232569D01*
X-10997Y230570D01*
X-8998D01*
X-7998Y231570D01*
Y233569D01*
X-8998Y234569D01*
X-9997D01*
X-10997Y233569D01*
Y230570D01*
M02*
