%FSLAX25Y25*%
%MOIN*%
G70*
G01*
G75*
G04 Layer_Color=8421504*
%ADD10R,0.05906X0.03937*%
%ADD11R,0.03937X0.05906*%
%ADD12R,0.01181X0.06890*%
%ADD13R,0.06890X0.01181*%
%ADD14R,0.03937X0.05906*%
%ADD15R,0.05906X0.05118*%
%ADD16R,0.05118X0.05906*%
%ADD17R,0.02362X0.05709*%
%ADD18C,0.00700*%
%ADD19C,0.03000*%
%ADD20C,0.02000*%
%ADD21C,0.01000*%
%ADD22C,0.05512*%
%ADD23C,0.10000*%
%ADD24R,0.03937X0.03937*%
%ADD25C,0.03937*%
%ADD26C,0.05906*%
%ADD27R,0.05906X0.05906*%
%ADD28R,0.05906X0.05906*%
%ADD29C,0.03000*%
%ADD30R,0.03543X0.03740*%
%ADD31R,0.03543X0.03740*%
%ADD32C,0.02362*%
%ADD33C,0.00984*%
%ADD34C,0.00787*%
%ADD35C,0.00500*%
D10*
X202002Y36713D02*
D03*
Y30808D02*
D03*
Y60335D02*
D03*
Y54430D02*
D03*
Y42619D02*
D03*
Y48524D02*
D03*
Y72146D02*
D03*
Y66241D02*
D03*
D11*
X208892Y25886D02*
D03*
X262042Y77067D02*
D03*
X279758D02*
D03*
X273853D02*
D03*
X267947D02*
D03*
X256136D02*
D03*
X250231D02*
D03*
X244325D02*
D03*
X238420D02*
D03*
X232514D02*
D03*
X226609D02*
D03*
X220703D02*
D03*
X214798D02*
D03*
X208892D02*
D03*
X214798Y25886D02*
D03*
X220703D02*
D03*
X226609D02*
D03*
X232514D02*
D03*
X238420D02*
D03*
X244325D02*
D03*
X250231D02*
D03*
X256136D02*
D03*
X262042D02*
D03*
X267947D02*
D03*
X273853D02*
D03*
X279758D02*
D03*
D12*
X149815Y159476D02*
D03*
X151783D02*
D03*
X153752D02*
D03*
X155720D02*
D03*
X157689D02*
D03*
X159657D02*
D03*
X161626D02*
D03*
X163594D02*
D03*
X165563D02*
D03*
X167531D02*
D03*
X169500D02*
D03*
X171468D02*
D03*
X173437D02*
D03*
X175405D02*
D03*
X177374D02*
D03*
X179342D02*
D03*
Y115578D02*
D03*
X177374D02*
D03*
X175405D02*
D03*
X173437D02*
D03*
X171468D02*
D03*
X169500D02*
D03*
X167531D02*
D03*
X165563D02*
D03*
X163594D02*
D03*
X161626D02*
D03*
X159657D02*
D03*
X157689D02*
D03*
X155720D02*
D03*
X153752D02*
D03*
X151783D02*
D03*
X149815D02*
D03*
D13*
X186527Y152291D02*
D03*
Y150322D02*
D03*
Y148354D02*
D03*
Y146385D02*
D03*
Y144417D02*
D03*
Y142448D02*
D03*
Y140480D02*
D03*
Y138511D02*
D03*
Y136543D02*
D03*
Y134574D02*
D03*
Y132606D02*
D03*
Y130637D02*
D03*
Y128669D02*
D03*
Y126700D02*
D03*
Y124732D02*
D03*
Y122763D02*
D03*
X142629D02*
D03*
Y124732D02*
D03*
Y126700D02*
D03*
Y128669D02*
D03*
Y130637D02*
D03*
Y132606D02*
D03*
Y134574D02*
D03*
Y136543D02*
D03*
Y138511D02*
D03*
Y140480D02*
D03*
Y142448D02*
D03*
Y144417D02*
D03*
Y146385D02*
D03*
Y148354D02*
D03*
Y150322D02*
D03*
Y152291D02*
D03*
D14*
X114686Y80560D02*
D03*
X122560D02*
D03*
X130434D02*
D03*
X138308D02*
D03*
X146182D02*
D03*
X154056D02*
D03*
X161930D02*
D03*
X169804D02*
D03*
D15*
X302827Y165545D02*
D03*
Y173025D02*
D03*
X84830Y211698D02*
D03*
Y204217D02*
D03*
X18541Y211698D02*
D03*
Y204217D02*
D03*
X145282Y211698D02*
D03*
Y204217D02*
D03*
X213658D02*
D03*
Y211698D02*
D03*
X198003Y180698D02*
D03*
Y188178D02*
D03*
X126707Y133860D02*
D03*
Y126380D02*
D03*
D16*
X183173Y102688D02*
D03*
X175693D02*
D03*
X178017Y91721D02*
D03*
X170536D02*
D03*
X213307Y87813D02*
D03*
X205827D02*
D03*
X150855Y172164D02*
D03*
X143375D02*
D03*
X166179Y171247D02*
D03*
X158698D02*
D03*
D17*
X214966Y166587D02*
D03*
X219966D02*
D03*
X224966D02*
D03*
X229966D02*
D03*
X234966D02*
D03*
X239966D02*
D03*
X244966D02*
D03*
X214966Y188044D02*
D03*
X219966D02*
D03*
X224966D02*
D03*
X229966D02*
D03*
X234966D02*
D03*
X239966D02*
D03*
X244966D02*
D03*
X262760Y165678D02*
D03*
X267760D02*
D03*
X272760D02*
D03*
X277760D02*
D03*
X282760D02*
D03*
X287760D02*
D03*
X292760D02*
D03*
X262760Y187135D02*
D03*
X267760D02*
D03*
X272760D02*
D03*
X277760D02*
D03*
X282760D02*
D03*
X287760D02*
D03*
X292760D02*
D03*
M02*
