%FSLAX25Y25*%
%MOIN*%
G70*
G01*
G75*
G04 Layer_Color=8388736*
%ADD10R,0.05906X0.03937*%
%ADD11R,0.03937X0.05906*%
%ADD12R,0.01181X0.06890*%
%ADD13R,0.06890X0.01181*%
%ADD14R,0.03937X0.05906*%
%ADD15R,0.05906X0.05118*%
%ADD16R,0.05118X0.05906*%
%ADD17R,0.02362X0.05709*%
%ADD18C,0.00700*%
%ADD19C,0.03000*%
%ADD20C,0.02000*%
%ADD21C,0.01000*%
%ADD22C,0.05512*%
%ADD23C,0.10000*%
%ADD24R,0.03937X0.03937*%
%ADD25C,0.03937*%
%ADD26C,0.05906*%
%ADD27R,0.05906X0.05906*%
%ADD28R,0.05906X0.05906*%
%ADD29C,0.03000*%
%ADD30R,0.03543X0.03740*%
%ADD31R,0.03543X0.03740*%
%ADD32C,0.02362*%
%ADD33C,0.00984*%
%ADD34C,0.00787*%
%ADD35C,0.00500*%
%ADD36R,0.06706X0.04737*%
%ADD37R,0.04737X0.06706*%
%ADD38R,0.01981X0.07690*%
%ADD39R,0.07690X0.01981*%
%ADD40R,0.04737X0.06706*%
%ADD41R,0.06706X0.05918*%
%ADD42R,0.05918X0.06706*%
%ADD43R,0.03162X0.06509*%
%ADD44C,0.06312*%
%ADD45C,0.10800*%
%ADD46R,0.04737X0.04737*%
%ADD47C,0.04737*%
%ADD48C,0.06706*%
%ADD49R,0.06706X0.06706*%
%ADD50R,0.06706X0.06706*%
%ADD51C,0.03800*%
D36*
X202002Y36713D02*
D03*
Y30808D02*
D03*
Y60335D02*
D03*
Y54430D02*
D03*
Y42619D02*
D03*
Y48524D02*
D03*
Y72146D02*
D03*
Y66241D02*
D03*
D37*
X208892Y25886D02*
D03*
X262042Y77067D02*
D03*
X279758D02*
D03*
X273853D02*
D03*
X267947D02*
D03*
X256136D02*
D03*
X250231D02*
D03*
X244325D02*
D03*
X238420D02*
D03*
X232514D02*
D03*
X226609D02*
D03*
X220703D02*
D03*
X214798D02*
D03*
X208892D02*
D03*
X214798Y25886D02*
D03*
X220703D02*
D03*
X226609D02*
D03*
X232514D02*
D03*
X238420D02*
D03*
X244325D02*
D03*
X250231D02*
D03*
X256136D02*
D03*
X262042D02*
D03*
X267947D02*
D03*
X273853D02*
D03*
X279758D02*
D03*
D38*
X149815Y159476D02*
D03*
X151783D02*
D03*
X153752D02*
D03*
X155720D02*
D03*
X157689D02*
D03*
X159657D02*
D03*
X161626D02*
D03*
X163594D02*
D03*
X165563D02*
D03*
X167531D02*
D03*
X169500D02*
D03*
X171468D02*
D03*
X173437D02*
D03*
X175405D02*
D03*
X177374D02*
D03*
X179342D02*
D03*
Y115578D02*
D03*
X177374D02*
D03*
X175405D02*
D03*
X173437D02*
D03*
X171468D02*
D03*
X169500D02*
D03*
X167531D02*
D03*
X165563D02*
D03*
X163594D02*
D03*
X161626D02*
D03*
X159657D02*
D03*
X157689D02*
D03*
X155720D02*
D03*
X153752D02*
D03*
X151783D02*
D03*
X149815D02*
D03*
D39*
X186527Y152291D02*
D03*
Y150322D02*
D03*
Y148354D02*
D03*
Y146385D02*
D03*
Y144417D02*
D03*
Y142448D02*
D03*
Y140480D02*
D03*
Y138511D02*
D03*
Y136543D02*
D03*
Y134574D02*
D03*
Y132606D02*
D03*
Y130637D02*
D03*
Y128669D02*
D03*
Y126700D02*
D03*
Y124732D02*
D03*
Y122763D02*
D03*
X142629D02*
D03*
Y124732D02*
D03*
Y126700D02*
D03*
Y128669D02*
D03*
Y130637D02*
D03*
Y132606D02*
D03*
Y134574D02*
D03*
Y136543D02*
D03*
Y138511D02*
D03*
Y140480D02*
D03*
Y142448D02*
D03*
Y144417D02*
D03*
Y146385D02*
D03*
Y148354D02*
D03*
Y150322D02*
D03*
Y152291D02*
D03*
D40*
X114686Y80560D02*
D03*
X122560D02*
D03*
X130434D02*
D03*
X138308D02*
D03*
X146182D02*
D03*
X154056D02*
D03*
X161930D02*
D03*
X169804D02*
D03*
D41*
X302827Y165545D02*
D03*
Y173025D02*
D03*
X84830Y211698D02*
D03*
Y204217D02*
D03*
X18541Y211698D02*
D03*
Y204217D02*
D03*
X145282Y211698D02*
D03*
Y204217D02*
D03*
X213658D02*
D03*
Y211698D02*
D03*
X198003Y180698D02*
D03*
Y188178D02*
D03*
X126707Y133860D02*
D03*
Y126380D02*
D03*
D42*
X183173Y102688D02*
D03*
X175693D02*
D03*
X178017Y91721D02*
D03*
X170536D02*
D03*
X213307Y87813D02*
D03*
X205827D02*
D03*
X150855Y172164D02*
D03*
X143375D02*
D03*
X166179Y171247D02*
D03*
X158698D02*
D03*
D43*
X214966Y166587D02*
D03*
X219966D02*
D03*
X224966D02*
D03*
X229966D02*
D03*
X234966D02*
D03*
X239966D02*
D03*
X244966D02*
D03*
X214966Y188044D02*
D03*
X219966D02*
D03*
X224966D02*
D03*
X229966D02*
D03*
X234966D02*
D03*
X239966D02*
D03*
X244966D02*
D03*
X262760Y165678D02*
D03*
X267760D02*
D03*
X272760D02*
D03*
X277760D02*
D03*
X282760D02*
D03*
X287760D02*
D03*
X292760D02*
D03*
X262760Y187135D02*
D03*
X267760D02*
D03*
X272760D02*
D03*
X277760D02*
D03*
X282760D02*
D03*
X287760D02*
D03*
X292760D02*
D03*
D44*
X92018Y182923D02*
D03*
X10917Y10161D02*
D03*
X348838Y13540D02*
D03*
X347149Y182079D02*
D03*
D45*
X50104Y157949D02*
D03*
Y177635D02*
D03*
Y116017D02*
D03*
Y135702D02*
D03*
X51304Y93013D02*
D03*
Y73328D02*
D03*
Y48643D02*
D03*
Y28958D02*
D03*
X41326Y222269D02*
D03*
X61011D02*
D03*
X189531Y221069D02*
D03*
X169846D02*
D03*
X319598D02*
D03*
X299913D02*
D03*
D46*
X169804Y77061D02*
D03*
D47*
X161930D02*
D03*
X154056D02*
D03*
X146182D02*
D03*
X138308D02*
D03*
X130434D02*
D03*
X122560D02*
D03*
X114686D02*
D03*
D48*
X105744Y161115D02*
D03*
Y151114D02*
D03*
Y141114D02*
D03*
Y131114D02*
D03*
Y121115D02*
D03*
X303000Y138000D02*
D03*
X313000D02*
D03*
X323000D02*
D03*
X333000D02*
D03*
X225599Y130201D02*
D03*
Y120201D02*
D03*
Y110201D02*
D03*
Y100201D02*
D03*
D49*
X105744Y111115D02*
D03*
X225599Y90201D02*
D03*
D50*
X343000Y138000D02*
D03*
D51*
X179049Y131438D02*
D03*
X166694Y126593D02*
D03*
X171231Y126078D02*
D03*
X151691Y148583D02*
D03*
X86464Y127452D02*
D03*
X132686Y86915D02*
D03*
X171685Y149855D02*
D03*
X282946Y123574D02*
D03*
X279276Y12656D02*
D03*
X264024Y145843D02*
D03*
X181311Y79379D02*
D03*
X179707Y123310D02*
D03*
X149697Y122269D02*
D03*
X155133Y124401D02*
D03*
X141988Y90115D02*
D03*
X122118Y97962D02*
D03*
X150827Y126708D02*
D03*
X151037Y100605D02*
D03*
X161627Y122446D02*
D03*
X118878Y120897D02*
D03*
X119157Y125984D02*
D03*
X156601Y131545D02*
D03*
X153332Y134037D02*
D03*
X100494Y93513D02*
D03*
X150445Y136562D02*
D03*
X130326Y141320D02*
D03*
X179435Y153315D02*
D03*
X179400Y148306D02*
D03*
X167588Y153449D02*
D03*
X133116Y161115D02*
D03*
X214813Y71468D02*
D03*
X226902Y83337D02*
D03*
X177684Y138025D02*
D03*
X177700Y142600D02*
D03*
X275321Y37200D02*
D03*
X269723Y36846D02*
D03*
X269015Y68784D02*
D03*
X228649Y181483D02*
D03*
X244484Y181067D02*
D03*
X205902Y187938D02*
D03*
X273928Y158134D02*
D03*
X282474Y179610D02*
D03*
X268780Y146138D02*
D03*
X258140Y145547D02*
D03*
X201708Y132550D02*
D03*
X199355Y140325D02*
D03*
X198179Y145453D02*
D03*
X200860Y148004D02*
D03*
X206817Y122435D02*
D03*
X208882Y132550D02*
D03*
X209495Y140493D02*
D03*
X249949Y139542D02*
D03*
X240773Y140811D02*
D03*
X258827Y187156D02*
D03*
X251804Y172342D02*
D03*
X251676Y183049D02*
D03*
X251511Y192060D02*
D03*
X235209Y192255D02*
D03*
X248556Y179394D02*
D03*
X143348Y178077D02*
D03*
X292427Y159576D02*
D03*
X214042Y156666D02*
D03*
X186363Y178056D02*
D03*
X288021Y179729D02*
D03*
X23946Y204217D02*
D03*
X222139D02*
D03*
X135990Y204108D02*
D03*
X94748Y204217D02*
D03*
X193955Y31040D02*
D03*
X239930Y193877D02*
D03*
X220017Y236076D02*
D03*
X226333Y194041D02*
D03*
X232196Y199640D02*
D03*
X239590Y199390D02*
D03*
X233505Y210740D02*
D03*
X239732Y159352D02*
D03*
X245026Y152064D02*
D03*
X227098Y203230D02*
D03*
X211058Y161956D02*
D03*
X209451Y165762D02*
D03*
X200023Y172118D02*
D03*
X175540Y196811D02*
D03*
X166179Y171247D02*
D03*
M02*
