%FSLAX25Y25*%
%MOIN*%
G70*
G01*
G75*
G04 Layer_Physical_Order=1*
G04 Layer_Color=255*
%ADD10R,0.05906X0.03937*%
%ADD11R,0.03937X0.05906*%
%ADD12R,0.01181X0.06890*%
%ADD13R,0.06890X0.01181*%
%ADD14R,0.03937X0.05906*%
%ADD15R,0.05906X0.05118*%
%ADD16R,0.05118X0.05906*%
%ADD17R,0.02362X0.05709*%
%ADD18C,0.00700*%
%ADD19C,0.03000*%
%ADD20C,0.02000*%
%ADD21C,0.01000*%
%ADD22C,0.05512*%
%ADD23C,0.10000*%
%ADD24R,0.03937X0.03937*%
%ADD25C,0.03937*%
%ADD26C,0.05906*%
%ADD27R,0.05906X0.05906*%
%ADD28R,0.05906X0.05906*%
%ADD29C,0.03000*%
G36*
X193050Y183619D02*
Y183247D01*
X192221D01*
X191245Y183053D01*
X190418Y182500D01*
X188728Y180810D01*
X188523D01*
X188128Y181113D01*
X187276Y181466D01*
X186363Y181586D01*
X185449Y181466D01*
X184598Y181113D01*
X183867Y180552D01*
X183306Y179821D01*
X182953Y178970D01*
X182833Y178056D01*
X182697Y177902D01*
X178942D01*
X178942Y177902D01*
X178025Y177720D01*
X177248Y177200D01*
X177248Y177200D01*
X171200Y171152D01*
X170738Y171343D01*
Y176200D01*
X159698D01*
Y171247D01*
X157698D01*
Y176200D01*
X156142D01*
X155950Y176662D01*
X163802Y184514D01*
X193050D01*
Y183619D01*
D02*
G37*
G36*
X361400Y101548D02*
X361046Y101194D01*
X283527Y101194D01*
Y82020D01*
X282154D01*
Y119769D01*
X282530Y120098D01*
X282946Y120044D01*
X283860Y120164D01*
X284712Y120517D01*
X285443Y121078D01*
X286004Y121809D01*
X286356Y122660D01*
X286477Y123574D01*
X286356Y124488D01*
X286004Y125339D01*
X285443Y126070D01*
X285342Y126147D01*
Y131971D01*
X285343Y131971D01*
X285160Y132888D01*
X284641Y133666D01*
X284641Y133666D01*
X272294Y146013D01*
X272310Y146138D01*
X272190Y147052D01*
X271837Y147903D01*
X271276Y148634D01*
X270545Y149195D01*
X269694Y149548D01*
X268780Y149668D01*
X267866Y149548D01*
X267015Y149195D01*
X266284Y148634D01*
X266229Y148563D01*
X265790Y148900D01*
X264938Y149253D01*
X264024Y149373D01*
X263111Y149253D01*
X262259Y148900D01*
X261528Y148339D01*
X261219Y147936D01*
X260718D01*
X260636Y148043D01*
X259905Y148604D01*
X259054Y148957D01*
X258700Y149003D01*
X258521Y149531D01*
X264575Y155585D01*
X271501D01*
X272163Y155077D01*
X273014Y154724D01*
X273928Y154604D01*
X274842Y154724D01*
X275693Y155077D01*
X276424Y155638D01*
X276985Y156369D01*
X277338Y157221D01*
X277458Y158134D01*
X277338Y159048D01*
X276985Y159899D01*
X276660Y160324D01*
X276907Y160824D01*
X288677D01*
X288995Y160324D01*
X288897Y159576D01*
X289017Y158662D01*
X289370Y157811D01*
X289931Y157080D01*
X290662Y156519D01*
X291513Y156166D01*
X292427Y156046D01*
X293341Y156166D01*
X294192Y156519D01*
X294923Y157080D01*
X295484Y157811D01*
X295837Y158662D01*
X295957Y159576D01*
X295859Y160324D01*
X295941Y160824D01*
X295941D01*
X295941Y160824D01*
Y163129D01*
X297874D01*
Y160986D01*
X307780D01*
Y168466D01*
Y172025D01*
X297874D01*
Y168466D01*
Y168227D01*
X295941D01*
Y170532D01*
X259579D01*
Y160824D01*
X262144D01*
X262296Y160324D01*
X261717Y159937D01*
X255107Y153327D01*
X254645Y153519D01*
Y170296D01*
X254861Y170576D01*
X255213Y171428D01*
X255334Y172342D01*
X255282Y172734D01*
X255612Y173110D01*
X287404D01*
X287404Y173110D01*
X288321Y173292D01*
X289099Y173812D01*
X294454Y179167D01*
X294454Y179167D01*
X294974Y179945D01*
X295156Y180862D01*
X295156Y180862D01*
Y182280D01*
X295941D01*
Y191122D01*
X298616D01*
X300278Y189460D01*
Y177584D01*
X297874D01*
Y174025D01*
X307780D01*
Y177584D01*
X305376D01*
Y190516D01*
X305182Y191491D01*
X304630Y192318D01*
X301474Y195474D01*
X300648Y196026D01*
X299672Y196220D01*
X264310D01*
X263334Y196026D01*
X262507Y195474D01*
X260958Y193924D01*
X260405Y193097D01*
X260211Y192122D01*
Y191989D01*
X259579D01*
Y190967D01*
X259203Y190637D01*
X258827Y190687D01*
X257914Y190566D01*
X257062Y190214D01*
X256331Y189653D01*
X255770Y188921D01*
X255453Y188156D01*
X258827D01*
Y186156D01*
X255453D01*
X255770Y185391D01*
X256331Y184660D01*
X256353Y184638D01*
X257084Y184077D01*
X257936Y183725D01*
X258849Y183604D01*
X259203Y183651D01*
X259579Y183321D01*
Y182280D01*
X261760D01*
Y187135D01*
X263760D01*
Y182280D01*
X279481D01*
X279728Y181780D01*
X279417Y181375D01*
X279064Y180523D01*
X278944Y179610D01*
X279064Y178696D01*
X279221Y178318D01*
X278943Y177902D01*
X252177D01*
X251899Y178318D01*
X251966Y178480D01*
X252087Y179394D01*
X252063Y179570D01*
X252589Y179639D01*
X253441Y179992D01*
X254172Y180553D01*
X254733Y181284D01*
X255086Y182135D01*
X255206Y183049D01*
X255086Y183963D01*
X254733Y184814D01*
X254172Y185545D01*
X254060Y185631D01*
Y189632D01*
X254568Y190295D01*
X254921Y191146D01*
X255041Y192060D01*
X254921Y192974D01*
X254568Y193825D01*
X254007Y194556D01*
X253276Y195117D01*
X252425Y195470D01*
X251511Y195590D01*
X250597Y195470D01*
X249746Y195117D01*
X249015Y194556D01*
X248605Y194022D01*
X248001Y193919D01*
X243634Y198285D01*
X243028Y198690D01*
X243120Y199390D01*
Y217812D01*
X243000Y218726D01*
X242647Y219578D01*
X242086Y220309D01*
X228653Y233741D01*
X227922Y234302D01*
X227071Y234655D01*
X226157Y234775D01*
X223737D01*
X223442Y235275D01*
X223548Y236076D01*
X223427Y236990D01*
X223075Y237842D01*
X222514Y238573D01*
X221782Y239134D01*
X220931Y239486D01*
X220017Y239607D01*
X55133D01*
X54219Y239486D01*
X53368Y239134D01*
X52636Y238573D01*
X43108Y229044D01*
X42698Y229168D01*
X41326Y229303D01*
X39953Y229168D01*
X38634Y228768D01*
X37418Y228118D01*
X36352Y227243D01*
X35477Y226177D01*
X35275Y225800D01*
X21501D01*
X20587Y225679D01*
X19736Y225327D01*
X19005Y224766D01*
X16045Y221806D01*
X15484Y221075D01*
X15132Y220223D01*
X15011Y219310D01*
Y216257D01*
X13589D01*
Y207138D01*
Y199658D01*
X23494D01*
Y200687D01*
X23946D01*
X24860Y200807D01*
X25712Y201160D01*
X26443Y201721D01*
X27004Y202452D01*
X27356Y203304D01*
X27477Y204217D01*
X27356Y205131D01*
X27004Y205982D01*
X26443Y206714D01*
X25712Y207275D01*
X24860Y207627D01*
X23946Y207747D01*
X23494D01*
Y216257D01*
X22072D01*
Y217847D01*
X22963Y218739D01*
X35275D01*
X35477Y218362D01*
X36352Y217296D01*
X37418Y216421D01*
X38634Y215771D01*
X39953Y215371D01*
X41326Y215235D01*
X42698Y215371D01*
X44017Y215771D01*
X45234Y216421D01*
X46299Y217296D01*
X47174Y218362D01*
X47824Y219578D01*
X48224Y220897D01*
X48360Y222269D01*
X48224Y223642D01*
X48100Y224051D01*
X56595Y232546D01*
X110994D01*
X111185Y232084D01*
X94329Y215228D01*
X89782D01*
Y216257D01*
X88360D01*
Y217197D01*
X88360Y217197D01*
X88240Y218111D01*
X87887Y218962D01*
X87326Y219693D01*
X82253Y224766D01*
X81522Y225327D01*
X80671Y225679D01*
X79757Y225800D01*
X67061D01*
X66859Y226177D01*
X65984Y227243D01*
X64919Y228118D01*
X63702Y228768D01*
X62383Y229168D01*
X61011Y229303D01*
X59639Y229168D01*
X58319Y228768D01*
X57103Y228118D01*
X56037Y227243D01*
X55162Y226177D01*
X54512Y224961D01*
X54112Y223642D01*
X53977Y222269D01*
X54112Y220897D01*
X54512Y219578D01*
X55162Y218362D01*
X56037Y217296D01*
X57103Y216421D01*
X58319Y215771D01*
X59639Y215371D01*
X61011Y215235D01*
X62383Y215371D01*
X63702Y215771D01*
X64919Y216421D01*
X65984Y217296D01*
X66859Y218362D01*
X67061Y218739D01*
X78295D01*
X80316Y216719D01*
X80124Y216257D01*
X79877D01*
Y207138D01*
Y199658D01*
X89782D01*
Y200687D01*
X94748D01*
X95662Y200807D01*
X96513Y201160D01*
X97244Y201721D01*
X97805Y202452D01*
X98158Y203304D01*
X98278Y204217D01*
X98158Y205131D01*
X97805Y205982D01*
X97244Y206714D01*
X96513Y207275D01*
X95662Y207627D01*
X95357Y207667D01*
X95389Y208167D01*
X95791D01*
X96705Y208288D01*
X97556Y208640D01*
X98287Y209201D01*
X116801Y227715D01*
X166369D01*
X166494Y227215D01*
X165938Y226918D01*
X164872Y226043D01*
X163997Y224977D01*
X163796Y224600D01*
X149705D01*
X148792Y224479D01*
X147940Y224127D01*
X147209Y223566D01*
X142786Y219142D01*
X142225Y218411D01*
X141872Y217560D01*
X141752Y216646D01*
Y216257D01*
X140329D01*
Y207747D01*
X136100D01*
X135186Y207627D01*
X134335Y207275D01*
X133603Y206714D01*
X133494Y206604D01*
X132933Y205873D01*
X132580Y205022D01*
X132460Y204108D01*
X132580Y203194D01*
X132933Y202343D01*
X133494Y201612D01*
X134225Y201051D01*
X135077Y200698D01*
X135990Y200578D01*
X136821Y200687D01*
X140329D01*
Y199658D01*
X150235D01*
Y207138D01*
Y216257D01*
X150235Y216257D01*
X150235D01*
X150354Y216725D01*
X151168Y217539D01*
X163796D01*
X163997Y217162D01*
X164872Y216096D01*
X165938Y215221D01*
X166316Y215019D01*
Y202505D01*
X166436Y201591D01*
X166789Y200740D01*
X167350Y200009D01*
X173044Y194315D01*
X173775Y193754D01*
X174626Y193402D01*
X175540Y193281D01*
X176453Y193402D01*
X177305Y193754D01*
X178036Y194315D01*
X178597Y195046D01*
X178950Y195898D01*
X179070Y196811D01*
X178950Y197725D01*
X178597Y198576D01*
X178036Y199308D01*
X173376Y203967D01*
Y215019D01*
X173754Y215221D01*
X174820Y216096D01*
X175694Y217162D01*
X176344Y218378D01*
X176745Y219697D01*
X176880Y221069D01*
X176745Y222442D01*
X176344Y223761D01*
X175694Y224977D01*
X174820Y226043D01*
X173754Y226918D01*
X173198Y227215D01*
X173323Y227715D01*
X186054D01*
X186179Y227215D01*
X185623Y226918D01*
X184557Y226043D01*
X183683Y224977D01*
X183033Y223761D01*
X182632Y222442D01*
X182497Y221069D01*
X182632Y219697D01*
X183033Y218378D01*
X183683Y217162D01*
X184557Y216096D01*
X185623Y215221D01*
X186839Y214571D01*
X188159Y214171D01*
X189531Y214036D01*
X190903Y214171D01*
X192223Y214571D01*
X193439Y215221D01*
X194505Y216096D01*
X195379Y217162D01*
X195581Y217539D01*
X208468D01*
X209289Y216719D01*
X209098Y216257D01*
X208706D01*
Y207138D01*
Y199658D01*
X218611D01*
Y200687D01*
X222139D01*
X223052Y200807D01*
X223904Y201160D01*
X224316Y201106D01*
X224602Y200733D01*
X225333Y200172D01*
X226184Y199820D01*
X227098Y199699D01*
X228011Y199820D01*
X228264Y199924D01*
X228677Y199554D01*
X228702Y199363D01*
X228373Y198987D01*
X223160D01*
X222243Y198805D01*
X221932Y198597D01*
X221466Y198285D01*
X221466Y198285D01*
X218272Y195092D01*
X217753Y194315D01*
X217570Y193398D01*
X217570Y193398D01*
Y192898D01*
X215966D01*
Y188044D01*
Y183190D01*
X225118D01*
X225395Y182774D01*
X225239Y182397D01*
X225119Y181483D01*
X225239Y180570D01*
X225592Y179718D01*
X226153Y178987D01*
X226884Y178426D01*
X226942Y178402D01*
X226842Y177902D01*
X204755D01*
X204186Y178282D01*
X203269Y178464D01*
X202956Y178810D01*
Y183619D01*
Y184514D01*
X204902D01*
Y187938D01*
Y191574D01*
X202956D01*
Y192737D01*
X199003D01*
Y188178D01*
X197003D01*
Y192737D01*
X193050D01*
Y191574D01*
X162340D01*
X161426Y191454D01*
X160575Y191101D01*
X159844Y190540D01*
X148359Y179056D01*
X147798Y178324D01*
X147445Y177473D01*
X147405Y177168D01*
X146905Y177201D01*
Y178050D01*
X146785Y178963D01*
X146432Y179815D01*
X145871Y180546D01*
X145844Y180573D01*
X145113Y181134D01*
X144261Y181487D01*
X143348Y181607D01*
X142434Y181487D01*
X141583Y181134D01*
X140851Y180573D01*
X140290Y179842D01*
X139938Y178990D01*
X139817Y178077D01*
X139845Y177870D01*
Y177116D01*
X138816D01*
Y167211D01*
X139845D01*
Y165102D01*
X139965Y164188D01*
X140318Y163337D01*
X140879Y162606D01*
X140979Y162529D01*
Y162122D01*
X140979Y162122D01*
X141161Y161205D01*
X141681Y160428D01*
X144327Y157782D01*
X145104Y157262D01*
X146021Y157080D01*
X146021Y157080D01*
X147224D01*
Y155443D01*
X146927Y154998D01*
X146904Y154881D01*
X137185D01*
Y149700D01*
Y147732D01*
Y145763D01*
Y144983D01*
X136723Y144792D01*
X128706Y152809D01*
X127929Y153328D01*
X127012Y153510D01*
X127012Y153510D01*
X110112D01*
X110070Y153612D01*
X109276Y154647D01*
X108241Y155441D01*
X107268Y155844D01*
Y156385D01*
X108241Y156788D01*
X109276Y157582D01*
X110070Y158617D01*
X110112Y158718D01*
X130543D01*
X130620Y158618D01*
X131351Y158057D01*
X132203Y157704D01*
X133116Y157584D01*
X134030Y157704D01*
X134881Y158057D01*
X135612Y158618D01*
X136173Y159349D01*
X136526Y160201D01*
X136646Y161115D01*
X136526Y162028D01*
X136173Y162880D01*
X135612Y163611D01*
X134881Y164172D01*
X134030Y164524D01*
X133116Y164645D01*
X132203Y164524D01*
X131351Y164172D01*
X130620Y163611D01*
X130543Y163511D01*
X110112D01*
X110070Y163612D01*
X109276Y164647D01*
X108241Y165441D01*
X107037Y165940D01*
X105744Y166110D01*
X104451Y165940D01*
X103246Y165441D01*
X102211Y164647D01*
X101417Y163612D01*
X100918Y162407D01*
X100748Y161115D01*
X100918Y159821D01*
X101417Y158617D01*
X102211Y157582D01*
X103246Y156788D01*
X104219Y156385D01*
Y155844D01*
X103246Y155441D01*
X102211Y154647D01*
X101417Y153612D01*
X100918Y152407D01*
X100748Y151114D01*
X100918Y149821D01*
X101417Y148617D01*
X102211Y147582D01*
X103246Y146788D01*
X104219Y146385D01*
Y145844D01*
X103246Y145441D01*
X102211Y144647D01*
X101417Y143612D01*
X100918Y142407D01*
X100904Y142296D01*
X100430Y142135D01*
X62791Y179774D01*
X62164Y180255D01*
X61951Y180344D01*
X61435Y180557D01*
X60651Y180660D01*
X56424D01*
X55953Y181543D01*
X55078Y182608D01*
X54012Y183483D01*
X52796Y184133D01*
X51477Y184533D01*
X50104Y184669D01*
X48732Y184533D01*
X47412Y184133D01*
X46196Y183483D01*
X45131Y182608D01*
X44256Y181543D01*
X43606Y180326D01*
X43205Y179007D01*
X43070Y177635D01*
X43205Y176262D01*
X43606Y174943D01*
X44256Y173727D01*
X45131Y172661D01*
X46196Y171786D01*
X47412Y171136D01*
X48732Y170736D01*
X50104Y170601D01*
X51477Y170736D01*
X52796Y171136D01*
X54012Y171786D01*
X55078Y172661D01*
X55953Y173727D01*
X56424Y174609D01*
X59398D01*
X99685Y134322D01*
X99685Y134322D01*
X99957Y134113D01*
X100312Y133841D01*
X100874Y133608D01*
X101196Y133077D01*
X100918Y132407D01*
X100880Y132115D01*
X105744D01*
Y130114D01*
X100880D01*
X100918Y129822D01*
X101082Y129426D01*
X100804Y129010D01*
X100161D01*
X69082Y160089D01*
X68456Y160570D01*
X68242Y160659D01*
X67726Y160872D01*
X66943Y160975D01*
X56424D01*
X55953Y161857D01*
X55078Y162923D01*
X54012Y163798D01*
X52796Y164448D01*
X51477Y164848D01*
X50104Y164983D01*
X48732Y164848D01*
X47412Y164448D01*
X46196Y163798D01*
X45131Y162923D01*
X44256Y161857D01*
X43606Y160641D01*
X43205Y159322D01*
X43070Y157949D01*
X43205Y156577D01*
X43606Y155258D01*
X44256Y154042D01*
X45131Y152976D01*
X46196Y152101D01*
X47412Y151451D01*
X48732Y151051D01*
X50104Y150916D01*
X51477Y151051D01*
X52796Y151451D01*
X54012Y152101D01*
X55078Y152976D01*
X55953Y154042D01*
X56424Y154924D01*
X65689D01*
X81424Y139190D01*
X81232Y138727D01*
X56424D01*
X55953Y139610D01*
X55078Y140675D01*
X54012Y141550D01*
X52796Y142200D01*
X51477Y142600D01*
X50104Y142736D01*
X48732Y142600D01*
X47412Y142200D01*
X46196Y141550D01*
X45131Y140675D01*
X44256Y139610D01*
X43606Y138393D01*
X43205Y137074D01*
X43070Y135702D01*
X43205Y134329D01*
X43606Y133010D01*
X44256Y131794D01*
X45131Y130728D01*
X46196Y129853D01*
X47412Y129203D01*
X48732Y128803D01*
X50104Y128668D01*
X51477Y128803D01*
X52796Y129203D01*
X54012Y129853D01*
X55078Y130728D01*
X55953Y131794D01*
X56424Y132676D01*
X81987D01*
X84122Y130541D01*
X84089Y130042D01*
X83967Y129948D01*
X53639Y99620D01*
X52676Y99912D01*
X52304Y99948D01*
Y94013D01*
X58240D01*
X58220Y94216D01*
X88960Y124956D01*
X89053Y125077D01*
X89552Y125110D01*
X100340Y114322D01*
X100791Y113976D01*
Y106162D01*
X110696D01*
Y107584D01*
X119075D01*
X119093Y107569D01*
Y99768D01*
X119061Y99727D01*
X118709Y98875D01*
X118588Y97962D01*
X118709Y97048D01*
X118747Y96954D01*
X118470Y96539D01*
X102300D01*
X102259Y96570D01*
X101407Y96923D01*
X100494Y97043D01*
X99580Y96923D01*
X98729Y96570D01*
X97997Y96009D01*
X97436Y95278D01*
X97084Y94426D01*
X96964Y93513D01*
X97084Y92599D01*
X97436Y91748D01*
X97997Y91016D01*
X98729Y90455D01*
X99580Y90103D01*
X100494Y89982D01*
X101407Y90103D01*
X102259Y90455D01*
X102300Y90487D01*
X114854D01*
X115046Y90025D01*
X112546Y87526D01*
X112066Y86899D01*
X111977Y86685D01*
X111763Y86169D01*
X111677Y85513D01*
X110718D01*
Y77322D01*
X110683Y77061D01*
X110718Y76799D01*
Y75608D01*
X110992D01*
X111220Y75059D01*
X111856Y74230D01*
X112685Y73594D01*
X113650Y73194D01*
X114686Y73058D01*
X115722Y73194D01*
X116687Y73594D01*
X117516Y74230D01*
X118152Y75059D01*
X118380Y75608D01*
X118867D01*
X119094Y75059D01*
X119730Y74230D01*
X120559Y73594D01*
X121524Y73194D01*
X122560Y73058D01*
X123596Y73194D01*
X124562Y73594D01*
X125391Y74230D01*
X126027Y75059D01*
X126254Y75608D01*
X126741D01*
X126904Y75213D01*
Y73651D01*
X105425Y52173D01*
X57354D01*
X57153Y52550D01*
X56278Y53616D01*
X55212Y54491D01*
X53996Y55141D01*
X52676Y55541D01*
X52304Y55578D01*
Y48643D01*
Y41707D01*
X52676Y41744D01*
X53996Y42144D01*
X55212Y42794D01*
X56278Y43669D01*
X57153Y44735D01*
X57354Y45112D01*
X106888D01*
X107801Y45232D01*
X108653Y45585D01*
X109384Y46146D01*
X132931Y69693D01*
X133492Y70424D01*
X133844Y71275D01*
X133965Y72189D01*
Y75213D01*
X134128Y75608D01*
X134615D01*
X134842Y75059D01*
X135478Y74230D01*
X136307Y73594D01*
X137272Y73194D01*
X138308Y73058D01*
X139344Y73194D01*
X140310Y73594D01*
X141139Y74230D01*
X141775Y75059D01*
X142002Y75608D01*
X142489D01*
X142716Y75059D01*
X143352Y74230D01*
X144181Y73594D01*
X145146Y73194D01*
X146182Y73058D01*
X147218Y73194D01*
X148184Y73594D01*
X149013Y74230D01*
X149649Y75059D01*
X149876Y75608D01*
X150363D01*
X150590Y75059D01*
X151226Y74230D01*
X152055Y73594D01*
X153020Y73194D01*
X154056Y73058D01*
X155092Y73194D01*
X156058Y73594D01*
X156887Y74230D01*
X157523Y75059D01*
X157750Y75608D01*
X158237D01*
X158464Y75059D01*
X159100Y74230D01*
X159929Y73594D01*
X160894Y73194D01*
X161930Y73058D01*
X162966Y73194D01*
X163932Y73594D01*
X164761Y74230D01*
X165336Y74980D01*
X165644Y74938D01*
X165836Y74845D01*
Y73092D01*
X173773D01*
Y75608D01*
Y77030D01*
X174627D01*
X175541Y77150D01*
X176392Y77503D01*
X177123Y78064D01*
X177439Y78380D01*
X177998Y78232D01*
X178254Y77614D01*
X178815Y76883D01*
X181126Y74571D01*
X181857Y74010D01*
X182709Y73658D01*
X183623Y73537D01*
X197050D01*
Y68178D01*
Y62272D01*
Y56367D01*
Y50461D01*
Y44556D01*
Y38650D01*
Y34570D01*
X194955D01*
Y31040D01*
Y27509D01*
X197050D01*
Y26839D01*
X198486D01*
X198592Y26031D01*
X198945Y25179D01*
X199506Y24448D01*
X200564Y23390D01*
X201295Y22829D01*
X202147Y22477D01*
X203060Y22356D01*
X204924D01*
Y20934D01*
X207892D01*
Y25886D01*
X209892D01*
Y20934D01*
X283527D01*
Y12762D01*
X338993Y12762D01*
X339107Y11605D01*
X339672Y9743D01*
X340589Y8028D01*
X341823Y6524D01*
X343326Y5291D01*
X345042Y4374D01*
X346903Y3809D01*
X348838Y3618D01*
X350774Y3809D01*
X352635Y4374D01*
X354351Y5291D01*
X355854Y6524D01*
X357088Y8028D01*
X358005Y9743D01*
X358570Y11605D01*
X358684Y12762D01*
X361400D01*
Y2549D01*
X187682D01*
Y36916D01*
X86789D01*
Y2549D01*
X17948D01*
X17780Y3020D01*
X17933Y3145D01*
X19166Y4649D01*
X20083Y6364D01*
X20648Y8225D01*
X20839Y10161D01*
X20648Y12097D01*
X20083Y13958D01*
X19166Y15673D01*
X17933Y17177D01*
X16429Y18411D01*
X14714Y19328D01*
X12852Y19892D01*
X10917Y20083D01*
X8981Y19892D01*
X7120Y19328D01*
X5404Y18411D01*
X3901Y17177D01*
X3049Y16139D01*
X2549Y16318D01*
Y243235D01*
X361400D01*
Y101548D01*
D02*
G37*
G36*
X161198Y147606D02*
X161198Y147606D01*
X161380Y146689D01*
X161900Y145912D01*
X171480Y136331D01*
X171480Y136331D01*
X172258Y135812D01*
X173175Y135629D01*
X175111D01*
X175188Y135529D01*
X175919Y134968D01*
X176672Y134656D01*
X176777Y134342D01*
X176782Y134110D01*
X176553Y133934D01*
X175992Y133203D01*
X175639Y132352D01*
X175519Y131438D01*
X175639Y130524D01*
X175880Y129943D01*
X174335Y128399D01*
X173836Y128432D01*
X173727Y128574D01*
X172996Y129135D01*
X172145Y129488D01*
X171231Y129608D01*
X170317Y129488D01*
X169466Y129135D01*
X169375Y129065D01*
X169190Y129089D01*
X168459Y129650D01*
X167608Y130003D01*
X166694Y130123D01*
X165780Y130003D01*
X164929Y129650D01*
X164198Y129089D01*
X163637Y128358D01*
X163284Y127507D01*
X163164Y126593D01*
X163227Y126112D01*
X162769Y125761D01*
X162541Y125856D01*
X161627Y125976D01*
X160713Y125856D01*
X159862Y125503D01*
X159131Y124942D01*
X159101Y124903D01*
X158579Y125043D01*
X158543Y125315D01*
X158190Y126166D01*
X158119Y126258D01*
X158296Y126726D01*
X158574Y126782D01*
X159351Y127301D01*
X160845Y128795D01*
X160845Y128795D01*
X161364Y129572D01*
X161547Y130489D01*
X161547Y130489D01*
Y135162D01*
X161547Y135162D01*
X161364Y136079D01*
X160845Y136857D01*
X152934Y144768D01*
X153051Y145358D01*
X153456Y145526D01*
X154187Y146087D01*
X154748Y146818D01*
X155065Y147583D01*
X151691D01*
Y149583D01*
X155065D01*
X154748Y150348D01*
X154187Y151079D01*
X154087Y151156D01*
Y154031D01*
X161198D01*
Y147606D01*
D02*
G37*
G36*
X172831Y109633D02*
X172636Y109379D01*
X172283Y108527D01*
X172166Y107641D01*
X171134D01*
Y105591D01*
X170603Y105184D01*
X168040Y102621D01*
X167479Y101890D01*
X167127Y101039D01*
X167006Y100125D01*
Y96674D01*
X165977D01*
Y92721D01*
X170536D01*
Y90721D01*
X165977D01*
Y90247D01*
X165602Y89917D01*
X165384Y89946D01*
X146034D01*
X146016Y89987D01*
X146338Y90487D01*
X148711D01*
X149494Y90590D01*
X149921Y90767D01*
X150224Y90892D01*
X150414Y91038D01*
X150850Y91373D01*
X150850Y91373D01*
X165734Y106256D01*
X165734Y106256D01*
X166069Y106693D01*
X166215Y106883D01*
X166215Y106883D01*
X166303Y107097D01*
X166517Y107613D01*
X166620Y108396D01*
X166620Y108396D01*
Y109551D01*
X166593Y109757D01*
X166923Y110133D01*
X172584D01*
X172831Y109633D01*
D02*
G37*
G36*
X201268Y88813D02*
X205827D01*
Y86813D01*
X201268D01*
Y82860D01*
X202487D01*
X202770Y82178D01*
X203331Y81447D01*
X203718Y81060D01*
X203527Y80598D01*
X185085D01*
X183807Y81875D01*
X183076Y82436D01*
X182225Y82789D01*
X181516Y82882D01*
X181427Y83037D01*
X181547Y83950D01*
Y86769D01*
X182576D01*
Y88421D01*
X183163Y88664D01*
X183894Y89225D01*
X184635Y89966D01*
X201268D01*
Y88813D01*
D02*
G37*
%LPC*%
G36*
X51304Y80362D02*
X49932Y80227D01*
X48612Y79826D01*
X47396Y79176D01*
X46330Y78302D01*
X45456Y77236D01*
X44806Y76020D01*
X44405Y74700D01*
X44270Y73328D01*
X44405Y71956D01*
X44806Y70636D01*
X45456Y69420D01*
X46330Y68354D01*
X47396Y67479D01*
X48612Y66829D01*
X49932Y66429D01*
X51304Y66294D01*
X52676Y66429D01*
X53996Y66829D01*
X55212Y67479D01*
X56278Y68354D01*
X57153Y69420D01*
X57803Y70636D01*
X58203Y71956D01*
X58338Y73328D01*
X58203Y74700D01*
X57803Y76020D01*
X57153Y77236D01*
X56278Y78302D01*
X55212Y79176D01*
X53996Y79826D01*
X52676Y80227D01*
X51304Y80362D01*
D02*
G37*
G36*
X50304Y92013D02*
X44369D01*
X44405Y91641D01*
X44530Y91231D01*
X33674Y80375D01*
X33674Y80375D01*
X33283Y79865D01*
X33113Y79644D01*
X33113Y79644D01*
X32760Y78793D01*
X32672Y78120D01*
X32640Y77879D01*
Y77879D01*
Y77879D01*
Y63776D01*
X32760Y62863D01*
X33113Y62011D01*
X33674Y61280D01*
X44530Y50424D01*
X44405Y50015D01*
X44369Y49643D01*
X50304D01*
Y55578D01*
X49932Y55541D01*
X49522Y55417D01*
X39700Y65239D01*
Y76417D01*
X49522Y86238D01*
X49932Y86114D01*
X50304Y86077D01*
Y92013D01*
D02*
G37*
G36*
X51304Y35991D02*
X49932Y35856D01*
X48612Y35456D01*
X47396Y34806D01*
X46330Y33931D01*
X45456Y32865D01*
X44806Y31649D01*
X44405Y30330D01*
X44270Y28958D01*
X44405Y27585D01*
X44806Y26266D01*
X45456Y25050D01*
X46330Y23984D01*
X47396Y23109D01*
X48612Y22459D01*
X49932Y22059D01*
X51304Y21924D01*
X52676Y22059D01*
X53996Y22459D01*
X55212Y23109D01*
X56278Y23984D01*
X57153Y25050D01*
X57803Y26266D01*
X58203Y27585D01*
X58338Y28958D01*
X58203Y30330D01*
X57803Y31649D01*
X57153Y32865D01*
X56278Y33931D01*
X55212Y34806D01*
X53996Y35456D01*
X52676Y35856D01*
X51304Y35991D01*
D02*
G37*
G36*
X279276Y16186D02*
X278362Y16066D01*
X277511Y15713D01*
X276780Y15152D01*
X276219Y14421D01*
X275866Y13570D01*
X275746Y12656D01*
X275866Y11743D01*
X276219Y10891D01*
X276780Y10160D01*
X277511Y9599D01*
X278362Y9246D01*
X279276Y9126D01*
X280190Y9246D01*
X281041Y9599D01*
X281772Y10160D01*
X282333Y10891D01*
X282686Y11743D01*
X282806Y12656D01*
X282686Y13570D01*
X282333Y14421D01*
X281772Y15152D01*
X281041Y15713D01*
X280190Y16066D01*
X279276Y16186D01*
D02*
G37*
G36*
X192955Y30040D02*
X190581D01*
X190898Y29275D01*
X191459Y28543D01*
X192190Y27983D01*
X192955Y27665D01*
Y30040D01*
D02*
G37*
G36*
X50304Y47642D02*
X44369D01*
X44405Y47270D01*
X44806Y45951D01*
X45456Y44735D01*
X46330Y43669D01*
X47396Y42794D01*
X48612Y42144D01*
X49932Y41744D01*
X50304Y41707D01*
Y47642D01*
D02*
G37*
G36*
X192955Y34414D02*
X192190Y34097D01*
X191459Y33536D01*
X190898Y32805D01*
X190581Y32040D01*
X192955D01*
Y34414D01*
D02*
G37*
G36*
X58240Y92013D02*
X52304D01*
Y86077D01*
X52676Y86114D01*
X53996Y86514D01*
X55212Y87164D01*
X56278Y88039D01*
X57153Y89105D01*
X57803Y90321D01*
X58203Y91641D01*
X58240Y92013D01*
D02*
G37*
G36*
X213966Y192898D02*
X211785D01*
Y191574D01*
X206902D01*
Y187938D01*
Y184514D01*
X211785D01*
Y183190D01*
X213966D01*
Y188044D01*
Y192898D01*
D02*
G37*
G36*
X92018Y192845D02*
X90082Y192655D01*
X88221Y192090D01*
X86506Y191173D01*
X85002Y189939D01*
X83768Y188436D01*
X82851Y186720D01*
X82287Y184859D01*
X82096Y182923D01*
X82287Y180988D01*
X82851Y179127D01*
X83768Y177411D01*
X85002Y175908D01*
X86506Y174674D01*
X88221Y173757D01*
X90082Y173192D01*
X92018Y173002D01*
X93954Y173192D01*
X95815Y173757D01*
X97530Y174674D01*
X99034Y175908D01*
X100268Y177411D01*
X101184Y179127D01*
X101749Y180988D01*
X101940Y182923D01*
X101749Y184859D01*
X101184Y186720D01*
X100268Y188436D01*
X99034Y189939D01*
X97530Y191173D01*
X95815Y192090D01*
X93954Y192655D01*
X92018Y192845D01*
D02*
G37*
G36*
X319598Y228103D02*
X318226Y227968D01*
X316906Y227568D01*
X315690Y226918D01*
X314624Y226043D01*
X313750Y224977D01*
X313100Y223761D01*
X312699Y222442D01*
X312564Y221069D01*
X312699Y219697D01*
X313100Y218378D01*
X313750Y217162D01*
X314624Y216096D01*
X315690Y215221D01*
X316906Y214571D01*
X318226Y214171D01*
X319598Y214036D01*
X320970Y214171D01*
X322290Y214571D01*
X323506Y215221D01*
X324572Y216096D01*
X325447Y217162D01*
X326097Y218378D01*
X326497Y219697D01*
X326632Y221069D01*
X326497Y222442D01*
X326097Y223761D01*
X325447Y224977D01*
X324572Y226043D01*
X323506Y226918D01*
X322290Y227568D01*
X320970Y227968D01*
X319598Y228103D01*
D02*
G37*
G36*
X299913D02*
X298541Y227968D01*
X297221Y227568D01*
X296005Y226918D01*
X294939Y226043D01*
X294064Y224977D01*
X293414Y223761D01*
X293014Y222442D01*
X292879Y221069D01*
X293014Y219697D01*
X293414Y218378D01*
X294064Y217162D01*
X294939Y216096D01*
X296005Y215221D01*
X297221Y214571D01*
X298541Y214171D01*
X299913Y214036D01*
X301285Y214171D01*
X302605Y214571D01*
X303821Y215221D01*
X304887Y216096D01*
X305761Y217162D01*
X306411Y218378D01*
X306812Y219697D01*
X306947Y221069D01*
X306812Y222442D01*
X306411Y223761D01*
X305761Y224977D01*
X304887Y226043D01*
X303821Y226918D01*
X302605Y227568D01*
X301285Y227968D01*
X299913Y228103D01*
D02*
G37*
G36*
X50104Y123050D02*
X48732Y122915D01*
X47412Y122515D01*
X46196Y121865D01*
X45131Y120990D01*
X44256Y119924D01*
X43606Y118708D01*
X43205Y117389D01*
X43070Y116017D01*
X43205Y114644D01*
X43606Y113325D01*
X44256Y112109D01*
X45131Y111043D01*
X46196Y110168D01*
X47412Y109518D01*
X48732Y109118D01*
X50104Y108983D01*
X51477Y109118D01*
X52796Y109518D01*
X54012Y110168D01*
X55078Y111043D01*
X55953Y112109D01*
X56603Y113325D01*
X57003Y114644D01*
X57138Y116017D01*
X57003Y117389D01*
X56603Y118708D01*
X55953Y119924D01*
X55078Y120990D01*
X54012Y121865D01*
X52796Y122515D01*
X51477Y122915D01*
X50104Y123050D01*
D02*
G37*
G36*
X50304Y99948D02*
X49932Y99912D01*
X48612Y99511D01*
X47396Y98861D01*
X46330Y97987D01*
X45456Y96921D01*
X44806Y95705D01*
X44405Y94385D01*
X44369Y94013D01*
X50304D01*
Y99948D01*
D02*
G37*
G36*
X347149Y192000D02*
X345213Y191810D01*
X343352Y191245D01*
X341637Y190328D01*
X340133Y189094D01*
X338899Y187591D01*
X337982Y185876D01*
X337418Y184014D01*
X337227Y182079D01*
X337418Y180143D01*
X337982Y178282D01*
X338899Y176567D01*
X340133Y175063D01*
X341637Y173829D01*
X343352Y172912D01*
X345213Y172348D01*
X347149Y172157D01*
X349084Y172348D01*
X350946Y172912D01*
X352661Y173829D01*
X354165Y175063D01*
X355399Y176567D01*
X356315Y178282D01*
X356880Y180143D01*
X357071Y182079D01*
X356880Y184014D01*
X356315Y185876D01*
X355399Y187591D01*
X354165Y189094D01*
X352661Y190328D01*
X350946Y191245D01*
X349084Y191810D01*
X347149Y192000D01*
D02*
G37*
G36*
X333000Y142996D02*
X331707Y142825D01*
X330502Y142326D01*
X329468Y141532D01*
X328674Y140498D01*
X328271Y139524D01*
X327729D01*
X327326Y140498D01*
X326532Y141532D01*
X325498Y142326D01*
X324293Y142825D01*
X323000Y142996D01*
X321707Y142825D01*
X320502Y142326D01*
X319468Y141532D01*
X318674Y140498D01*
X318271Y139524D01*
X317729D01*
X317326Y140498D01*
X316532Y141532D01*
X315498Y142326D01*
X314293Y142825D01*
X313000Y142996D01*
X311707Y142825D01*
X310502Y142326D01*
X309468Y141532D01*
X308674Y140498D01*
X308271Y139524D01*
X307729D01*
X307326Y140498D01*
X306532Y141532D01*
X305498Y142326D01*
X304293Y142825D01*
X303000Y142996D01*
X301707Y142825D01*
X300502Y142326D01*
X299468Y141532D01*
X298674Y140498D01*
X298175Y139293D01*
X298005Y138000D01*
X298175Y136707D01*
X298674Y135502D01*
X299468Y134468D01*
X300502Y133674D01*
X301707Y133175D01*
X303000Y133005D01*
X304293Y133175D01*
X305498Y133674D01*
X306532Y134468D01*
X307326Y135502D01*
X307729Y136476D01*
X308271D01*
X308674Y135502D01*
X309468Y134468D01*
X310502Y133674D01*
X311707Y133175D01*
X313000Y133005D01*
X314293Y133175D01*
X315498Y133674D01*
X316532Y134468D01*
X317326Y135502D01*
X317729Y136476D01*
X318271D01*
X318674Y135502D01*
X319468Y134468D01*
X320502Y133674D01*
X321707Y133175D01*
X323000Y133005D01*
X324293Y133175D01*
X325498Y133674D01*
X326532Y134468D01*
X327326Y135502D01*
X327729Y136476D01*
X328271D01*
X328674Y135502D01*
X329468Y134468D01*
X330502Y133674D01*
X331707Y133175D01*
X333000Y133005D01*
X334293Y133175D01*
X335498Y133674D01*
X336532Y134468D01*
X337326Y135502D01*
X337547Y136036D01*
X338047Y135936D01*
Y133047D01*
X347953D01*
Y142953D01*
X338047D01*
Y140064D01*
X337547Y139964D01*
X337326Y140498D01*
X336532Y141532D01*
X335498Y142326D01*
X334293Y142825D01*
X333000Y142996D01*
D02*
G37*
%LPD*%
D10*
X202002Y36713D02*
D03*
Y30808D02*
D03*
Y60335D02*
D03*
Y54430D02*
D03*
Y42619D02*
D03*
Y48524D02*
D03*
Y72146D02*
D03*
Y66241D02*
D03*
D11*
X208892Y25886D02*
D03*
X262042Y77067D02*
D03*
X279758D02*
D03*
X273853D02*
D03*
X267947D02*
D03*
X256136D02*
D03*
X250231D02*
D03*
X244325D02*
D03*
X238420D02*
D03*
X232514D02*
D03*
X226609D02*
D03*
X220703D02*
D03*
X214798D02*
D03*
X208892D02*
D03*
X214798Y25886D02*
D03*
X220703D02*
D03*
X226609D02*
D03*
X232514D02*
D03*
X238420D02*
D03*
X244325D02*
D03*
X250231D02*
D03*
X256136D02*
D03*
X262042D02*
D03*
X267947D02*
D03*
X273853D02*
D03*
X279758D02*
D03*
D12*
X149815Y159476D02*
D03*
X151783D02*
D03*
X153752D02*
D03*
X155720D02*
D03*
X157689D02*
D03*
X159657D02*
D03*
X161626D02*
D03*
X163594D02*
D03*
X165563D02*
D03*
X167531D02*
D03*
X169500D02*
D03*
X171468D02*
D03*
X173437D02*
D03*
X175405D02*
D03*
X177374D02*
D03*
X179342D02*
D03*
Y115578D02*
D03*
X177374D02*
D03*
X175405D02*
D03*
X173437D02*
D03*
X171468D02*
D03*
X169500D02*
D03*
X167531D02*
D03*
X165563D02*
D03*
X163594D02*
D03*
X161626D02*
D03*
X159657D02*
D03*
X157689D02*
D03*
X155720D02*
D03*
X153752D02*
D03*
X151783D02*
D03*
X149815D02*
D03*
D13*
X186527Y152291D02*
D03*
Y150322D02*
D03*
Y148354D02*
D03*
Y146385D02*
D03*
Y144417D02*
D03*
Y142448D02*
D03*
Y140480D02*
D03*
Y138511D02*
D03*
Y136543D02*
D03*
Y134574D02*
D03*
Y132606D02*
D03*
Y130637D02*
D03*
Y128669D02*
D03*
Y126700D02*
D03*
Y124732D02*
D03*
Y122763D02*
D03*
X142629D02*
D03*
Y124732D02*
D03*
Y126700D02*
D03*
Y128669D02*
D03*
Y130637D02*
D03*
Y132606D02*
D03*
Y134574D02*
D03*
Y136543D02*
D03*
Y138511D02*
D03*
Y140480D02*
D03*
Y142448D02*
D03*
Y144417D02*
D03*
Y146385D02*
D03*
Y148354D02*
D03*
Y150322D02*
D03*
Y152291D02*
D03*
D14*
X114686Y80560D02*
D03*
X122560D02*
D03*
X130434D02*
D03*
X138308D02*
D03*
X146182D02*
D03*
X154056D02*
D03*
X161930D02*
D03*
X169804D02*
D03*
D15*
X302827Y165545D02*
D03*
Y173025D02*
D03*
X84830Y211698D02*
D03*
Y204217D02*
D03*
X18541Y211698D02*
D03*
Y204217D02*
D03*
X145282Y211698D02*
D03*
Y204217D02*
D03*
X213658D02*
D03*
Y211698D02*
D03*
X198003Y180698D02*
D03*
Y188178D02*
D03*
X126707Y133860D02*
D03*
Y126380D02*
D03*
D16*
X183173Y102688D02*
D03*
X175693D02*
D03*
X178017Y91721D02*
D03*
X170536D02*
D03*
X213307Y87813D02*
D03*
X205827D02*
D03*
X150855Y172164D02*
D03*
X143375D02*
D03*
X166179Y171247D02*
D03*
X158698D02*
D03*
D17*
X214966Y166587D02*
D03*
X219966D02*
D03*
X224966D02*
D03*
X229966D02*
D03*
X234966D02*
D03*
X239966D02*
D03*
X244966D02*
D03*
X214966Y188044D02*
D03*
X219966D02*
D03*
X224966D02*
D03*
X229966D02*
D03*
X234966D02*
D03*
X239966D02*
D03*
X244966D02*
D03*
X262760Y165678D02*
D03*
X267760D02*
D03*
X272760D02*
D03*
X277760D02*
D03*
X282760D02*
D03*
X287760D02*
D03*
X292760D02*
D03*
X262760Y187135D02*
D03*
X267760D02*
D03*
X272760D02*
D03*
X277760D02*
D03*
X282760D02*
D03*
X287760D02*
D03*
X292760D02*
D03*
D18*
X179049Y129724D02*
Y131438D01*
X172853Y123528D02*
X179049Y129724D01*
X167203Y115906D02*
Y126084D01*
X166694Y126593D02*
X167203Y126084D01*
Y115906D02*
X167531Y115578D01*
X171082Y126078D02*
X171231D01*
X170231Y125226D02*
X171082Y126078D01*
X169500Y124495D02*
X170231Y125226D01*
X172828Y123528D02*
X172853D01*
X171468Y122168D02*
X172828Y123528D01*
X171468Y115578D02*
Y122168D01*
X149815Y154755D02*
Y159476D01*
X149141Y154081D02*
X149815Y154755D01*
X149141Y145172D02*
Y154081D01*
Y145172D02*
X159151Y135162D01*
Y130489D02*
Y135162D01*
X157657Y128995D02*
X159151Y130489D01*
X155545Y128995D02*
X157657D01*
X155282Y129258D02*
X155545Y128995D01*
X149771Y129258D02*
X155282D01*
X149182Y128669D02*
X149771Y129258D01*
X142629Y128669D02*
X149182D01*
X151691Y159384D02*
X151783Y159476D01*
X151691Y148583D02*
Y159384D01*
X169500Y155143D02*
Y159476D01*
Y155143D02*
X171685Y152958D01*
Y149855D02*
Y152958D01*
X279276Y12656D02*
X279667Y13047D01*
X273853Y77067D02*
Y129369D01*
X279758Y77067D02*
Y130110D01*
X264024Y145843D02*
X279758Y130110D01*
X179400Y148306D02*
X186527D01*
X105744Y141114D02*
X130504D01*
X165563Y155563D02*
Y159476D01*
X165000Y155000D02*
X165563Y155563D01*
X169500Y115578D02*
Y124495D01*
X177374Y115578D02*
Y121591D01*
X179093Y123310D01*
X179707D01*
X149697Y115696D02*
X149815Y115578D01*
X149697Y115696D02*
Y122269D01*
X155133Y123154D02*
Y124401D01*
X133873Y120905D02*
X137700Y124732D01*
X142629D01*
X135231Y128669D02*
X142629D01*
Y126700D02*
X150820D01*
X150827Y126708D01*
X159657Y109952D02*
Y115578D01*
X155133Y123154D02*
X157689Y120598D01*
Y115578D02*
Y120598D01*
X161626Y122444D02*
X161627Y122446D01*
X161626Y115578D02*
Y122444D01*
X135773Y138511D02*
X142629D01*
X163594Y109551D02*
X163594D01*
X163594D02*
Y115578D01*
X156543Y131487D02*
X156601Y131545D01*
X153307Y134012D02*
X153332Y134037D01*
X177374Y109952D02*
Y115578D01*
X152276Y131487D02*
X156543D01*
X151157Y132606D02*
X152276Y131487D01*
X142629Y132606D02*
X151157D01*
X149389Y134012D02*
X153307D01*
X148826Y134574D02*
X149389Y134012D01*
X142629Y134574D02*
X148826D01*
X136869Y130637D02*
X142629D01*
X134570Y132936D02*
X136869Y130637D01*
X150426Y136543D02*
X150445Y136562D01*
X142629Y136543D02*
X150426D01*
X127012Y151114D02*
X137646Y140480D01*
X105744Y151114D02*
X127012D01*
X179435Y153315D02*
Y159383D01*
X179342Y159476D02*
X179435Y159383D01*
X137646Y140480D02*
X142629D01*
X167531Y153506D02*
Y159476D01*
Y153506D02*
X167588Y153449D01*
X105744Y161115D02*
X133116D01*
X143375Y162122D02*
Y165102D01*
Y162122D02*
X146021Y159476D01*
X149815D01*
X151783D02*
Y165102D01*
X134282Y132936D02*
X134570D01*
X179342Y115578D02*
X181847D01*
X183173Y114252D01*
Y109952D02*
Y114252D01*
X171387Y159557D02*
X171468Y159476D01*
X175405D02*
Y165640D01*
X226289Y82724D02*
X226902Y83337D01*
X213307Y84529D02*
X215111Y82724D01*
X226289D01*
X186527Y140480D02*
X191100D01*
X186527Y142448D02*
X191042D01*
X186527Y144417D02*
X190291D01*
X163594Y147606D02*
Y159476D01*
X165000Y150800D02*
Y155000D01*
X163594Y147606D02*
X173175Y138025D01*
X177684D01*
X165000Y150800D02*
X173200Y142600D01*
X177700D01*
X269015Y68784D02*
X269723Y69493D01*
Y36846D02*
Y69493D01*
X228649Y181483D02*
X229966Y182800D01*
Y188044D01*
X244484Y181067D02*
X244966Y181550D01*
Y188044D01*
X234966Y166587D02*
Y171025D01*
X268780Y146138D02*
X282946Y131971D01*
Y123574D02*
Y131971D01*
X257676Y145547D02*
X258140D01*
X257676D02*
X273853Y129369D01*
X199684Y134574D02*
X201708Y132550D01*
X186527Y134574D02*
X199684D01*
X195565Y136543D02*
X199347Y140325D01*
X199355D01*
X186527Y136543D02*
X195565D01*
X191042Y142448D02*
X196596Y148003D01*
X191100Y140480D02*
X196073Y145453D01*
X198179D01*
X190291Y144417D02*
X196429Y150554D01*
X200271Y148003D02*
X200272Y148004D01*
X200860D01*
X196596Y148003D02*
X200271D01*
X196429Y150554D02*
X202162D01*
X206142Y146575D01*
Y123111D02*
X206817Y122435D01*
X206142Y123111D02*
Y146575D01*
X209495Y140493D02*
Y154508D01*
X219966Y188044D02*
Y193398D01*
X248556Y189960D02*
X248564Y189967D01*
X248556Y179394D02*
Y189960D01*
X214042Y111757D02*
Y156666D01*
X208882Y132550D02*
X212045Y135713D01*
Y153997D01*
X214042Y111757D02*
X225599Y100201D01*
X292760Y180862D02*
Y187135D01*
X287404Y175506D02*
X292760Y180862D01*
X219966Y193398D02*
X223160Y196591D01*
X241940D02*
X248564Y189967D01*
X223160Y196591D02*
X241940D01*
X208508Y155495D02*
X209495Y154508D01*
X211058Y154983D02*
X212045Y153997D01*
X211058Y154983D02*
Y161956D01*
X208508Y155495D02*
Y164819D01*
X209451Y165762D01*
X171387Y159557D02*
Y167951D01*
X173437Y159476D02*
Y166796D01*
X171387Y167951D02*
X178942Y175506D01*
X175405Y165640D02*
X180256Y170492D01*
X219966Y166587D02*
Y170199D01*
X219673Y170492D02*
X219966Y170199D01*
X232324Y173668D02*
X234966Y171025D01*
X173437Y166796D02*
X180601Y173959D01*
X205207Y170492D02*
X219673D01*
X204003Y169287D02*
X205207Y170492D01*
X180256D02*
X196553D01*
X197758Y169287D01*
X204003D01*
X202690Y174668D02*
X203690Y173668D01*
X232324D01*
X203269Y176068D02*
X203832Y175506D01*
X287404D01*
X180601Y173959D02*
X196701D01*
X197410Y174668D01*
X202690D01*
X178942Y175506D02*
X196267D01*
X196830Y176068D01*
X203269D01*
X157689Y159476D02*
Y164901D01*
X158275Y165487D01*
X164268D01*
X166179Y167397D01*
Y171247D01*
D19*
X52025Y93013D02*
X86464Y127452D01*
X51304Y93013D02*
X52025D01*
X169804Y80560D02*
Y81995D01*
X165384Y86415D02*
X169804Y81995D01*
X133186Y86415D02*
X165384D01*
X132686Y86915D02*
X133186Y86415D01*
X183173Y93497D02*
X211172D01*
X213307Y91361D01*
Y87813D02*
Y91361D01*
X181311Y79379D02*
X183623Y77067D01*
X208892D01*
X126707Y118747D02*
Y126380D01*
X119075Y111115D02*
X126707Y118747D01*
X105744Y111115D02*
X119075D01*
X132942Y126380D02*
X135231Y128669D01*
X126707Y126380D02*
X132942D01*
X177374Y109294D02*
Y109952D01*
X175693Y107614D02*
X177374Y109294D01*
X175693Y102688D02*
Y107614D01*
X170536Y91721D02*
Y100125D01*
X173100Y102688D01*
X114970Y133860D02*
X126707D01*
X112224Y131114D02*
X114970Y133860D01*
X105744Y131114D02*
X112224D01*
X143375Y165102D02*
Y172164D01*
X151783Y165102D02*
Y166541D01*
X150855Y167469D02*
X151783Y166541D01*
X150855Y167469D02*
Y172164D01*
X133376Y132936D02*
X134282D01*
X132452Y133860D02*
X133376Y132936D01*
X126707Y133860D02*
X132452D01*
X36170Y77879D02*
X51304Y93013D01*
X36170Y63776D02*
Y77879D01*
Y63776D02*
X51304Y48643D01*
X106888D02*
X130434Y72189D01*
X51304Y48643D02*
X106888D01*
X130434Y72189D02*
Y77061D01*
X178017Y83950D02*
Y91721D01*
X174627Y80560D02*
X178017Y83950D01*
X169804Y80560D02*
X174627D01*
X169804Y77061D02*
Y80560D01*
X208892Y25886D02*
Y77067D01*
X203060Y25886D02*
X208892D01*
X202002Y26945D02*
X203060Y25886D01*
X202002Y26945D02*
Y30808D01*
X208892Y77067D02*
Y80878D01*
X205827Y83943D02*
X208892Y80878D01*
X205827Y83943D02*
Y87813D01*
X183173Y93497D02*
Y102688D01*
X181398Y91721D02*
X183173Y93497D01*
X178017Y91721D02*
X181398D01*
X173100Y102688D02*
X175693D01*
X183173D02*
Y109952D01*
X213307Y84529D02*
Y87813D01*
X258827Y187156D02*
X258849Y187135D01*
X143375Y172164D02*
Y178050D01*
X143348Y178077D02*
X143375Y178050D01*
X162340Y188044D02*
X214966D01*
X150855Y172164D02*
Y176559D01*
X162340Y188044D01*
X189531Y221069D02*
X209930D01*
X213658Y217341D01*
Y211698D02*
Y217341D01*
X149705Y221069D02*
X169846D01*
X145282Y216646D02*
X149705Y221069D01*
X145282Y211698D02*
Y216646D01*
X61011Y222269D02*
X79757D01*
X84830Y217197D01*
Y211698D02*
Y217197D01*
X18541Y211698D02*
Y219310D01*
X21501Y222269D01*
X41326D01*
X18541Y204217D02*
X23946D01*
X213658D02*
X222139D01*
X136100D02*
X145282D01*
X135990Y204108D02*
X136100Y204217D01*
X84830D02*
X94748D01*
X201725Y30530D02*
X202002Y30808D01*
X201216Y31040D02*
X201725Y30530D01*
X193955Y31040D02*
X201216D01*
X84830Y211698D02*
X95791D01*
X115339Y231245D01*
X226157D01*
X41326Y222269D02*
X55133Y236076D01*
X220017D01*
X213658Y211698D02*
X223618D01*
X232196Y199640D02*
X233505Y200949D01*
X226157Y231245D02*
X239590Y217812D01*
Y199390D02*
Y217812D01*
X233505Y200949D02*
Y210740D01*
X227098Y203230D02*
Y208218D01*
X223618Y211698D02*
X227098Y208218D01*
X169846Y202505D02*
X175540Y196811D01*
X169846Y202505D02*
Y221069D01*
X151771Y171247D02*
X158698D01*
X150855Y172164D02*
X151771Y171247D01*
D20*
X114686Y77061D02*
Y85386D01*
X119415Y90115D02*
X141988D01*
X114686Y85386D02*
X119415Y90115D01*
X100494Y93513D02*
X148711D01*
X122118Y97962D02*
Y109150D01*
X133873Y120905D01*
X148711Y93513D02*
X163594Y108396D01*
X159657Y109226D02*
Y109952D01*
X151037Y100605D02*
X159657Y109226D01*
X163594Y108396D02*
Y109551D01*
X118037Y120897D02*
X118878D01*
X113602Y116462D02*
X118037Y120897D01*
X102480Y116462D02*
X113602D01*
X83240Y135702D02*
X102480Y116462D01*
X50104Y135702D02*
X83240D01*
X66943Y157949D02*
X98908Y125984D01*
X50104Y157949D02*
X66943D01*
X132070Y138511D02*
X135773D01*
X98908Y125984D02*
X119157D01*
X101824Y136462D02*
X107671D01*
X60651Y177635D02*
X101824Y136462D01*
X50104Y177635D02*
X60651D01*
X107671Y136462D02*
X109329Y138119D01*
X130364D01*
X131678D01*
X132070Y138511D01*
D21*
X214813Y71468D02*
Y73944D01*
X275321Y37200D02*
X279758Y32763D01*
Y25886D02*
Y32763D01*
X258849Y187135D02*
X262760D01*
X282474Y179610D02*
Y181652D01*
X282760Y181939D01*
Y187135D01*
X219268Y126585D02*
X223891Y121962D01*
X223864Y121935D02*
X223891Y121962D01*
X223864Y121935D02*
X225599Y120201D01*
X216885Y122543D02*
X225037Y114392D01*
Y110763D02*
Y114392D01*
Y110763D02*
X225599Y110201D01*
Y90201D02*
X229696D01*
X219268Y126585D02*
Y134532D01*
X229966Y145230D01*
Y166587D01*
X229696Y90201D02*
X232280Y92785D01*
Y121873D01*
X249949Y139542D01*
X240773Y140811D02*
X252096Y152135D01*
X251804Y172342D02*
X252096Y172634D01*
X251511Y183214D02*
X251676Y183049D01*
X251511Y183214D02*
Y192060D01*
X235209Y188286D02*
Y192255D01*
X234966Y188044D02*
X235209Y188286D01*
X252096Y152135D02*
Y172634D01*
X225599Y130201D02*
X235586D01*
X263519Y158134D01*
X273928D01*
X292427Y159576D02*
X292760Y159909D01*
Y165678D01*
X192221Y180698D02*
X198003D01*
X189784Y178261D02*
X192221Y180698D01*
X186568Y178261D02*
X189784D01*
X186363Y178056D02*
X186568Y178261D01*
X292760Y165678D02*
X302694D01*
X302827Y165545D01*
Y173025D02*
Y190516D01*
X299672Y193671D02*
X302827Y190516D01*
X264310Y193671D02*
X299672D01*
X262760Y192122D02*
X264310Y193671D01*
X262760Y187135D02*
Y192122D01*
X287760Y179991D02*
X288021Y179729D01*
X287760Y179991D02*
Y187135D01*
X239966Y188044D02*
Y193841D01*
X239930Y193877D02*
X239966Y193841D01*
X224966Y192674D02*
X226333Y194041D01*
X224966Y188044D02*
Y192674D01*
X239732Y159352D02*
X239966Y159586D01*
Y166587D01*
X244966Y152123D02*
X245026Y152064D01*
X244966Y152123D02*
Y166587D01*
X216885Y122543D02*
Y159114D01*
X214966Y161033D02*
X216885Y159114D01*
X214966Y161033D02*
Y166587D01*
X224966D02*
Y171059D01*
X223907Y172118D02*
X224966Y171059D01*
X200023Y172118D02*
X223907D01*
D22*
X92018Y182923D02*
D03*
X10917Y10161D02*
D03*
X348838Y13540D02*
D03*
X347149Y182079D02*
D03*
D23*
X50104Y157949D02*
D03*
Y177635D02*
D03*
Y116017D02*
D03*
Y135702D02*
D03*
X51304Y93013D02*
D03*
Y73328D02*
D03*
Y48643D02*
D03*
Y28958D02*
D03*
X41326Y222269D02*
D03*
X61011D02*
D03*
X189531Y221069D02*
D03*
X169846D02*
D03*
X319598D02*
D03*
X299913D02*
D03*
D24*
X169804Y77061D02*
D03*
D25*
X161930D02*
D03*
X154056D02*
D03*
X146182D02*
D03*
X138308D02*
D03*
X130434D02*
D03*
X122560D02*
D03*
X114686D02*
D03*
D26*
X105744Y161115D02*
D03*
Y151114D02*
D03*
Y141114D02*
D03*
Y131114D02*
D03*
Y121115D02*
D03*
X303000Y138000D02*
D03*
X313000D02*
D03*
X323000D02*
D03*
X333000D02*
D03*
X225599Y130201D02*
D03*
Y120201D02*
D03*
Y110201D02*
D03*
Y100201D02*
D03*
D27*
X105744Y111115D02*
D03*
X225599Y90201D02*
D03*
D28*
X343000Y138000D02*
D03*
D29*
X179049Y131438D02*
D03*
X166694Y126593D02*
D03*
X171231Y126078D02*
D03*
X151691Y148583D02*
D03*
X86464Y127452D02*
D03*
X132686Y86915D02*
D03*
X171685Y149855D02*
D03*
X282946Y123574D02*
D03*
X279276Y12656D02*
D03*
X264024Y145843D02*
D03*
X181311Y79379D02*
D03*
X179707Y123310D02*
D03*
X149697Y122269D02*
D03*
X155133Y124401D02*
D03*
X141988Y90115D02*
D03*
X122118Y97962D02*
D03*
X150827Y126708D02*
D03*
X151037Y100605D02*
D03*
X161627Y122446D02*
D03*
X118878Y120897D02*
D03*
X119157Y125984D02*
D03*
X156601Y131545D02*
D03*
X153332Y134037D02*
D03*
X100494Y93513D02*
D03*
X150445Y136562D02*
D03*
X130326Y141320D02*
D03*
X179435Y153315D02*
D03*
X179400Y148306D02*
D03*
X167588Y153449D02*
D03*
X133116Y161115D02*
D03*
X214813Y71468D02*
D03*
X226902Y83337D02*
D03*
X177684Y138025D02*
D03*
X177700Y142600D02*
D03*
X275321Y37200D02*
D03*
X269723Y36846D02*
D03*
X269015Y68784D02*
D03*
X228649Y181483D02*
D03*
X244484Y181067D02*
D03*
X205902Y187938D02*
D03*
X273928Y158134D02*
D03*
X282474Y179610D02*
D03*
X268780Y146138D02*
D03*
X258140Y145547D02*
D03*
X201708Y132550D02*
D03*
X199355Y140325D02*
D03*
X198179Y145453D02*
D03*
X200860Y148004D02*
D03*
X206817Y122435D02*
D03*
X208882Y132550D02*
D03*
X209495Y140493D02*
D03*
X249949Y139542D02*
D03*
X240773Y140811D02*
D03*
X258827Y187156D02*
D03*
X251804Y172342D02*
D03*
X251676Y183049D02*
D03*
X251511Y192060D02*
D03*
X235209Y192255D02*
D03*
X248556Y179394D02*
D03*
X143348Y178077D02*
D03*
X292427Y159576D02*
D03*
X214042Y156666D02*
D03*
X186363Y178056D02*
D03*
X288021Y179729D02*
D03*
X23946Y204217D02*
D03*
X222139D02*
D03*
X135990Y204108D02*
D03*
X94748Y204217D02*
D03*
X193955Y31040D02*
D03*
X239930Y193877D02*
D03*
X220017Y236076D02*
D03*
X226333Y194041D02*
D03*
X232196Y199640D02*
D03*
X239590Y199390D02*
D03*
X233505Y210740D02*
D03*
X239732Y159352D02*
D03*
X245026Y152064D02*
D03*
X227098Y203230D02*
D03*
X211058Y161956D02*
D03*
X209451Y165762D02*
D03*
X200023Y172118D02*
D03*
X175540Y196811D02*
D03*
X166179Y171247D02*
D03*
M02*
