M48
;Layer_Color=9474304
;FILE_FORMAT=2:5
INCH,LZ
;TYPE=PLATED
T1F00S00C0.01968
T2F00S00C0.02362
T3F00S00C0.02800
T4F00S00C0.03800
T5F00S00C0.04800
%
T01
X0034327Y0363854
X0042201
X0050075
X0057949
X0065823
X0073697
X0081571
X0089445
X0097319
X0105193
X0113067
Y0371728
Y0379602
Y0387476
Y039535
X0018579
Y0387476
Y0379602
Y0371728
Y0363854
X0026453
X0018579Y0403225
Y0411099
Y0418973
Y0426847
Y0434721
X0026453
X0034327
X0042201
X0050075
X0057949
X0065823
X0073697
X0081571
X0089445
X0097319
X0105193
X0113067
Y0426847
Y0418973
Y0411099
Y0403225
X010052Y0413189
T02
X0183205Y0363469
X0175331
X0167457
X0159583
X0151709
X0143835
X0135961
X0128087
T03
X0011887Y0164169
X0052887Y0189869
X0046999Y0125809
X0027813Y0235796
X0189887Y0158294
X0166987Y0344369
X0151138Y037472
X0151064Y038272
X015393Y0397762
X0132287Y0373569
X0124483Y0374569
X011893Y0380998
X0099853Y0379769
X0107052Y0400454
X0073725Y0373068
X0073987Y0270169
X0007887Y0345369
T04
X0184157Y0042988
Y0070547
X016644
Y0042988
X0134047
X0116331
Y0070547
X0134047
X0085152
X0067436
Y0042988
X0085152
X003603
Y0070547
X0018314
Y0042988
Y0092523
Y0120083
Y0199144
Y0226704
X003603
Y0199144
X0067436
X0085152
Y0226704
X0067436
X0116331
X0134047
Y0199144
X0116331
X0109731Y0174043
X0092015
Y0146484
X0109731
X0142409
X0160126
Y0174043
X0142409
X016644Y0199144
Y0226704
Y0120083
Y0092523
X0134047
X0116331
Y0120083
X0134047
X0085152
X0067436
Y0092523
X0085152
X003603
Y0120083
X0043259Y0146484
X0060975
Y0174043
X0043259
X0184157Y0199144
Y0226704
Y0120083
Y0092523
Y0253622
Y0281182
Y0306411
Y0333971
X016644
Y0306411
Y0281182
Y0253622
X0134047
X0116331
Y0281182
X0134047
Y0306411
X0116331
Y0333971
X0134047
X0085152
X0067436
Y0306411
X0085152
Y0281182
X0067436
Y0253622
X0085152
X003603
Y0281182
Y0306411
Y0333971
X0018314
Y0306411
Y0281182
Y0253622
T05
X007533Y0022967
X0138322
Y024029
X007533
M30
