%FSLAX25Y25*%
%MOIN*%
G70*
G01*
G75*
G04 Layer_Color=8421504*
%ADD10R,0.05906X0.05118*%
%ADD11O,0.06890X0.01181*%
%ADD12O,0.01181X0.06890*%
%ADD13R,0.05118X0.05906*%
%ADD14C,0.00700*%
%ADD15C,0.04724*%
%ADD16R,0.04724X0.04724*%
%ADD17R,0.04724X0.04724*%
%ADD18C,0.03150*%
%ADD19C,0.02362*%
%ADD20C,0.00984*%
%ADD21C,0.01000*%
%ADD22C,0.00787*%
%ADD23C,0.00500*%
%ADD24C,0.00600*%
D10*
X86360Y25724D02*
D03*
Y18244D02*
D03*
X77660Y17069D02*
D03*
Y24549D02*
D03*
D11*
X35916Y23882D02*
D03*
Y25851D02*
D03*
Y27819D02*
D03*
Y29788D02*
D03*
Y31756D02*
D03*
Y33725D02*
D03*
Y35693D02*
D03*
Y37662D02*
D03*
Y39630D02*
D03*
Y41599D02*
D03*
Y43567D02*
D03*
Y45536D02*
D03*
X68003D02*
D03*
Y43567D02*
D03*
Y41599D02*
D03*
Y39630D02*
D03*
Y37662D02*
D03*
Y35693D02*
D03*
Y33725D02*
D03*
Y31756D02*
D03*
Y29788D02*
D03*
Y27819D02*
D03*
Y25851D02*
D03*
Y23882D02*
D03*
D12*
X41133Y50752D02*
D03*
X43101D02*
D03*
X45070D02*
D03*
X47038D02*
D03*
X49007D02*
D03*
X50975D02*
D03*
X52944D02*
D03*
X54912D02*
D03*
X56881D02*
D03*
X58849D02*
D03*
X60818D02*
D03*
X62786D02*
D03*
Y18666D02*
D03*
X60818D02*
D03*
X58849D02*
D03*
X56881D02*
D03*
X54912D02*
D03*
X52944D02*
D03*
X50975D02*
D03*
X49007D02*
D03*
X47038D02*
D03*
X45070D02*
D03*
X43101D02*
D03*
X41133D02*
D03*
D13*
X17320Y39409D02*
D03*
X24800D02*
D03*
X17220Y47709D02*
D03*
X24700D02*
D03*
M02*
