%FSLAX25Y25*%
%MOIN*%
G70*
G01*
G75*
G04 Layer_Color=8388736*
%ADD10R,0.05906X0.05118*%
%ADD11O,0.06890X0.01181*%
%ADD12O,0.01181X0.06890*%
%ADD13R,0.05118X0.05906*%
%ADD14C,0.00700*%
%ADD15C,0.04724*%
%ADD16R,0.04724X0.04724*%
%ADD17R,0.04724X0.04724*%
%ADD18C,0.03150*%
%ADD19C,0.02362*%
%ADD20C,0.00984*%
%ADD21C,0.01000*%
%ADD22C,0.00787*%
%ADD23C,0.00500*%
%ADD24C,0.00600*%
%ADD25R,0.06706X0.05918*%
%ADD26O,0.07690X0.01981*%
%ADD27O,0.01981X0.07690*%
%ADD28R,0.05918X0.06706*%
%ADD29C,0.05524*%
%ADD30R,0.05524X0.05524*%
%ADD31R,0.05524X0.05524*%
%ADD32C,0.03950*%
D25*
X86360Y25724D02*
D03*
Y18244D02*
D03*
X77660Y17069D02*
D03*
Y24549D02*
D03*
D26*
X35916Y23882D02*
D03*
Y25851D02*
D03*
Y27819D02*
D03*
Y29788D02*
D03*
Y31756D02*
D03*
Y33725D02*
D03*
Y35693D02*
D03*
Y37662D02*
D03*
Y39630D02*
D03*
Y41599D02*
D03*
Y43567D02*
D03*
Y45536D02*
D03*
X68003D02*
D03*
Y43567D02*
D03*
Y41599D02*
D03*
Y39630D02*
D03*
Y37662D02*
D03*
Y35693D02*
D03*
Y33725D02*
D03*
Y31756D02*
D03*
Y29788D02*
D03*
Y27819D02*
D03*
Y25851D02*
D03*
Y23882D02*
D03*
D27*
X41133Y50752D02*
D03*
X43101D02*
D03*
X45070D02*
D03*
X47038D02*
D03*
X49007D02*
D03*
X50975D02*
D03*
X52944D02*
D03*
X54912D02*
D03*
X56881D02*
D03*
X58849D02*
D03*
X60818D02*
D03*
X62786D02*
D03*
Y18666D02*
D03*
X60818D02*
D03*
X58849D02*
D03*
X56881D02*
D03*
X54912D02*
D03*
X52944D02*
D03*
X50975D02*
D03*
X49007D02*
D03*
X47038D02*
D03*
X45070D02*
D03*
X43101D02*
D03*
X41133D02*
D03*
D28*
X17320Y39409D02*
D03*
X24800D02*
D03*
X17220Y47709D02*
D03*
X24700D02*
D03*
D29*
X65146Y60422D02*
D03*
X73020D02*
D03*
X80895D02*
D03*
X90501Y74753D02*
D03*
X82627D02*
D03*
X74753D02*
D03*
X66879D02*
D03*
X59005D02*
D03*
X51131D02*
D03*
X43257D02*
D03*
X3887Y35383D02*
D03*
Y43257D02*
D03*
Y51131D02*
D03*
Y59005D02*
D03*
X35382Y3887D02*
D03*
X27508D02*
D03*
X19634D02*
D03*
X98482Y19635D02*
D03*
Y27509D02*
D03*
Y35383D02*
D03*
Y43257D02*
D03*
Y51131D02*
D03*
Y59005D02*
D03*
Y66879D02*
D03*
X51238Y3887D02*
D03*
X59112D02*
D03*
X66986D02*
D03*
X74860D02*
D03*
X82734D02*
D03*
X90608D02*
D03*
X98482D02*
D03*
X3887Y74753D02*
D03*
X11761D02*
D03*
X19635D02*
D03*
X27509D02*
D03*
X3887Y3887D02*
D03*
Y11761D02*
D03*
Y19635D02*
D03*
X85935Y53219D02*
D03*
D30*
X88769Y60422D02*
D03*
X98375Y74753D02*
D03*
X11760Y3887D02*
D03*
X43364D02*
D03*
X35383Y74753D02*
D03*
D31*
X3887Y66879D02*
D03*
X98482Y11761D02*
D03*
X3887Y27509D02*
D03*
D32*
X10044Y10524D02*
D03*
X12806Y22477D02*
D03*
X12334Y31552D02*
D03*
X19594Y31552D02*
D03*
X50159Y44523D02*
D03*
X52560Y35273D02*
D03*
X52145Y29423D02*
D03*
X56134Y24818D02*
D03*
X59695Y30056D02*
D03*
X43562Y43562D02*
D03*
X55437Y38265D02*
D03*
X48500Y27200D02*
D03*
X44776Y31749D02*
D03*
X44900Y37598D02*
D03*
X59697Y38735D02*
D03*
X62088Y43567D02*
D03*
X66704Y17867D02*
D03*
X93700Y25724D02*
D03*
X89000Y30900D02*
D03*
X72141Y20703D02*
D03*
M02*
