%FSLAX25Y25*%
%MOIN*%
G70*
G01*
G75*
G04 Layer_Physical_Order=1*
G04 Layer_Color=255*
%ADD10R,0.05118X0.05906*%
%ADD11R,0.06102X0.09646*%
%ADD12R,0.06299X0.02362*%
%ADD13R,0.05906X0.05118*%
%ADD14R,0.08661X0.07874*%
%ADD15R,0.09646X0.06102*%
%ADD16R,0.12992X0.09449*%
%ADD17R,0.03937X0.09449*%
G04:AMPARAMS|DCode=18|XSize=50mil|YSize=50mil|CornerRadius=6.25mil|HoleSize=0mil|Usage=FLASHONLY|Rotation=270.000|XOffset=0mil|YOffset=0mil|HoleType=Round|Shape=RoundedRectangle|*
%AMROUNDEDRECTD18*
21,1,0.05000,0.03750,0,0,270.0*
21,1,0.03750,0.05000,0,0,270.0*
1,1,0.01250,-0.01875,-0.01875*
1,1,0.01250,-0.01875,0.01875*
1,1,0.01250,0.01875,0.01875*
1,1,0.01250,0.01875,-0.01875*
%
%ADD18ROUNDEDRECTD18*%
%ADD19C,0.02000*%
%ADD20C,0.03000*%
%ADD21C,0.11000*%
%ADD22C,0.05906*%
%ADD23R,0.05906X0.05906*%
%ADD24O,0.07874X0.03937*%
%ADD25O,0.07874X0.03937*%
%ADD26C,0.10000*%
%ADD27C,0.07874*%
%ADD28R,0.05906X0.05906*%
%ADD29C,0.09843*%
%ADD30C,0.04921*%
%ADD31R,0.04921X0.04921*%
%ADD32C,0.06299*%
%ADD33R,0.06299X0.06299*%
%ADD34O,0.03937X0.07874*%
%ADD35O,0.03937X0.07874*%
%ADD36C,0.03000*%
G36*
X613600Y0D02*
X0D01*
Y164100D01*
X613600D01*
Y0D01*
D02*
G37*
%LPC*%
G36*
X220200Y68197D02*
Y63800D01*
X222694D01*
Y65268D01*
X222592Y66043D01*
X222293Y66766D01*
X221817Y67386D01*
X221197Y67861D01*
X220475Y68161D01*
X220200Y68197D01*
D02*
G37*
G36*
X10400Y72969D02*
X9856Y72897D01*
X8883Y72494D01*
X8047Y71853D01*
X7406Y71017D01*
X7003Y70044D01*
X6931Y69500D01*
X10400D01*
Y72969D01*
D02*
G37*
G36*
X288512Y86456D02*
X287250Y86332D01*
X286037Y85964D01*
X284918Y85366D01*
X283938Y84562D01*
X283134Y83582D01*
X282536Y82464D01*
X282168Y81250D01*
X282044Y79988D01*
X282168Y78726D01*
X282536Y77513D01*
X283134Y76395D01*
X283938Y75415D01*
X284918Y74610D01*
X286037Y74012D01*
X287250Y73644D01*
X288512Y73520D01*
X289774Y73644D01*
X290987Y74012D01*
X292105Y74610D01*
X293086Y75415D01*
X293890Y76395D01*
X294488Y77513D01*
X294856Y78726D01*
X294980Y79988D01*
X294856Y81250D01*
X294488Y82464D01*
X293890Y83582D01*
X293086Y84562D01*
X292105Y85366D01*
X290987Y85964D01*
X289774Y86332D01*
X288512Y86456D01*
D02*
G37*
G36*
X222694Y62800D02*
X220200D01*
Y58403D01*
X220475Y58439D01*
X221197Y58738D01*
X221817Y59214D01*
X222293Y59834D01*
X222592Y60557D01*
X222694Y61331D01*
Y62800D01*
D02*
G37*
G36*
X547090Y27451D02*
X545828Y27327D01*
X544614Y26958D01*
X543496Y26361D01*
X542516Y25556D01*
X541712Y24576D01*
X541114Y23458D01*
X540746Y22244D01*
X540622Y20983D01*
X540746Y19721D01*
X541114Y18507D01*
X541712Y17389D01*
X542516Y16409D01*
X543496Y15605D01*
X544614Y15007D01*
X545828Y14639D01*
X547090Y14514D01*
X548352Y14639D01*
X549565Y15007D01*
X550683Y15605D01*
X551663Y16409D01*
X552468Y17389D01*
X553065Y18507D01*
X553434Y19721D01*
X553558Y20983D01*
X553434Y22244D01*
X553065Y23458D01*
X552468Y24576D01*
X551663Y25556D01*
X550683Y26361D01*
X549565Y26958D01*
X548352Y27327D01*
X547090Y27451D01*
D02*
G37*
G36*
X405890Y29451D02*
X404628Y29327D01*
X403414Y28958D01*
X402296Y28361D01*
X401316Y27556D01*
X400512Y26576D01*
X399914Y25458D01*
X399546Y24245D01*
X399422Y22983D01*
X399546Y21721D01*
X399914Y20507D01*
X400512Y19389D01*
X401316Y18409D01*
X402296Y17605D01*
X403414Y17007D01*
X404628Y16639D01*
X405890Y16514D01*
X407152Y16639D01*
X408365Y17007D01*
X409483Y17605D01*
X410463Y18409D01*
X411268Y19389D01*
X411866Y20507D01*
X412234Y21721D01*
X412358Y22983D01*
X412234Y24245D01*
X411866Y25458D01*
X411268Y26576D01*
X410463Y27556D01*
X409483Y28361D01*
X408365Y28958D01*
X407152Y29327D01*
X405890Y29451D01*
D02*
G37*
G36*
X383534Y30751D02*
X382272Y30626D01*
X381059Y30258D01*
X379940Y29661D01*
X378960Y28856D01*
X378156Y27876D01*
X377558Y26758D01*
X377190Y25545D01*
X377066Y24283D01*
X377190Y23021D01*
X377558Y21807D01*
X378156Y20689D01*
X378960Y19709D01*
X379940Y18904D01*
X381059Y18307D01*
X382272Y17939D01*
X383534Y17814D01*
X384796Y17939D01*
X386009Y18307D01*
X387127Y18904D01*
X388107Y19709D01*
X388912Y20689D01*
X389510Y21807D01*
X389878Y23021D01*
X390002Y24283D01*
X389878Y25545D01*
X389510Y26758D01*
X388912Y27876D01*
X388107Y28856D01*
X387127Y29661D01*
X386009Y30258D01*
X384796Y30626D01*
X383534Y30751D01*
D02*
G37*
G36*
X275999Y156153D02*
X258401D01*
Y154230D01*
X255170D01*
X254256Y154110D01*
X253405Y153757D01*
X252674Y153196D01*
X252674Y153196D01*
X252608Y153130D01*
X250608D01*
X250122Y153503D01*
X249035Y153954D01*
X247869Y154107D01*
X243932D01*
X242765Y153954D01*
X241678Y153503D01*
X240745Y152787D01*
X240028Y151854D01*
X239578Y150767D01*
X239424Y149600D01*
X239578Y148433D01*
X240028Y147346D01*
X240217Y147100D01*
X240028Y146853D01*
X239578Y145766D01*
X239424Y144600D01*
X239578Y143433D01*
X239559Y143386D01*
X238853Y143094D01*
X238017Y142453D01*
X236517Y140953D01*
X235876Y140117D01*
X235473Y139144D01*
X235336Y138100D01*
X235336Y138100D01*
Y117000D01*
X235336Y117000D01*
X235473Y115956D01*
X235522Y115838D01*
X235481Y115784D01*
X235276Y115517D01*
X234873Y114544D01*
X234736Y113500D01*
X234736Y113500D01*
Y96710D01*
X234274Y96519D01*
X231041Y99752D01*
X231100Y100200D01*
X230912Y101623D01*
X230363Y102950D01*
X229489Y104089D01*
X228367Y104950D01*
Y105450D01*
X229489Y106311D01*
X230363Y107450D01*
X230912Y108776D01*
X231100Y110200D01*
X230912Y111624D01*
X230363Y112950D01*
X229489Y114089D01*
X228367Y114950D01*
Y115450D01*
X229489Y116311D01*
X230363Y117450D01*
X230912Y118777D01*
X231100Y120200D01*
X230912Y121624D01*
X230363Y122950D01*
X229489Y124089D01*
X228367Y124950D01*
Y125450D01*
X229489Y126311D01*
X230363Y127450D01*
X230912Y128777D01*
X231100Y130200D01*
X230912Y131623D01*
X230363Y132950D01*
X229489Y134089D01*
X228350Y134963D01*
X227024Y135512D01*
X225600Y135700D01*
X224177Y135512D01*
X222850Y134963D01*
X221711Y134089D01*
X220837Y132950D01*
X220288Y131623D01*
X220100Y130200D01*
X220288Y128777D01*
X220837Y127450D01*
X221711Y126311D01*
X222833Y125450D01*
Y124950D01*
X221711Y124089D01*
X220837Y122950D01*
X220288Y121624D01*
X220100Y120200D01*
X220288Y118777D01*
X220837Y117450D01*
X221711Y116311D01*
X222833Y115450D01*
Y114950D01*
X221711Y114089D01*
X220837Y112950D01*
X220288Y111624D01*
X220100Y110200D01*
X220288Y108776D01*
X220837Y107450D01*
X221711Y106311D01*
X222833Y105450D01*
Y104950D01*
X221711Y104089D01*
X220837Y102950D01*
X220288Y101623D01*
X220100Y100200D01*
X220288Y98777D01*
X220837Y97450D01*
X221711Y96311D01*
X221952Y96126D01*
X221791Y95653D01*
X220147D01*
Y89740D01*
X212204Y81796D01*
X211643Y81065D01*
X211290Y80214D01*
X211170Y79300D01*
Y69961D01*
X210794Y69632D01*
X209700Y69776D01*
X208534Y69622D01*
X207447Y69172D01*
X206513Y68455D01*
X205797Y67522D01*
X205347Y66435D01*
X205193Y65268D01*
Y61331D01*
X205347Y60165D01*
X205797Y59078D01*
X206513Y58144D01*
X207447Y57428D01*
X208534Y56978D01*
X209700Y56824D01*
X210867Y56978D01*
X211954Y57428D01*
X212200Y57617D01*
X212446Y57428D01*
X213534Y56978D01*
X214700Y56824D01*
X215867Y56978D01*
X216954Y57428D01*
X217887Y58144D01*
X218309Y58695D01*
X218925Y58439D01*
X219200Y58403D01*
Y61276D01*
X219207Y61331D01*
Y63300D01*
Y65268D01*
X219200Y65324D01*
Y68197D01*
X218925Y68161D01*
X218646Y68045D01*
X218230Y68323D01*
Y77838D01*
X225140Y84747D01*
X231053D01*
Y89101D01*
X231515Y89293D01*
X236770Y84038D01*
Y69061D01*
X236394Y68732D01*
X235300Y68876D01*
X234134Y68722D01*
X233047Y68272D01*
X232113Y67555D01*
X231397Y66622D01*
X230947Y65535D01*
X230793Y64368D01*
Y60431D01*
X230947Y59265D01*
X231397Y58178D01*
X231770Y57692D01*
Y42300D01*
X231770Y42300D01*
X231770D01*
X231890Y41386D01*
X232243Y40535D01*
X232804Y39804D01*
X253009Y19598D01*
X253376Y18713D01*
X254017Y17877D01*
X254853Y17236D01*
X255826Y16833D01*
X256870Y16695D01*
X257914Y16833D01*
X258887Y17236D01*
X259723Y17877D01*
X260364Y18713D01*
X260437Y18890D01*
X260922Y19011D01*
X261296Y18704D01*
X262414Y18107D01*
X263628Y17739D01*
X264890Y17614D01*
X266151Y17739D01*
X267365Y18107D01*
X268483Y18704D01*
X269463Y19509D01*
X270268Y20489D01*
X270866Y21607D01*
X271234Y22821D01*
X271358Y24083D01*
X271234Y25344D01*
X270866Y26558D01*
X270268Y27676D01*
X269463Y28656D01*
X268483Y29461D01*
X267365Y30058D01*
X266151Y30426D01*
X264890Y30551D01*
X263628Y30426D01*
X262414Y30058D01*
X261296Y29461D01*
X260316Y28656D01*
X259512Y27676D01*
X258914Y26558D01*
X258546Y25344D01*
X258494Y24822D01*
X258065Y24564D01*
X258002Y24591D01*
X238830Y43762D01*
Y55739D01*
X239206Y56068D01*
X240300Y55924D01*
X241467Y56078D01*
X242554Y56528D01*
X243487Y57244D01*
X243909Y57795D01*
X244525Y57539D01*
X244800Y57503D01*
Y60376D01*
X244807Y60431D01*
Y62400D01*
X245800D01*
Y57503D01*
X246075Y57539D01*
X246797Y57838D01*
X247417Y58314D01*
X247666Y58639D01*
X248140Y58478D01*
Y46000D01*
X248140Y46000D01*
X248140D01*
X248260Y45086D01*
X248613Y44235D01*
X249174Y43504D01*
X257909Y34768D01*
X258276Y33883D01*
X258917Y33047D01*
X259753Y32406D01*
X260726Y32003D01*
X261770Y31866D01*
X262814Y32003D01*
X263787Y32406D01*
X264623Y33047D01*
X265264Y33883D01*
X265667Y34856D01*
X265805Y35900D01*
X265667Y36944D01*
X265264Y37917D01*
X264623Y38753D01*
X263787Y39394D01*
X262902Y39761D01*
X255200Y47462D01*
Y99000D01*
X255080Y99914D01*
X254727Y100765D01*
X254457Y101117D01*
X266115Y111560D01*
X266179Y111634D01*
X266256Y111694D01*
X266478Y111983D01*
X266716Y112259D01*
X266758Y112347D01*
X266817Y112425D01*
X266957Y112762D01*
X267114Y113090D01*
X267132Y113186D01*
X267170Y113276D01*
X267217Y113638D01*
X267285Y113996D01*
X267277Y114093D01*
X267290Y114190D01*
Y116247D01*
X276299D01*
Y118769D01*
X276866Y119204D01*
X276866Y119204D01*
X276866Y119204D01*
X277878Y120215D01*
X278340Y120024D01*
Y103751D01*
X274475D01*
Y101730D01*
X270090D01*
X269176Y101610D01*
X268325Y101257D01*
X267593Y100696D01*
X262393Y95496D01*
X261832Y94765D01*
X261480Y93914D01*
X261360Y93000D01*
Y77526D01*
X261296Y77492D01*
X260316Y76688D01*
X259512Y75708D01*
X258914Y74589D01*
X258546Y73376D01*
X258421Y72114D01*
X258546Y70852D01*
X258914Y69639D01*
X259512Y68521D01*
X260316Y67541D01*
X261296Y66736D01*
X262414Y66138D01*
X263628Y65770D01*
X264890Y65646D01*
X266151Y65770D01*
X267365Y66138D01*
X268483Y66736D01*
X269463Y67541D01*
X270268Y68521D01*
X270866Y69639D01*
X271234Y70852D01*
X271358Y72114D01*
X271234Y73376D01*
X270866Y74589D01*
X270268Y75708D01*
X269463Y76688D01*
X268483Y77492D01*
X268420Y77526D01*
Y91538D01*
X271552Y94670D01*
X274475D01*
Y92649D01*
X289936D01*
Y90278D01*
X289936Y90278D01*
X290073Y89234D01*
X290476Y88261D01*
X291117Y87425D01*
X305734Y72808D01*
X305666Y72114D01*
X305734Y71420D01*
X301217Y66903D01*
X300576Y66068D01*
X300173Y65095D01*
X300036Y64050D01*
X300036Y64050D01*
Y18400D01*
X300036Y18400D01*
X300173Y17356D01*
X300576Y16383D01*
X301217Y15547D01*
X309117Y7647D01*
X309117Y7647D01*
X309953Y7006D01*
X309953Y7006D01*
X309953Y7006D01*
D01*
X309953Y7006D01*
X309953Y7006D01*
X310926Y6603D01*
X311970Y6465D01*
X311970Y6465D01*
X342870D01*
X342870Y6465D01*
X343914Y6603D01*
X344887Y7006D01*
X345723Y7647D01*
X349723Y11647D01*
X349723Y11647D01*
X350086Y12120D01*
X350364Y12483D01*
X350767Y13456D01*
X350905Y14500D01*
X350905Y14500D01*
X350905Y14500D01*
Y14500D01*
Y82529D01*
X352250Y83875D01*
X352652Y83577D01*
X352485Y83264D01*
X352028Y81757D01*
X351873Y80188D01*
X352028Y78620D01*
X352485Y77112D01*
X353228Y75722D01*
X354228Y74504D01*
X372616Y56116D01*
X373834Y55116D01*
X375224Y54373D01*
X376732Y53916D01*
X378300Y53761D01*
X390870D01*
X390870Y53761D01*
X392438Y53916D01*
X393946Y54373D01*
X395336Y55116D01*
X396554Y56116D01*
X399754Y59316D01*
X399754Y59316D01*
X400754Y60534D01*
X401497Y61924D01*
X401954Y63432D01*
X402109Y65000D01*
Y65250D01*
X402538Y65507D01*
X403414Y65038D01*
X404628Y64670D01*
X405890Y64546D01*
X407152Y64670D01*
X408365Y65038D01*
X409483Y65636D01*
X410463Y66440D01*
X411268Y67421D01*
X411866Y68539D01*
X412234Y69752D01*
X412358Y71014D01*
X412234Y72276D01*
X411866Y73489D01*
X411268Y74608D01*
X410463Y75588D01*
X409483Y76392D01*
X409420Y76426D01*
Y90057D01*
X412332Y92970D01*
X416975D01*
Y90949D01*
X431236D01*
Y88200D01*
X431354Y87303D01*
X431024Y86927D01*
X429512D01*
X427944Y86773D01*
X426436Y86315D01*
X425046Y85572D01*
X423828Y84572D01*
X422828Y83354D01*
X422085Y81964D01*
X421628Y80457D01*
X421473Y78888D01*
X421628Y77320D01*
X422085Y75812D01*
X422828Y74422D01*
X423828Y73204D01*
X425046Y72204D01*
X426436Y71461D01*
X427944Y71004D01*
X429512Y70850D01*
X446248D01*
X446248Y70850D01*
X446326Y70857D01*
X446557Y70667D01*
X446582Y70168D01*
X442217Y65803D01*
X441576Y64968D01*
X441173Y63995D01*
X441036Y62950D01*
X441036Y62950D01*
Y17000D01*
X441036Y17000D01*
X441173Y15956D01*
X441576Y14983D01*
X442217Y14147D01*
X446717Y9647D01*
X447553Y9006D01*
X448526Y8603D01*
X449570Y8466D01*
X485170D01*
X485170Y8466D01*
X486214Y8603D01*
X487187Y9006D01*
X488023Y9647D01*
X527169Y48794D01*
X527631Y48602D01*
Y35949D01*
X519050Y27367D01*
X518050Y26149D01*
X517307Y24759D01*
X516850Y23251D01*
X516695Y21683D01*
X516850Y20114D01*
X517307Y18606D01*
X518050Y17217D01*
X519050Y15998D01*
X520268Y14999D01*
X521658Y14256D01*
X523166Y13798D01*
X524734Y13644D01*
X526302Y13798D01*
X527810Y14256D01*
X529200Y14999D01*
X530418Y15998D01*
X541354Y26934D01*
X541354Y26935D01*
X542354Y28153D01*
X543097Y29542D01*
X543554Y31051D01*
X543709Y32619D01*
Y63036D01*
X544138Y63293D01*
X544614Y63038D01*
X545828Y62670D01*
X547090Y62546D01*
X548352Y62670D01*
X549565Y63038D01*
X550683Y63636D01*
X551663Y64441D01*
X552468Y65421D01*
X553065Y66539D01*
X553434Y67752D01*
X553558Y69014D01*
X553434Y70276D01*
X553065Y71489D01*
X552468Y72608D01*
X551663Y73588D01*
X550683Y74392D01*
X550620Y74426D01*
Y87538D01*
X554052Y90970D01*
X557875D01*
Y88949D01*
X562890D01*
X563081Y88487D01*
X555717Y81123D01*
X555076Y80287D01*
X554673Y79314D01*
X554535Y78270D01*
X554536Y78270D01*
Y66750D01*
X554535Y66750D01*
X554673Y65705D01*
X555076Y64732D01*
X555717Y63897D01*
X558367Y61247D01*
X559202Y60606D01*
X560176Y60203D01*
X561220Y60066D01*
X589420D01*
X589420Y60066D01*
X590464Y60203D01*
X591437Y60606D01*
X592273Y61247D01*
X593640Y62614D01*
X594334Y62546D01*
X595596Y62670D01*
X596430Y62923D01*
X596831Y62625D01*
Y34848D01*
X588650Y26667D01*
X587650Y25449D01*
X586907Y24059D01*
X586450Y22551D01*
X586295Y20983D01*
X586450Y19414D01*
X586907Y17906D01*
X587650Y16517D01*
X588650Y15298D01*
X589868Y14299D01*
X591258Y13556D01*
X592766Y13098D01*
X594334Y12944D01*
X595902Y13098D01*
X597410Y13556D01*
X598800Y14299D01*
X600018Y15298D01*
X610554Y25835D01*
X610554Y25835D01*
X611554Y27053D01*
X612297Y28442D01*
X612754Y29950D01*
X612754Y29950D01*
X612754Y29950D01*
Y29950D01*
X612909Y31519D01*
X612909Y31519D01*
Y142400D01*
X612909Y142400D01*
X612754Y143968D01*
X612297Y145476D01*
X611554Y146866D01*
X610554Y148084D01*
X606954Y151684D01*
X605736Y152684D01*
X604346Y153427D01*
X602838Y153884D01*
X601270Y154039D01*
X601270Y154039D01*
X577957D01*
X576389Y153884D01*
X574881Y153427D01*
X573491Y152684D01*
X572273Y151684D01*
X559673Y139084D01*
X558673Y137866D01*
X557931Y136476D01*
X557473Y134968D01*
X557319Y133400D01*
X557473Y131832D01*
X557931Y130324D01*
X558673Y128934D01*
X559673Y127716D01*
X560891Y126716D01*
X562281Y125973D01*
X563789Y125516D01*
X565357Y125361D01*
X566926Y125516D01*
X568434Y125973D01*
X569824Y126716D01*
X571042Y127716D01*
X576565Y133239D01*
X577036Y133071D01*
X577158Y131832D01*
X577616Y130324D01*
X578359Y128934D01*
X579358Y127716D01*
X584431Y122643D01*
Y100051D01*
X557875D01*
Y98030D01*
X552590D01*
X551676Y97910D01*
X550825Y97557D01*
X550094Y96996D01*
X544593Y91496D01*
X544182Y90960D01*
X543709Y91121D01*
Y116287D01*
X543554Y117856D01*
X543097Y119364D01*
X542354Y120754D01*
X541354Y121972D01*
X537902Y125424D01*
X538116Y125876D01*
X538242Y125864D01*
X539713Y126008D01*
X541126Y126437D01*
X542429Y127134D01*
X543571Y128071D01*
X544509Y129213D01*
X545205Y130516D01*
X545634Y131930D01*
X545779Y133400D01*
X545634Y134870D01*
X545205Y136284D01*
X544509Y137587D01*
X543571Y138729D01*
X542429Y139666D01*
X541126Y140363D01*
X539713Y140791D01*
X538242Y140936D01*
X536772Y140791D01*
X535358Y140363D01*
X534056Y139666D01*
X532913Y138729D01*
X531976Y137587D01*
X531280Y136284D01*
X530851Y134870D01*
X530706Y133400D01*
X530719Y133273D01*
X530267Y133059D01*
X524242Y139084D01*
X523024Y140084D01*
X521634Y140827D01*
X520126Y141284D01*
X518558Y141439D01*
X516989Y141284D01*
X515481Y140827D01*
X514091Y140084D01*
X512873Y139084D01*
X511873Y137866D01*
X511131Y136476D01*
X510673Y134968D01*
X510519Y133400D01*
X510673Y131832D01*
X511131Y130324D01*
X511873Y128934D01*
X512873Y127716D01*
X527631Y112958D01*
Y88428D01*
X527169Y88236D01*
X517053Y98353D01*
X516217Y98994D01*
X515244Y99397D01*
X514200Y99534D01*
X514200Y99534D01*
X511925D01*
Y101051D01*
X485075D01*
Y99030D01*
X482870D01*
X481956Y98910D01*
X481105Y98557D01*
X480374Y97996D01*
X474994Y92616D01*
X474432Y91885D01*
X474080Y91033D01*
X473959Y90120D01*
Y75126D01*
X473896Y75092D01*
X472993Y74351D01*
X472541Y74565D01*
Y101430D01*
X497627Y126516D01*
X498626Y127734D01*
X499369Y129124D01*
X499827Y130632D01*
X499981Y132200D01*
X499827Y133768D01*
X499369Y135276D01*
X498626Y136666D01*
X497627Y137884D01*
X496409Y138884D01*
X495019Y139627D01*
X493511Y140084D01*
X491943Y140239D01*
X490374Y140084D01*
X488866Y139627D01*
X487476Y138884D01*
X486258Y137884D01*
X480735Y132360D01*
X480264Y132529D01*
X480142Y133768D01*
X479684Y135276D01*
X478941Y136666D01*
X477942Y137884D01*
X476723Y138884D01*
X475334Y139627D01*
X473826Y140084D01*
X472258Y140239D01*
X470689Y140084D01*
X469181Y139627D01*
X467791Y138884D01*
X466573Y137884D01*
X446786Y118097D01*
X445786Y116879D01*
X445043Y115489D01*
X444586Y113981D01*
X444431Y112413D01*
X444431Y112413D01*
Y88440D01*
X442918Y86927D01*
X439516D01*
X439186Y87303D01*
X439305Y88200D01*
Y90949D01*
X443825D01*
Y102051D01*
X416975D01*
Y100030D01*
X410870D01*
X409956Y99910D01*
X409105Y99557D01*
X408374Y98996D01*
X403393Y94016D01*
X402832Y93285D01*
X402599Y92722D01*
X402109Y92819D01*
Y98283D01*
X430342Y126516D01*
X431341Y127734D01*
X432084Y129124D01*
X432542Y130632D01*
X432696Y132200D01*
X432542Y133768D01*
X432084Y135276D01*
X431341Y136666D01*
X430342Y137884D01*
X429124Y138884D01*
X427734Y139627D01*
X426226Y140084D01*
X424657Y140239D01*
X423089Y140084D01*
X421581Y139627D01*
X420191Y138884D01*
X418973Y137884D01*
X388386Y107297D01*
X387386Y106079D01*
X386643Y104689D01*
X386186Y103181D01*
X386031Y101613D01*
X386031Y101612D01*
Y93028D01*
X385569Y92836D01*
X378753Y99653D01*
X377917Y100294D01*
X376944Y100697D01*
X375900Y100835D01*
X375900Y100835D01*
X374325D01*
Y102351D01*
X347475D01*
X347475Y102351D01*
Y102351D01*
X347445Y102349D01*
X347367Y102944D01*
X347000Y103830D01*
Y108601D01*
X349153D01*
Y116081D01*
Y126199D01*
X347230D01*
Y129200D01*
X347110Y130114D01*
X346757Y130965D01*
X346530Y131261D01*
Y132547D01*
X348453D01*
Y143453D01*
X337547D01*
Y141809D01*
X337074Y141648D01*
X336889Y141889D01*
X335750Y142763D01*
X334423Y143312D01*
X333000Y143500D01*
X331577Y143312D01*
X330250Y142763D01*
X329111Y141889D01*
X328250Y140767D01*
X327750D01*
X326889Y141889D01*
X325750Y142763D01*
X324424Y143312D01*
X323000Y143500D01*
X321577Y143312D01*
X320250Y142763D01*
X319111Y141889D01*
X318250Y140767D01*
X317750D01*
X316889Y141889D01*
X315750Y142763D01*
X314423Y143312D01*
X313000Y143500D01*
X312552Y143441D01*
X310096Y145896D01*
X309365Y146457D01*
X308829Y146679D01*
X308926Y147170D01*
X326040D01*
X326926Y146803D01*
X327970Y146666D01*
X329014Y146803D01*
X329987Y147206D01*
X330823Y147847D01*
X331464Y148683D01*
X331867Y149656D01*
X332005Y150700D01*
X331867Y151744D01*
X331464Y152717D01*
X330823Y153553D01*
X329987Y154194D01*
X329014Y154597D01*
X327970Y154735D01*
X326926Y154597D01*
X326040Y154230D01*
X275999D01*
Y156153D01*
D02*
G37*
G36*
X378457Y139736D02*
X376987Y139592D01*
X375573Y139163D01*
X374271Y138466D01*
X373129Y137529D01*
X372191Y136387D01*
X371495Y135084D01*
X371066Y133670D01*
X370921Y132200D01*
X371066Y130730D01*
X371495Y129316D01*
X372191Y128013D01*
X373129Y126871D01*
X374271Y125934D01*
X375573Y125237D01*
X376987Y124809D01*
X378457Y124664D01*
X379928Y124809D01*
X381342Y125237D01*
X382644Y125934D01*
X383786Y126871D01*
X384724Y128013D01*
X385420Y129316D01*
X385849Y130730D01*
X385994Y132200D01*
X385849Y133670D01*
X385420Y135084D01*
X384724Y136387D01*
X383786Y137529D01*
X382644Y138466D01*
X381342Y139163D01*
X379928Y139592D01*
X378457Y139736D01*
D02*
G37*
G36*
X398143D02*
X396672Y139592D01*
X395258Y139163D01*
X393955Y138466D01*
X392813Y137529D01*
X391876Y136387D01*
X391180Y135084D01*
X390751Y133670D01*
X390606Y132200D01*
X390751Y130730D01*
X391180Y129316D01*
X391876Y128013D01*
X392813Y126871D01*
X393955Y125934D01*
X395258Y125237D01*
X396672Y124809D01*
X398143Y124664D01*
X399613Y124809D01*
X401026Y125237D01*
X402329Y125934D01*
X403471Y126871D01*
X404409Y128013D01*
X405105Y129316D01*
X405534Y130730D01*
X405679Y132200D01*
X405534Y133670D01*
X405105Y135084D01*
X404409Y136387D01*
X403471Y137529D01*
X402329Y138466D01*
X401026Y139163D01*
X399613Y139592D01*
X398143Y139736D01*
D02*
G37*
G36*
X444343D02*
X442872Y139592D01*
X441459Y139163D01*
X440156Y138466D01*
X439013Y137529D01*
X438076Y136387D01*
X437380Y135084D01*
X436951Y133670D01*
X436806Y132200D01*
X436951Y130730D01*
X437380Y129316D01*
X438076Y128013D01*
X439013Y126871D01*
X440156Y125934D01*
X441459Y125237D01*
X442872Y124809D01*
X444343Y124664D01*
X445813Y124809D01*
X447226Y125237D01*
X448529Y125934D01*
X449671Y126871D01*
X450609Y128013D01*
X451305Y129316D01*
X451734Y130730D01*
X451879Y132200D01*
X451734Y133670D01*
X451305Y135084D01*
X450609Y136387D01*
X449671Y137529D01*
X448529Y138466D01*
X447226Y139163D01*
X445813Y139592D01*
X444343Y139736D01*
D02*
G37*
G36*
X52443Y124536D02*
X50972Y124391D01*
X49558Y123963D01*
X48256Y123266D01*
X47113Y122329D01*
X46176Y121187D01*
X45480Y119884D01*
X45051Y118470D01*
X44906Y117000D01*
X45051Y115530D01*
X45480Y114116D01*
X45777Y113559D01*
X45520Y113130D01*
X41620D01*
X39933Y114817D01*
X40149Y115530D01*
X40294Y117000D01*
X40149Y118470D01*
X39720Y119884D01*
X39024Y121187D01*
X38086Y122329D01*
X36944Y123266D01*
X35642Y123963D01*
X34228Y124391D01*
X32757Y124536D01*
X31287Y124391D01*
X29873Y123963D01*
X28571Y123266D01*
X27428Y122329D01*
X26491Y121187D01*
X25795Y119884D01*
X25366Y118470D01*
X25221Y117000D01*
X25366Y115530D01*
X25795Y114116D01*
X26491Y112813D01*
X27428Y111671D01*
X28571Y110734D01*
X29227Y110383D01*
Y98920D01*
X28904Y98596D01*
X28343Y97865D01*
X27990Y97014D01*
X27870Y96100D01*
Y83925D01*
X25849D01*
Y69280D01*
X27349D01*
Y68432D01*
X17174D01*
X13753Y71853D01*
X12917Y72494D01*
X11944Y72897D01*
X11400Y72969D01*
Y69000D01*
X10900D01*
Y68500D01*
X6931D01*
X7003Y67956D01*
X7406Y66983D01*
X8047Y66147D01*
X9280Y64915D01*
X9088Y64453D01*
X5447D01*
Y53547D01*
X12336D01*
Y46141D01*
X8047Y41853D01*
X7406Y41017D01*
X7003Y40044D01*
X6931Y39500D01*
X10900D01*
Y38500D01*
X6931D01*
X7003Y37956D01*
X7406Y36983D01*
X8047Y36147D01*
X9280Y34915D01*
X9088Y34453D01*
X5447D01*
Y23547D01*
X16353D01*
Y27188D01*
X16815Y27380D01*
X37247Y6947D01*
X37247Y6947D01*
X38083Y6306D01*
X38083Y6306D01*
X38083Y6306D01*
D01*
X38083Y6306D01*
X38083Y6306D01*
X39056Y5903D01*
X40100Y5765D01*
X40100Y5765D01*
X58870D01*
X58870Y5765D01*
X59914Y5903D01*
X60887Y6306D01*
X61723Y6947D01*
X68493Y13717D01*
X68493Y13717D01*
X69134Y14553D01*
X69537Y15526D01*
X69675Y16570D01*
X69675Y16570D01*
Y20427D01*
X70090Y20705D01*
X70138Y20686D01*
X70289Y20666D01*
X70434Y20618D01*
X70809Y20597D01*
X71182Y20548D01*
X80810D01*
Y18615D01*
X80810Y18615D01*
X80948Y17571D01*
X81351Y16598D01*
X81576Y16305D01*
X81625Y16240D01*
Y12500D01*
X85660D01*
Y11500D01*
X81625D01*
Y7710D01*
X81625Y7710D01*
X81763Y6666D01*
X82166Y5693D01*
X82807Y4857D01*
X84017Y3647D01*
X84853Y3006D01*
X85826Y2603D01*
X86870Y2465D01*
X126870D01*
X126870Y2465D01*
X127914Y2603D01*
X128887Y3006D01*
X129723Y3647D01*
X131853Y5777D01*
X131853Y5777D01*
X132494Y6613D01*
X132730Y7183D01*
X132897Y7586D01*
X133035Y8630D01*
X133035Y8630D01*
X133035Y8630D01*
Y8630D01*
Y11158D01*
X134331D01*
Y15595D01*
X129000D01*
Y16595D01*
X134331D01*
Y21032D01*
X134331D01*
Y21115D01*
X134684Y21469D01*
X135831D01*
Y34343D01*
X122169D01*
Y31531D01*
X121853Y31400D01*
X121490Y31121D01*
X121301Y30976D01*
X120853Y31198D01*
Y36799D01*
X120853Y36799D01*
X120853D01*
X120662Y37260D01*
X121981Y38579D01*
X133093D01*
Y45706D01*
X146510D01*
X146510Y45706D01*
X147555Y45843D01*
X148528Y46246D01*
X149363Y46887D01*
X202298Y99822D01*
X202415Y99786D01*
X203870Y99643D01*
X205325Y99786D01*
X206724Y100210D01*
X208013Y100900D01*
X209143Y101827D01*
X210070Y102957D01*
X210760Y104246D01*
X211184Y105645D01*
X211327Y107100D01*
X211184Y108555D01*
X210760Y109954D01*
X210070Y111243D01*
X209143Y112373D01*
X208013Y113300D01*
X206724Y113989D01*
X205325Y114414D01*
X203870Y114557D01*
X202415Y114414D01*
X201016Y113989D01*
X199727Y113300D01*
X198597Y112373D01*
X197670Y111243D01*
X196981Y109954D01*
X196556Y108555D01*
X196413Y107100D01*
X196556Y105645D01*
X196592Y105527D01*
X144839Y53775D01*
X127443D01*
X126399Y53637D01*
X125878Y53421D01*
X121794D01*
Y50160D01*
X121401Y49897D01*
X120357Y50034D01*
X104241D01*
X104006Y50270D01*
X103170Y50911D01*
X102896Y51025D01*
Y54642D01*
X84904D01*
Y51452D01*
X84241D01*
X83040Y52653D01*
X82205Y53294D01*
X81232Y53697D01*
X80187Y53834D01*
X80187Y53834D01*
X58450D01*
X58450Y53834D01*
X57406Y53697D01*
X56433Y53294D01*
X55597Y52653D01*
X55597Y52653D01*
X52900Y49956D01*
X50703Y52153D01*
X49867Y52794D01*
X48894Y53197D01*
X47850Y53334D01*
X47850Y53334D01*
X20600D01*
X20405Y53506D01*
Y60363D01*
X27349D01*
Y58575D01*
X30900D01*
Y64398D01*
X31900D01*
Y58575D01*
X35451D01*
Y62743D01*
X45276Y72568D01*
X49349D01*
Y71720D01*
X47849D01*
Y57075D01*
X58951D01*
Y60867D01*
X68349D01*
Y57075D01*
X79451D01*
Y61264D01*
X79635Y61340D01*
X80366Y61901D01*
X81466Y63001D01*
X81466Y63001D01*
X82027Y63732D01*
X82380Y64584D01*
X82500Y65498D01*
Y88542D01*
X82867Y89428D01*
X82974Y90238D01*
X83447Y90399D01*
X86699Y87147D01*
X86699D01*
X86699Y87147D01*
X86699Y87147D01*
Y87147D01*
X87535Y86506D01*
X88508Y86103D01*
X89552Y85966D01*
X95750D01*
Y84350D01*
X99392D01*
X99583Y83889D01*
X99327Y83633D01*
X99307Y83625D01*
X98440Y82960D01*
X97775Y82093D01*
X97357Y81083D01*
X97281Y80500D01*
X101400D01*
Y79500D01*
X97281D01*
X97357Y78917D01*
X97775Y77907D01*
X98440Y77040D01*
X99307Y76375D01*
X100160Y76022D01*
X100095Y75526D01*
X99925Y75504D01*
X98551Y74935D01*
X97371Y74029D01*
X96465Y72849D01*
X95896Y71475D01*
X95702Y70000D01*
X95896Y68525D01*
X96465Y67151D01*
X97371Y65971D01*
X98551Y65065D01*
X99925Y64496D01*
X101400Y64302D01*
X102875Y64496D01*
X104249Y65065D01*
X105429Y65971D01*
X106335Y67151D01*
X106904Y68525D01*
X107098Y70000D01*
X106904Y71475D01*
X106335Y72849D01*
X105429Y74029D01*
X104249Y74935D01*
X102875Y75504D01*
X102706Y75526D01*
X102640Y76022D01*
X103493Y76375D01*
X104360Y77040D01*
X105025Y77907D01*
X105033Y77927D01*
X109923Y82817D01*
X110564Y83653D01*
X110967Y84626D01*
X111105Y85670D01*
Y103767D01*
X110967Y104811D01*
X110872Y105042D01*
Y116000D01*
X110734Y117044D01*
X110331Y118017D01*
X109690Y118853D01*
X108854Y119494D01*
X107881Y119897D01*
X106837Y120035D01*
X105793Y119897D01*
X104820Y119494D01*
X104372Y119150D01*
X103924Y119372D01*
Y120961D01*
X94002D01*
Y111039D01*
X94929D01*
Y104137D01*
X94928Y104137D01*
X95066Y103093D01*
X95469Y102120D01*
X96110Y101284D01*
X97366Y100029D01*
Y95650D01*
X95750D01*
Y94034D01*
X91223D01*
X82507Y102750D01*
X81672Y103392D01*
X80699Y103795D01*
X80451Y103827D01*
Y104780D01*
Y119425D01*
X69349D01*
Y115633D01*
X64872D01*
X63959Y115512D01*
X63107Y115160D01*
X62376Y114599D01*
X60908Y113130D01*
X59364D01*
X59107Y113559D01*
X59405Y114116D01*
X59834Y115530D01*
X59979Y117000D01*
X59834Y118470D01*
X59405Y119884D01*
X58709Y121187D01*
X57771Y122329D01*
X56629Y123266D01*
X55326Y123963D01*
X53913Y124391D01*
X52443Y124536D01*
D02*
G37*
G36*
X125130Y113072D02*
X123584Y112869D01*
X122144Y112272D01*
X120907Y111323D01*
X119958Y110086D01*
X119361Y108646D01*
X119158Y107100D01*
X119361Y105554D01*
X119958Y104114D01*
X120907Y102877D01*
X122144Y101928D01*
X123584Y101331D01*
X125130Y101128D01*
X126676Y101331D01*
X128116Y101928D01*
X129353Y102877D01*
X130302Y104114D01*
X130899Y105554D01*
X131102Y107100D01*
X130899Y108646D01*
X130302Y110086D01*
X129353Y111323D01*
X128116Y112272D01*
X126676Y112869D01*
X125130Y113072D01*
D02*
G37*
%LPD*%
G36*
X250570Y137466D02*
Y133070D01*
X250570Y133070D01*
X250570D01*
X250690Y132156D01*
X251043Y131305D01*
X251604Y130574D01*
X257070Y125108D01*
X257801Y124547D01*
X258652Y124194D01*
X258701Y124188D01*
Y116247D01*
X260230D01*
Y115767D01*
X248780Y105511D01*
X248435Y105654D01*
X247269Y105807D01*
X243332D01*
X243180Y105787D01*
X242805Y106117D01*
Y111565D01*
X245900D01*
X246944Y111703D01*
X247917Y112106D01*
X248753Y112747D01*
X248760Y112756D01*
X249366Y113007D01*
X249986Y113483D01*
X250462Y114103D01*
X250761Y114825D01*
X250797Y115100D01*
X245900D01*
Y116093D01*
X247869D01*
X247924Y116100D01*
X250797D01*
X250761Y116375D01*
X250505Y116991D01*
X251056Y117413D01*
X251772Y118347D01*
X252222Y119433D01*
X252376Y120600D01*
X252222Y121766D01*
X251772Y122854D01*
X251583Y123100D01*
X251772Y123346D01*
X252222Y124434D01*
X252376Y125600D01*
X252222Y126767D01*
X251772Y127854D01*
X251056Y128787D01*
X250122Y129503D01*
X249035Y129954D01*
X247869Y130107D01*
X243932D01*
X243780Y130087D01*
X243405Y130417D01*
Y135565D01*
X245900D01*
X246944Y135703D01*
X247917Y136106D01*
X248753Y136747D01*
X248760Y136756D01*
X249366Y137007D01*
X249986Y137483D01*
X250096Y137627D01*
X250570Y137466D01*
D02*
G37*
G36*
X62069Y36469D02*
X63569D01*
Y36031D01*
X63569D01*
Y31594D01*
X74231D01*
Y36031D01*
X74231D01*
Y36115D01*
X74584Y36469D01*
X75731D01*
Y38871D01*
X76598D01*
X81616Y33849D01*
X81617Y33848D01*
X81617Y33847D01*
X82046Y33518D01*
X82451Y33207D01*
X82452Y33207D01*
X82453Y33206D01*
X82949Y33000D01*
X83424Y32803D01*
X83425Y32803D01*
X83426Y32803D01*
X83954Y32733D01*
X84468Y32666D01*
X84469Y32666D01*
X84470Y32666D01*
X84992Y32734D01*
X85513Y32803D01*
X85513Y32803D01*
X85514Y32803D01*
X86002Y33005D01*
X86486Y33205D01*
X86487Y33206D01*
X86487Y33206D01*
X86918Y33536D01*
X87322Y33846D01*
X87322Y33847D01*
X87323Y33847D01*
X87656Y34281D01*
X87963Y34681D01*
X87963Y34682D01*
X87964Y34683D01*
X88171Y35183D01*
X88367Y35654D01*
X88367Y35655D01*
X88367Y35656D01*
X88437Y36185D01*
X88505Y36698D01*
X88504Y36699D01*
X88505Y36700D01*
X88436Y37220D01*
X88368Y37742D01*
X88367Y37743D01*
X88367Y37744D01*
X88168Y38225D01*
X87965Y38716D01*
X87964Y38716D01*
X87964Y38717D01*
X87642Y39137D01*
X87324Y39551D01*
X87323Y39553D01*
X87323Y39553D01*
X87323Y39553D01*
X87145Y39731D01*
X87336Y40193D01*
X89866D01*
Y31807D01*
X89432D01*
Y20233D01*
X89286Y20184D01*
X88879Y20475D01*
Y24583D01*
X88742Y25627D01*
X88339Y26600D01*
X87813Y27285D01*
Y30307D01*
X85345D01*
Y24583D01*
X84345D01*
Y30307D01*
X81876D01*
Y28617D01*
X74231D01*
Y30594D01*
X63569D01*
Y28035D01*
X62787Y27253D01*
X62173Y26453D01*
X61690D01*
Y31490D01*
X61570Y32404D01*
X61217Y33255D01*
X60656Y33986D01*
X57927Y36715D01*
Y38625D01*
X57820Y39441D01*
X57505Y40201D01*
X57275Y40500D01*
X57505Y40799D01*
X57820Y41559D01*
X57927Y42375D01*
Y43571D01*
X60121Y45766D01*
X62069D01*
Y36469D01*
D02*
G37*
G36*
X69349Y104780D02*
Y92575D01*
X70866D01*
Y90316D01*
X70406Y89717D01*
X70003Y88744D01*
X69866Y87700D01*
X69866Y87700D01*
Y83925D01*
X68349D01*
Y69280D01*
Y67928D01*
X58951D01*
Y71720D01*
X57451D01*
Y76102D01*
X53400D01*
Y76602D01*
X52900D01*
Y82425D01*
X49349D01*
Y80637D01*
X43605D01*
X42561Y80500D01*
X41588Y80096D01*
X41225Y79818D01*
X40752Y79455D01*
X40752Y79455D01*
X37413Y76116D01*
X36951Y76308D01*
Y83925D01*
X34930D01*
Y94638D01*
X35254Y94961D01*
X35815Y95692D01*
X36167Y96544D01*
X36288Y97457D01*
X36288Y97457D01*
X36288Y97457D01*
Y97457D01*
Y107824D01*
X36750Y108015D01*
X37661Y107104D01*
X38392Y106543D01*
X39244Y106190D01*
X40157Y106070D01*
X62370D01*
X63284Y106190D01*
X64135Y106543D01*
X64866Y107104D01*
X66335Y108572D01*
X69349D01*
Y104780D01*
D02*
G37*
%LPC*%
G36*
X57451Y82425D02*
X53900D01*
Y77102D01*
X57451D01*
Y82425D01*
D02*
G37*
%LPD*%
D10*
X58160Y21000D02*
D03*
X65640D02*
D03*
X271240Y121700D02*
D03*
X263760D02*
D03*
X270940Y150700D02*
D03*
X263460D02*
D03*
X271240Y136600D02*
D03*
X263760D02*
D03*
X85660Y12000D02*
D03*
X93140D02*
D03*
D11*
X74900Y99898D02*
D03*
Y112102D02*
D03*
X73900Y76602D02*
D03*
Y64398D02*
D03*
X31400Y76602D02*
D03*
Y64398D02*
D03*
X53400D02*
D03*
Y76602D02*
D03*
D12*
X120357Y46000D02*
D03*
X127443Y49740D02*
D03*
Y42260D02*
D03*
D13*
X115400Y24260D02*
D03*
Y31740D02*
D03*
X343700Y121140D02*
D03*
Y113660D02*
D03*
X333600Y121140D02*
D03*
Y113660D02*
D03*
D14*
X129000Y27906D02*
D03*
Y16095D02*
D03*
X68900Y42906D02*
D03*
Y31094D02*
D03*
D15*
X294002Y98200D02*
D03*
X281798D02*
D03*
X577402Y94500D02*
D03*
X565198D02*
D03*
X504602Y95500D02*
D03*
X492398D02*
D03*
X367002Y96800D02*
D03*
X354798D02*
D03*
X436502Y96500D02*
D03*
X424298D02*
D03*
D16*
X93900Y47417D02*
D03*
D17*
X102955Y24583D02*
D03*
X93900D02*
D03*
X84845D02*
D03*
D18*
X52900Y44250D02*
D03*
Y36750D02*
D03*
D19*
X254100Y133070D02*
X259566Y127604D01*
X254100Y133070D02*
Y143981D01*
X248481Y149600D02*
X254100Y143981D01*
X245900Y149600D02*
X248481D01*
X343470Y101900D02*
Y113660D01*
X281870Y98200D02*
Y125000D01*
X248481Y149600D02*
X254070D01*
X240300Y62400D02*
Y85500D01*
X225600Y100200D02*
X240300Y85500D01*
X235300Y42300D02*
X256870Y20730D01*
X235300Y42300D02*
Y62400D01*
X330270Y16600D02*
Y105400D01*
X333600Y108730D01*
Y113660D01*
X477490Y69714D02*
Y90120D01*
X482870Y95500D01*
X492398D01*
X245300Y101300D02*
X249370D01*
X251670Y99000D01*
Y46000D02*
Y99000D01*
Y46000D02*
X261770Y35900D01*
X249370Y101300D02*
X263760Y114190D01*
Y121700D01*
X259566Y127604D02*
X279266D01*
X281870Y125000D01*
X281798Y98200D02*
X281870D01*
X73900Y64398D02*
X77870D01*
X78970Y65498D01*
Y90472D01*
X64872Y112102D02*
X74900D01*
X62370Y109600D02*
X64872Y112102D01*
X40157Y109600D02*
X62370D01*
X32757Y117000D02*
X40157Y109600D01*
X120670Y42260D02*
X127443D01*
X115400Y36990D02*
X120670Y42260D01*
X115400Y31740D02*
Y36990D01*
X270940Y150700D02*
X327970D01*
X271240Y136600D02*
X283670D01*
X290470Y143400D01*
X307600D01*
X313000Y138000D01*
X263760Y132757D02*
X264870Y131647D01*
X263760Y132757D02*
Y136600D01*
X275670Y123000D02*
Y124100D01*
X274370Y121700D02*
X275670Y123000D01*
X271240Y121700D02*
X274370D01*
X343470Y113660D02*
X343700D01*
X214700Y63300D02*
Y79300D01*
X225600Y90200D01*
X342870Y96800D02*
X354798D01*
X336290Y90220D02*
X342870Y96800D01*
X336290Y72314D02*
Y90220D01*
X410870Y96500D02*
X424298D01*
X405890Y91520D02*
X410870Y96500D01*
X405890Y71014D02*
Y91520D01*
X547090Y69014D02*
Y89000D01*
X552590Y94500D01*
X565198D01*
X270090Y98200D02*
X281798D01*
X264890Y93000D02*
X270090Y98200D01*
X264890Y72114D02*
Y93000D01*
X52900Y36750D02*
X58160Y31490D01*
Y21000D02*
Y31490D01*
X255170Y150700D02*
X263460D01*
X254070Y149600D02*
X255170Y150700D01*
X343000Y129900D02*
Y138000D01*
Y129900D02*
X343700Y129200D01*
Y121140D02*
Y129200D01*
X333000Y129800D02*
Y138000D01*
Y129800D02*
X333600Y129200D01*
Y121140D02*
Y129200D01*
X53400Y64398D02*
X73900D01*
X32757Y97457D02*
Y117000D01*
X31400Y96100D02*
X32757Y97457D01*
X31400Y76602D02*
Y96100D01*
D20*
X504602Y95500D02*
X514200D01*
X524734Y84966D01*
Y69714D02*
Y84966D01*
Y52064D02*
Y69714D01*
X485170Y12500D02*
X524734Y52064D01*
X589420Y64100D02*
X594334Y69014D01*
X561220Y64100D02*
X589420D01*
X558570Y66750D02*
X561220Y64100D01*
X577402Y91402D02*
Y94500D01*
X574949Y88949D02*
X577402Y91402D01*
X569249Y88949D02*
X574949D01*
X558570Y78270D02*
X569249Y88949D01*
X558570Y66750D02*
Y78270D01*
X383534Y72314D02*
Y89166D01*
X375900Y96800D02*
X383534Y89166D01*
X367002Y96800D02*
X375900D01*
X350870Y88200D02*
X362100D01*
X367002Y93102D02*
Y96800D01*
X362100Y88200D02*
X367002Y93102D01*
X311970Y10500D02*
X342870D01*
X304070Y18400D02*
Y64050D01*
Y18400D02*
X311970Y10500D01*
X93900Y12000D02*
X117070D01*
X93900D02*
Y24583D01*
X435270Y88200D02*
Y96500D01*
X293970Y90278D02*
Y98200D01*
X240770Y115600D02*
X240870D01*
X123870Y27906D02*
X129000D01*
X122070Y26106D02*
X123870Y27906D01*
X122070Y17000D02*
Y26106D01*
X117070Y12000D02*
X122070Y17000D01*
X82570Y47417D02*
X93900D01*
X80187Y49800D02*
X82570Y47417D01*
X58450Y49800D02*
X80187D01*
X52900Y44250D02*
X58450Y49800D01*
X68900Y42906D02*
X78270D01*
X84470Y36700D01*
X102955Y24583D02*
Y36700D01*
X109293Y24260D02*
X115400D01*
X102955Y24583D02*
X109293Y24260D01*
X435270Y96500D02*
X436502D01*
X449570Y12500D02*
X485170D01*
X445070Y17000D02*
X449570Y12500D01*
X445070Y17000D02*
Y62950D01*
X453134Y71014D01*
X71182Y24583D02*
X84845D01*
X68900Y31094D02*
X71182Y24583D01*
X15503Y64398D02*
X16370Y63530D01*
Y44470D02*
Y63530D01*
X10900Y39000D02*
X16370Y44470D01*
X43605Y76602D02*
X53400D01*
X31400Y64398D02*
X43605Y76602D01*
X15503Y64398D02*
X31400D01*
X10900Y69000D02*
X15503Y64398D01*
X127443Y49740D02*
X146510D01*
X203870Y107100D01*
X93900Y47417D02*
X101153D01*
X102570Y46000D01*
X120357D01*
X20600Y49300D02*
X47850D01*
X52900Y44250D01*
X89552Y90000D02*
X101400D01*
X79655Y99898D02*
X89552Y90000D01*
X74900Y99898D02*
X79655D01*
X304070Y64050D02*
X312134Y72114D01*
X342870Y10500D02*
X346870Y14500D01*
Y84200D01*
X350870Y88200D01*
X85660Y7710D02*
Y12000D01*
Y7710D02*
X86870Y6500D01*
X126870D01*
X129000Y8630D01*
Y16095D01*
X65640Y16570D02*
Y21000D01*
X58870Y9800D02*
X65640Y16570D01*
X40100Y9800D02*
X58870D01*
X10900Y39000D02*
X40100Y9800D01*
X293970Y98200D02*
X294002D01*
X293970Y90278D02*
X312134Y72114D01*
X106837Y104000D02*
Y116000D01*
Y104000D02*
X107070Y103767D01*
Y85670D02*
Y103767D01*
X101400Y80000D02*
X107070Y85670D01*
X93140Y12000D02*
X93900D01*
X240870Y91300D02*
X245300D01*
X238770Y93400D02*
X240870Y91300D01*
X238770Y93400D02*
Y113500D01*
X240870Y115600D01*
X245900D01*
X239370Y117000D02*
X240770Y115600D01*
X239370Y117000D02*
Y138100D01*
X240870Y139600D01*
X245900D01*
X93900Y24583D02*
Y47417D01*
X245300Y62400D02*
Y91300D01*
X84845Y18615D02*
Y24583D01*
Y18615D02*
X85660Y17800D01*
Y12000D02*
Y17800D01*
X68900Y27660D02*
Y31094D01*
X65640Y24400D02*
X68900Y27660D01*
X65640Y21000D02*
Y24400D01*
X98963Y104137D02*
Y116000D01*
Y104137D02*
X101400Y101700D01*
Y90000D02*
Y101700D01*
X74900Y88700D02*
Y99898D01*
X73900Y87700D02*
X74900Y88700D01*
X73900Y76602D02*
Y87700D01*
D21*
X518558Y133400D02*
X535670Y116287D01*
Y32619D02*
Y116287D01*
X524734Y21683D02*
X535670Y32619D01*
X464502Y104760D02*
X491943Y132200D01*
X464502Y34351D02*
Y104760D01*
X453134Y22983D02*
X464502Y34351D01*
X322670Y34619D02*
Y97000D01*
X312134Y24083D02*
X322670Y34619D01*
X394070Y101613D02*
X424657Y132200D01*
X394070Y65000D02*
Y101613D01*
X390870Y61800D02*
X394070Y65000D01*
X378300Y61800D02*
X390870D01*
X359912Y80188D02*
X378300Y61800D01*
X452470Y112413D02*
X472258Y132200D01*
X452470Y85111D02*
Y112413D01*
X446248Y78888D02*
X452470Y85111D01*
X429512Y78888D02*
X446248D01*
X585042Y133400D02*
X592470Y125972D01*
Y91700D02*
Y125972D01*
X577658Y76888D02*
X592470Y91700D01*
X570712Y76888D02*
X577658D01*
X594334Y20983D02*
X604870Y31519D01*
Y142400D01*
X601270Y146000D02*
X604870Y142400D01*
X577957Y146000D02*
X601270D01*
X565357Y133400D02*
X577957Y146000D01*
D22*
X10900Y39000D02*
D03*
X225600Y100200D02*
D03*
Y110200D02*
D03*
Y120200D02*
D03*
Y130200D02*
D03*
X333000Y138000D02*
D03*
X323000D02*
D03*
X313000D02*
D03*
X303000D02*
D03*
X10900Y69000D02*
D03*
D23*
Y29000D02*
D03*
X225600Y90200D02*
D03*
X10900Y59000D02*
D03*
D24*
X245300Y91300D02*
D03*
Y96300D02*
D03*
X245900Y115600D02*
D03*
Y120600D02*
D03*
Y139600D02*
D03*
Y144600D02*
D03*
D25*
X245300Y101300D02*
D03*
X245900Y125600D02*
D03*
Y149600D02*
D03*
D26*
X398143Y132200D02*
D03*
X378457D02*
D03*
X491943D02*
D03*
X472258D02*
D03*
X32757Y117000D02*
D03*
X52443D02*
D03*
X444343Y132200D02*
D03*
X424657D02*
D03*
X565357Y133400D02*
D03*
X585042D02*
D03*
X518558D02*
D03*
X538242D02*
D03*
D27*
X405890Y22983D02*
D03*
Y71014D02*
D03*
X453134Y22983D02*
D03*
Y71014D02*
D03*
X429512Y78888D02*
D03*
X336290Y24283D02*
D03*
Y72314D02*
D03*
X383534Y24283D02*
D03*
Y72314D02*
D03*
X359912Y80188D02*
D03*
X264890Y24083D02*
D03*
Y72114D02*
D03*
X312134Y24083D02*
D03*
Y72114D02*
D03*
X288512Y79988D02*
D03*
X547090Y20983D02*
D03*
Y69014D02*
D03*
X594334Y20983D02*
D03*
Y69014D02*
D03*
X570712Y76888D02*
D03*
X477490Y21683D02*
D03*
Y69714D02*
D03*
X524734Y21683D02*
D03*
Y69714D02*
D03*
X501112Y77588D02*
D03*
D28*
X343000Y138000D02*
D03*
D29*
X203870Y107100D02*
D03*
X125130D02*
D03*
D30*
X106837Y116000D02*
D03*
D31*
X98963D02*
D03*
D32*
X101400Y70000D02*
D03*
Y80000D02*
D03*
D33*
Y90000D02*
D03*
D34*
X219700Y63300D02*
D03*
X214700D02*
D03*
X245300Y62400D02*
D03*
X240300D02*
D03*
D35*
X209700Y63300D02*
D03*
X235300Y62400D02*
D03*
D36*
X84470Y36700D02*
D03*
X102955D02*
D03*
X435270Y88200D02*
D03*
X322670Y97000D02*
D03*
X256870Y20730D02*
D03*
X330270Y16600D02*
D03*
X261770Y35900D02*
D03*
X78970Y90472D02*
D03*
X20600Y49300D02*
D03*
X327970Y150700D02*
D03*
X264870Y131647D02*
D03*
X275670Y124100D02*
D03*
X343470Y101900D02*
D03*
X78270Y42906D02*
D03*
M02*
