%FSLAX25Y25*%
%MOIN*%
G70*
G01*
G75*
G04 Layer_Color=8421504*
%ADD10R,0.05118X0.05906*%
%ADD11R,0.06102X0.09646*%
%ADD12R,0.06299X0.02362*%
%ADD13R,0.05906X0.05118*%
%ADD14R,0.08661X0.07874*%
%ADD15R,0.09646X0.06102*%
%ADD16R,0.12992X0.09449*%
%ADD17R,0.03937X0.09449*%
G04:AMPARAMS|DCode=18|XSize=50mil|YSize=50mil|CornerRadius=6.25mil|HoleSize=0mil|Usage=FLASHONLY|Rotation=270.000|XOffset=0mil|YOffset=0mil|HoleType=Round|Shape=RoundedRectangle|*
%AMROUNDEDRECTD18*
21,1,0.05000,0.03750,0,0,270.0*
21,1,0.03750,0.05000,0,0,270.0*
1,1,0.01250,-0.01875,-0.01875*
1,1,0.01250,-0.01875,0.01875*
1,1,0.01250,0.01875,0.01875*
1,1,0.01250,0.01875,-0.01875*
%
%ADD18ROUNDEDRECTD18*%
%ADD19C,0.02000*%
%ADD20C,0.03000*%
%ADD21C,0.11000*%
%ADD22C,0.05906*%
%ADD23R,0.05906X0.05906*%
%ADD24O,0.07874X0.03937*%
%ADD25O,0.07874X0.03937*%
%ADD26C,0.10000*%
%ADD27C,0.07874*%
%ADD28R,0.05906X0.05906*%
%ADD29C,0.09843*%
%ADD30C,0.04921*%
%ADD31R,0.04921X0.04921*%
%ADD32C,0.06299*%
%ADD33R,0.06299X0.06299*%
%ADD34O,0.03937X0.07874*%
%ADD35O,0.03937X0.07874*%
%ADD36C,0.03000*%
%ADD37C,0.07874*%
%ADD38C,0.00984*%
%ADD39C,0.00787*%
%ADD40C,0.01000*%
%ADD41C,0.00500*%
%ADD42C,0.00300*%
D10*
X58160Y21000D02*
D03*
X65640D02*
D03*
X271240Y121700D02*
D03*
X263760D02*
D03*
X270940Y150700D02*
D03*
X263460D02*
D03*
X271240Y136600D02*
D03*
X263760D02*
D03*
X85660Y12000D02*
D03*
X93140D02*
D03*
D11*
X74900Y99898D02*
D03*
Y112102D02*
D03*
X73900Y76602D02*
D03*
Y64398D02*
D03*
X31400Y76602D02*
D03*
Y64398D02*
D03*
X53400D02*
D03*
Y76602D02*
D03*
D12*
X120357Y46000D02*
D03*
X127443Y49740D02*
D03*
Y42260D02*
D03*
D13*
X115400Y24260D02*
D03*
Y31740D02*
D03*
X343700Y121140D02*
D03*
Y113660D02*
D03*
X333600Y121140D02*
D03*
Y113660D02*
D03*
D14*
X129000Y27906D02*
D03*
Y16095D02*
D03*
X68900Y42906D02*
D03*
Y31094D02*
D03*
D15*
X294002Y98200D02*
D03*
X281798D02*
D03*
X577402Y94500D02*
D03*
X565198D02*
D03*
X504602Y95500D02*
D03*
X492398D02*
D03*
X367002Y96800D02*
D03*
X354798D02*
D03*
X436502Y96500D02*
D03*
X424298D02*
D03*
D16*
X93900Y47417D02*
D03*
D17*
X102955Y24583D02*
D03*
X93900D02*
D03*
X84845D02*
D03*
D18*
X52900Y44250D02*
D03*
Y36750D02*
D03*
M02*
