%FSLAX25Y25*%
%MOIN*%
G70*
G01*
G75*
G04 Layer_Color=65535*
%ADD10R,0.05118X0.05906*%
%ADD11R,0.06102X0.09646*%
%ADD12R,0.06299X0.02362*%
%ADD13R,0.05906X0.05118*%
%ADD14R,0.08661X0.07874*%
%ADD15R,0.09646X0.06102*%
%ADD16R,0.12992X0.09449*%
%ADD17R,0.03937X0.09449*%
G04:AMPARAMS|DCode=18|XSize=50mil|YSize=50mil|CornerRadius=6.25mil|HoleSize=0mil|Usage=FLASHONLY|Rotation=270.000|XOffset=0mil|YOffset=0mil|HoleType=Round|Shape=RoundedRectangle|*
%AMROUNDEDRECTD18*
21,1,0.05000,0.03750,0,0,270.0*
21,1,0.03750,0.05000,0,0,270.0*
1,1,0.01250,-0.01875,-0.01875*
1,1,0.01250,-0.01875,0.01875*
1,1,0.01250,0.01875,0.01875*
1,1,0.01250,0.01875,-0.01875*
%
%ADD18ROUNDEDRECTD18*%
%ADD19C,0.02000*%
%ADD20C,0.03000*%
%ADD21C,0.11000*%
%ADD22C,0.05906*%
%ADD23R,0.05906X0.05906*%
%ADD24O,0.07874X0.03937*%
%ADD25O,0.07874X0.03937*%
%ADD26C,0.10000*%
%ADD27C,0.07874*%
%ADD28R,0.05906X0.05906*%
%ADD29C,0.09843*%
%ADD30C,0.04921*%
%ADD31R,0.04921X0.04921*%
%ADD32C,0.06299*%
%ADD33R,0.06299X0.06299*%
%ADD34O,0.03937X0.07874*%
%ADD35O,0.03937X0.07874*%
%ADD36C,0.03000*%
%ADD37C,0.07874*%
%ADD38C,0.00984*%
%ADD39C,0.00787*%
%ADD40C,0.01000*%
%ADD41C,0.00500*%
%ADD42C,0.00300*%
D38*
X80609Y94386D02*
G03*
X80609Y94386I-492J0D01*
G01*
X127935Y38913D02*
G03*
X127935Y38913I-492J0D01*
G01*
X135398Y32630D02*
G03*
X135398Y32630I-492J0D01*
G01*
X300006Y103417D02*
G03*
X300006Y103417I-492J0D01*
G01*
X69176Y82114D02*
G03*
X69176Y82114I-492J0D01*
G01*
X81203Y24583D02*
G03*
X81203Y24583I-492J0D01*
G01*
X583406Y99717D02*
G03*
X583406Y99717I-492J0D01*
G01*
X75298Y47630D02*
G03*
X75298Y47630I-492J0D01*
G01*
X510606Y100716D02*
G03*
X510606Y100716I-492J0D01*
G01*
X373006Y102016D02*
G03*
X373006Y102016I-492J0D01*
G01*
X26676Y82114D02*
G03*
X26676Y82114I-492J0D01*
G01*
X59109Y58886D02*
G03*
X59109Y58886I-492J0D01*
G01*
X442506Y101716D02*
G03*
X442506Y101716I-492J0D01*
G01*
D39*
X238998Y88234D02*
G03*
X238998Y104366I6302J8066D01*
G01*
X112742Y116000D02*
G03*
X112742Y116000I-9843J0D01*
G01*
X239598Y112534D02*
G03*
X239598Y128666I6302J8066D01*
G01*
X222766Y56998D02*
G03*
X206634Y56998I-8066J6302D01*
G01*
X248366Y56098D02*
G03*
X232234Y56098I-8066J6302D01*
G01*
X239598Y136534D02*
G03*
X239598Y152666I6302J8066D01*
G01*
X5900Y24000D02*
Y44000D01*
Y24000D02*
X15900D01*
Y44000D01*
X5900D02*
X15900D01*
X69191Y96945D02*
X70274D01*
X69191Y115055D02*
X70274D01*
X79526Y96945D02*
X80609D01*
X79526Y115055D02*
X80609D01*
X69191Y96945D02*
Y115055D01*
X80609Y96945D02*
Y115055D01*
X121144Y48756D02*
Y51906D01*
X122719D01*
X121144Y40094D02*
Y43244D01*
Y40094D02*
X122719D01*
X239001Y88465D02*
Y104135D01*
X134709Y23969D02*
Y29284D01*
Y14717D02*
X134906D01*
X123292Y23969D02*
Y29284D01*
X123094Y14717D02*
X123292D01*
X134906D02*
Y29284D01*
X123094Y14717D02*
Y29284D01*
X296955Y92491D02*
Y93574D01*
X278845Y92491D02*
Y93574D01*
X296955Y102826D02*
Y103909D01*
X278845Y102826D02*
Y103909D01*
Y92491D02*
X296955D01*
X278845Y103909D02*
X296955D01*
X220600Y135200D02*
X230600D01*
Y85200D02*
Y135200D01*
X220600Y85200D02*
Y135200D01*
Y85200D02*
X230600D01*
X298000Y133000D02*
Y143000D01*
X348000D01*
X298000Y133000D02*
X348000D01*
Y143000D01*
X92739Y59724D02*
X112030D01*
X92739Y100276D02*
X112030D01*
X92739Y59724D02*
Y100276D01*
X112030Y59724D02*
Y100276D01*
X110062Y59724D02*
Y100276D01*
X78526Y79555D02*
X79609D01*
X78526Y61445D02*
X79609D01*
X68191Y79555D02*
X69274D01*
X68191Y61445D02*
X69274D01*
X79609D02*
Y79555D01*
X68191Y61445D02*
Y79555D01*
X107089Y30488D02*
Y41512D01*
X80711Y30488D02*
Y41512D01*
X107089D01*
X80711Y30488D02*
X107089D01*
X580355Y88791D02*
Y89874D01*
X562245Y88791D02*
Y89874D01*
X580355Y99126D02*
Y100209D01*
X562245Y99126D02*
Y100209D01*
Y88791D02*
X580355D01*
X562245Y100209D02*
X580355D01*
X5900Y54000D02*
Y74000D01*
Y54000D02*
X15900D01*
Y74000D01*
X5900D02*
X15900D01*
X74609Y38969D02*
Y44283D01*
Y29717D02*
X74805D01*
X63191Y38969D02*
Y44283D01*
X62994Y29717D02*
X63191D01*
X74805D02*
Y44283D01*
X62994Y29717D02*
Y44283D01*
X507555Y89791D02*
Y90874D01*
X489445Y89791D02*
Y90874D01*
X507555Y100126D02*
Y101209D01*
X489445Y100126D02*
Y101209D01*
Y89791D02*
X507555D01*
X489445Y101209D02*
X507555D01*
X81920Y9441D02*
Y14559D01*
X239601Y112765D02*
Y128435D01*
X369955Y91091D02*
Y92174D01*
X351845Y91091D02*
Y92174D01*
X369955Y101426D02*
Y102509D01*
X351845Y101426D02*
Y102509D01*
Y91091D02*
X369955D01*
X351845Y102509D02*
X369955D01*
X36026Y79555D02*
X37109D01*
X36026Y61445D02*
X37109D01*
X25691Y79555D02*
X26774D01*
X25691Y61445D02*
X26774D01*
X37109D02*
Y79555D01*
X25691Y61445D02*
Y79555D01*
X47691Y61445D02*
X48774D01*
X47691Y79555D02*
X48774D01*
X58026Y61445D02*
X59109D01*
X58026Y79555D02*
X59109D01*
X47691Y61445D02*
Y79555D01*
X59109Y61445D02*
Y79555D01*
X439455Y90791D02*
Y91874D01*
X421345Y90791D02*
Y91874D01*
X439455Y101126D02*
Y102209D01*
X421345Y101126D02*
Y102209D01*
Y90791D02*
X439455D01*
X421345Y102209D02*
X439455D01*
X206865Y57001D02*
X222535D01*
X232465Y56101D02*
X248135D01*
X239601Y136765D02*
Y152435D01*
D40*
X212535Y107100D02*
G03*
X212535Y107100I-48031J0D01*
G01*
X368500Y110916D02*
Y154700D01*
X408100D01*
X408185Y110900D02*
Y154641D01*
X368700Y110900D02*
X408100D01*
X460024Y9203D02*
Y84400D01*
X399000Y9203D02*
Y84400D01*
X460024D01*
X399000Y9203D02*
X460024D01*
X462300Y110916D02*
Y154700D01*
X501900D01*
X501985Y110900D02*
Y154641D01*
X462500Y110900D02*
X501900D01*
X390424Y10503D02*
Y85700D01*
X329400Y10503D02*
Y85700D01*
X390424D01*
X329400Y10503D02*
X390424D01*
X62400Y94500D02*
Y138284D01*
X22800Y94500D02*
X62400D01*
X22715Y94559D02*
Y138300D01*
X22800D02*
X62200D01*
X319024Y10303D02*
Y85500D01*
X258000Y10303D02*
Y85500D01*
X319024D01*
X258000Y10303D02*
X319024D01*
X414700Y110916D02*
Y154700D01*
X454300D01*
X454385Y110900D02*
Y154641D01*
X414900Y110900D02*
X454300D01*
X595000D02*
Y154684D01*
X555400Y110900D02*
X595000D01*
X555315Y110959D02*
Y154700D01*
X555400D02*
X594800D01*
X601224Y7203D02*
Y82400D01*
X540200Y7203D02*
Y82400D01*
X601224D01*
X540200Y7203D02*
X601224D01*
X548200Y110900D02*
Y154684D01*
X508600Y110900D02*
X548200D01*
X508515Y110959D02*
Y154700D01*
X508600D02*
X548000D01*
X531624Y7903D02*
Y83100D01*
X470600Y7903D02*
Y83100D01*
X531624D01*
X470600Y7903D02*
X531624D01*
X146700Y20800D02*
Y26798D01*
X149699D01*
X150699Y25798D01*
Y23799D01*
X149699Y22799D01*
X146700D01*
X148699D02*
X150699Y20800D01*
X156697Y26798D02*
X152698D01*
Y20800D01*
X156697D01*
X152698Y23799D02*
X154697D01*
X158696Y26798D02*
Y22799D01*
X160696Y20800D01*
X162695Y22799D01*
Y26798D01*
X170692Y20800D02*
X172692D01*
X171692D01*
Y26798D01*
X170692Y25798D01*
X175691Y20800D02*
Y21800D01*
X176690D01*
Y20800D01*
X175691D01*
X180689Y25798D02*
X181689Y26798D01*
X183688D01*
X184688Y25798D01*
Y21800D01*
X183688Y20800D01*
X181689D01*
X180689Y21800D01*
Y25798D01*
X187687Y19800D02*
X188686Y20800D01*
Y21800D01*
X187687D01*
Y20800D01*
X188686D01*
X187687Y19800D01*
X186687Y18801D01*
X198683Y25798D02*
X199683Y26798D01*
X201682D01*
X202682Y25798D01*
Y21800D01*
X201682Y20800D01*
X199683D01*
X198683Y21800D01*
Y25798D01*
X204681D02*
X205681Y26798D01*
X207680D01*
X208680Y25798D01*
Y24799D01*
X207680Y23799D01*
X208680Y22799D01*
Y21800D01*
X207680Y20800D01*
X205681D01*
X204681Y21800D01*
Y22799D01*
X205681Y23799D01*
X204681Y24799D01*
Y25798D01*
X205681Y23799D02*
X207680D01*
X210679Y20800D02*
X214678Y24799D01*
X216677Y20800D02*
X218677D01*
X217677D01*
Y26798D01*
X216677Y25798D01*
X224675Y20800D02*
Y26798D01*
X221676Y23799D01*
X225674D01*
D41*
X50500Y33200D02*
X55300D01*
X49400Y34300D02*
Y36750D01*
Y47750D02*
X56400D01*
X49400Y43750D02*
Y47750D01*
X56400Y34300D02*
Y36750D01*
Y43750D02*
Y47750D01*
X54900Y32800D02*
X56400Y34300D01*
X50900Y32800D02*
X54900D01*
X49400Y34300D02*
X50900Y32800D01*
X125169Y38599D02*
X124670Y39099D01*
X123670D01*
X123170Y38599D01*
Y36600D01*
X123670Y36100D01*
X124670D01*
X125169Y36600D01*
X126169Y36100D02*
X127169D01*
X126669D01*
Y39099D01*
X126169Y38599D01*
X84069Y20399D02*
X83570Y20899D01*
X82570D01*
X82070Y20399D01*
Y18400D01*
X82570Y17900D01*
X83570D01*
X84069Y18400D01*
X87068Y17900D02*
X85069D01*
X87068Y19899D01*
Y20399D01*
X86569Y20899D01*
X85569D01*
X85069Y20399D01*
X89269Y131199D02*
X88770Y131699D01*
X87770D01*
X87270Y131199D01*
Y129200D01*
X87770Y128700D01*
X88770D01*
X89269Y129200D01*
X91769Y128700D02*
Y131699D01*
X90269Y130200D01*
X92269D01*
X65069Y53599D02*
X64570Y54099D01*
X63570D01*
X63070Y53599D01*
Y51600D01*
X63570Y51100D01*
X64570D01*
X65069Y51600D01*
X68068Y54099D02*
X66069D01*
Y52600D01*
X67069Y53099D01*
X67569D01*
X68068Y52600D01*
Y51600D01*
X67569Y51100D01*
X66569D01*
X66069Y51600D01*
X47070Y88099D02*
Y85100D01*
X48570D01*
X49069Y85600D01*
Y87599D01*
X48570Y88099D01*
X47070D01*
X50069Y85100D02*
X51069D01*
X50569D01*
Y88099D01*
X50069Y87599D01*
X276270Y110499D02*
Y107500D01*
X277770D01*
X278269Y108000D01*
Y109999D01*
X277770Y110499D01*
X276270D01*
X281269Y107500D02*
X279269D01*
X281269Y109499D01*
Y109999D01*
X280769Y110499D01*
X279769D01*
X279269Y109999D01*
X349270Y109099D02*
Y106100D01*
X350770D01*
X351269Y106600D01*
Y108599D01*
X350770Y109099D01*
X349270D01*
X352269Y108599D02*
X352769Y109099D01*
X353769D01*
X354269Y108599D01*
Y108099D01*
X353769Y107599D01*
X353269D01*
X353769D01*
X354269Y107100D01*
Y106600D01*
X353769Y106100D01*
X352769D01*
X352269Y106600D01*
X418770Y108799D02*
Y105800D01*
X420270D01*
X420769Y106300D01*
Y108299D01*
X420270Y108799D01*
X418770D01*
X423269Y105800D02*
Y108799D01*
X421769Y107299D01*
X423769D01*
X67570Y88599D02*
Y85600D01*
X69070D01*
X69569Y86100D01*
Y88099D01*
X69070Y88599D01*
X67570D01*
X72569D02*
X70569D01*
Y87099D01*
X71569Y87599D01*
X72069D01*
X72569Y87099D01*
Y86100D01*
X72069Y85600D01*
X71069D01*
X70569Y86100D01*
X25070Y88599D02*
Y85600D01*
X26570D01*
X27069Y86100D01*
Y88099D01*
X26570Y88599D01*
X25070D01*
X30068D02*
X29069Y88099D01*
X28069Y87099D01*
Y86100D01*
X28569Y85600D01*
X29569D01*
X30068Y86100D01*
Y86600D01*
X29569Y87099D01*
X28069D01*
X68570Y123599D02*
Y120600D01*
X70070D01*
X70569Y121100D01*
Y123099D01*
X70070Y123599D01*
X68570D01*
X71569D02*
X73568D01*
Y123099D01*
X71569Y121100D01*
Y120600D01*
X486870Y107799D02*
Y104800D01*
X488370D01*
X488869Y105300D01*
Y107299D01*
X488370Y107799D01*
X486870D01*
X489869Y107299D02*
X490369Y107799D01*
X491369D01*
X491868Y107299D01*
Y106799D01*
X491369Y106299D01*
X491868Y105800D01*
Y105300D01*
X491369Y104800D01*
X490369D01*
X489869Y105300D01*
Y105800D01*
X490369Y106299D01*
X489869Y106799D01*
Y107299D01*
X490369Y106299D02*
X491369D01*
X559670Y106799D02*
Y103800D01*
X561170D01*
X561669Y104300D01*
Y106299D01*
X561170Y106799D01*
X559670D01*
X562669Y104300D02*
X563169Y103800D01*
X564169D01*
X564669Y104300D01*
Y106299D01*
X564169Y106799D01*
X563169D01*
X562669Y106299D01*
Y105799D01*
X563169Y105299D01*
X564669D01*
X118469Y161099D02*
X117470D01*
X117970D01*
Y158600D01*
X117470Y158100D01*
X116970D01*
X116470Y158600D01*
X119469Y158100D02*
X120469D01*
X119969D01*
Y161099D01*
X119469Y160599D01*
X49270Y53899D02*
Y50900D01*
X51269D01*
X54268Y53899D02*
X52269D01*
Y50900D01*
X54268D01*
X52269Y52399D02*
X53269D01*
X55268Y53899D02*
Y50900D01*
X56768D01*
X57267Y51400D01*
Y53399D01*
X56768Y53899D01*
X55268D01*
X58267Y50900D02*
X59267D01*
X58767D01*
Y53899D01*
X58267Y53399D01*
X5970Y76900D02*
Y79899D01*
X7470D01*
X7969Y79399D01*
Y78399D01*
X7470Y77900D01*
X5970D01*
X8969Y76900D02*
X9969D01*
X9469D01*
Y79899D01*
X8969Y79399D01*
X5970Y46900D02*
Y49899D01*
X7470D01*
X7969Y49399D01*
Y48399D01*
X7470Y47900D01*
X5970D01*
X10968Y46900D02*
X8969D01*
X10968Y48899D01*
Y49399D01*
X10469Y49899D01*
X9469D01*
X8969Y49399D01*
X220670Y138100D02*
Y141099D01*
X222170D01*
X222669Y140599D01*
Y139600D01*
X222170Y139100D01*
X220670D01*
X223669Y140599D02*
X224169Y141099D01*
X225169D01*
X225669Y140599D01*
Y140099D01*
X225169Y139600D01*
X224669D01*
X225169D01*
X225669Y139100D01*
Y138600D01*
X225169Y138100D01*
X224169D01*
X223669Y138600D01*
X298070Y145900D02*
Y148899D01*
X299570D01*
X300069Y148399D01*
Y147399D01*
X299570Y146900D01*
X298070D01*
X302569Y145900D02*
Y148899D01*
X301069Y147399D01*
X303068D01*
X236369Y158200D02*
Y160199D01*
X235870Y160699D01*
X234870D01*
X234370Y160199D01*
Y158200D01*
X234870Y157700D01*
X235870D01*
X235370Y158700D02*
X236369Y157700D01*
X235870D02*
X236369Y158200D01*
X237369Y157700D02*
X238369D01*
X237869D01*
Y160699D01*
X237369Y160199D01*
X236369Y134200D02*
Y136199D01*
X235870Y136699D01*
X234870D01*
X234370Y136199D01*
Y134200D01*
X234870Y133700D01*
X235870D01*
X235370Y134700D02*
X236369Y133700D01*
X235870D02*
X236369Y134200D01*
X239369Y133700D02*
X237369D01*
X239369Y135699D01*
Y136199D01*
X238869Y136699D01*
X237869D01*
X237369Y136199D01*
X235769Y109900D02*
Y111899D01*
X235270Y112399D01*
X234270D01*
X233770Y111899D01*
Y109900D01*
X234270Y109400D01*
X235270D01*
X234770Y110400D02*
X235769Y109400D01*
X235270D02*
X235769Y109900D01*
X236769Y111899D02*
X237269Y112399D01*
X238269D01*
X238769Y111899D01*
Y111399D01*
X238269Y110899D01*
X237769D01*
X238269D01*
X238769Y110400D01*
Y109900D01*
X238269Y109400D01*
X237269D01*
X236769Y109900D01*
X232169Y76000D02*
Y77999D01*
X231670Y78499D01*
X230670D01*
X230170Y77999D01*
Y76000D01*
X230670Y75500D01*
X231670D01*
X231170Y76500D02*
X232169Y75500D01*
X231670D02*
X232169Y76000D01*
X234669Y75500D02*
Y78499D01*
X233169Y76999D01*
X235169D01*
X206569Y76900D02*
Y78899D01*
X206070Y79399D01*
X205070D01*
X204570Y78899D01*
Y76900D01*
X205070Y76400D01*
X206070D01*
X205570Y77400D02*
X206569Y76400D01*
X206070D02*
X206569Y76900D01*
X209569Y79399D02*
X207569D01*
Y77899D01*
X208569Y78399D01*
X209069D01*
X209569Y77899D01*
Y76900D01*
X209069Y76400D01*
X208069D01*
X207569Y76900D01*
X118669Y56000D02*
Y57999D01*
X118170Y58499D01*
X117170D01*
X116670Y57999D01*
Y56000D01*
X117170Y55500D01*
X118170D01*
X117670Y56500D02*
X118669Y55500D01*
X118170D02*
X118669Y56000D01*
X121669Y58499D02*
X120669Y57999D01*
X119669Y56999D01*
Y56000D01*
X120169Y55500D01*
X121169D01*
X121669Y56000D01*
Y56500D01*
X121169Y56999D01*
X119669D01*
X55670Y26900D02*
Y29899D01*
X57170D01*
X57669Y29399D01*
Y28400D01*
X57170Y27900D01*
X55670D01*
X56670D02*
X57669Y26900D01*
X60668D02*
X58669D01*
X60668Y28899D01*
Y29399D01*
X60169Y29899D01*
X59169D01*
X58669Y29399D01*
X260970Y156600D02*
Y159599D01*
X262470D01*
X262969Y159099D01*
Y158099D01*
X262470Y157600D01*
X260970D01*
X261970D02*
X262969Y156600D01*
X263969Y159099D02*
X264469Y159599D01*
X265469D01*
X265968Y159099D01*
Y158599D01*
X265469Y158099D01*
X264969D01*
X265469D01*
X265968Y157600D01*
Y157100D01*
X265469Y156600D01*
X264469D01*
X263969Y157100D01*
X261270Y142500D02*
Y145499D01*
X262770D01*
X263269Y144999D01*
Y144000D01*
X262770Y143500D01*
X261270D01*
X262270D02*
X263269Y142500D01*
X265769D02*
Y145499D01*
X264269Y144000D01*
X266268D01*
X261270Y127600D02*
Y130599D01*
X262770D01*
X263269Y130099D01*
Y129100D01*
X262770Y128600D01*
X261270D01*
X262270D02*
X263269Y127600D01*
X266268Y130599D02*
X264269D01*
Y129100D01*
X265269Y129599D01*
X265769D01*
X266268Y129100D01*
Y128100D01*
X265769Y127600D01*
X264769D01*
X264269Y128100D01*
X330770Y126600D02*
Y129599D01*
X332270D01*
X332769Y129099D01*
Y128100D01*
X332270Y127600D01*
X330770D01*
X331770D02*
X332769Y126600D01*
X335769Y129599D02*
X334769Y129099D01*
X333769Y128100D01*
Y127100D01*
X334269Y126600D01*
X335269D01*
X335769Y127100D01*
Y127600D01*
X335269Y128100D01*
X333769D01*
X340870Y126600D02*
Y129599D01*
X342370D01*
X342869Y129099D01*
Y128100D01*
X342370Y127600D01*
X340870D01*
X341870D02*
X342869Y126600D01*
X343869Y129599D02*
X345868D01*
Y129099D01*
X343869Y127100D01*
Y126600D01*
X112570Y37200D02*
Y40199D01*
X114070D01*
X114569Y39699D01*
Y38699D01*
X114070Y38200D01*
X112570D01*
X113570D02*
X114569Y37200D01*
X115569Y39699D02*
X116069Y40199D01*
X117069D01*
X117569Y39699D01*
Y39199D01*
X117069Y38699D01*
X117569Y38200D01*
Y37700D01*
X117069Y37200D01*
X116069D01*
X115569Y37700D01*
Y38200D01*
X116069Y38699D01*
X115569Y39199D01*
Y39699D01*
X116069Y38699D02*
X117069D01*
X257970Y88500D02*
Y91499D01*
X259470D01*
X259969Y90999D01*
Y90000D01*
X259470Y89500D01*
X257970D01*
X258970D02*
X259969Y88500D01*
X262968Y91499D02*
X260969D01*
Y88500D01*
X262968D01*
X260969Y90000D02*
X261969D01*
X263968Y91499D02*
Y88500D01*
X265967D01*
X266967D02*
X267967D01*
X267467D01*
Y91499D01*
X266967Y90999D01*
X329370Y88700D02*
Y91699D01*
X330870D01*
X331369Y91199D01*
Y90200D01*
X330870Y89700D01*
X329370D01*
X330370D02*
X331369Y88700D01*
X334368Y91699D02*
X332369D01*
Y88700D01*
X334368D01*
X332369Y90200D02*
X333369D01*
X335368Y91699D02*
Y88700D01*
X337368D01*
X340367D02*
X338367D01*
X340367Y90699D01*
Y91199D01*
X339867Y91699D01*
X338867D01*
X338367Y91199D01*
X398970Y87400D02*
Y90399D01*
X400470D01*
X400969Y89899D01*
Y88899D01*
X400470Y88400D01*
X398970D01*
X399970D02*
X400969Y87400D01*
X403968Y90399D02*
X401969D01*
Y87400D01*
X403968D01*
X401969Y88899D02*
X402969D01*
X404968Y90399D02*
Y87400D01*
X406967D01*
X407967Y89899D02*
X408467Y90399D01*
X409467D01*
X409967Y89899D01*
Y89399D01*
X409467Y88899D01*
X408967D01*
X409467D01*
X409967Y88400D01*
Y87900D01*
X409467Y87400D01*
X408467D01*
X407967Y87900D01*
X470570Y86100D02*
Y89099D01*
X472070D01*
X472569Y88599D01*
Y87599D01*
X472070Y87100D01*
X470570D01*
X471570D02*
X472569Y86100D01*
X475568Y89099D02*
X473569D01*
Y86100D01*
X475568D01*
X473569Y87599D02*
X474569D01*
X476568Y89099D02*
Y86100D01*
X478568D01*
X481067D02*
Y89099D01*
X479567Y87599D01*
X481566D01*
X540170Y85400D02*
Y88399D01*
X541670D01*
X542169Y87899D01*
Y86900D01*
X541670Y86400D01*
X540170D01*
X541170D02*
X542169Y85400D01*
X545168Y88399D02*
X543169D01*
Y85400D01*
X545168D01*
X543169Y86900D02*
X544169D01*
X546168Y88399D02*
Y85400D01*
X548168D01*
X551166Y88399D02*
X549167D01*
Y86900D01*
X550167Y87399D01*
X550667D01*
X551166Y86900D01*
Y85900D01*
X550667Y85400D01*
X549667D01*
X549167Y85900D01*
X24669Y143799D02*
X24170Y144299D01*
X23170D01*
X22670Y143799D01*
Y143299D01*
X23170Y142799D01*
X24170D01*
X24669Y142300D01*
Y141800D01*
X24170Y141300D01*
X23170D01*
X22670Y141800D01*
X25669Y141300D02*
X26669D01*
X26169D01*
Y144299D01*
X25669Y143799D01*
X370469Y160199D02*
X369970Y160699D01*
X368970D01*
X368470Y160199D01*
Y159699D01*
X368970Y159200D01*
X369970D01*
X370469Y158700D01*
Y158200D01*
X369970Y157700D01*
X368970D01*
X368470Y158200D01*
X373468Y157700D02*
X371469D01*
X373468Y159699D01*
Y160199D01*
X372969Y160699D01*
X371969D01*
X371469Y160199D01*
X416669D02*
X416170Y160699D01*
X415170D01*
X414670Y160199D01*
Y159699D01*
X415170Y159200D01*
X416170D01*
X416669Y158700D01*
Y158200D01*
X416170Y157700D01*
X415170D01*
X414670Y158200D01*
X417669Y160199D02*
X418169Y160699D01*
X419169D01*
X419668Y160199D01*
Y159699D01*
X419169Y159200D01*
X418669D01*
X419169D01*
X419668Y158700D01*
Y158200D01*
X419169Y157700D01*
X418169D01*
X417669Y158200D01*
X464269Y160199D02*
X463770Y160699D01*
X462770D01*
X462270Y160199D01*
Y159699D01*
X462770Y159200D01*
X463770D01*
X464269Y158700D01*
Y158200D01*
X463770Y157700D01*
X462770D01*
X462270Y158200D01*
X466769Y157700D02*
Y160699D01*
X465269Y159200D01*
X467269D01*
X510469Y160199D02*
X509970Y160699D01*
X508970D01*
X508470Y160199D01*
Y159699D01*
X508970Y159200D01*
X509970D01*
X510469Y158700D01*
Y158200D01*
X509970Y157700D01*
X508970D01*
X508470Y158200D01*
X513469Y160699D02*
X511469D01*
Y159200D01*
X512469Y159699D01*
X512969D01*
X513469Y159200D01*
Y158200D01*
X512969Y157700D01*
X511969D01*
X511469Y158200D01*
X557269Y160199D02*
X556770Y160699D01*
X555770D01*
X555270Y160199D01*
Y159699D01*
X555770Y159200D01*
X556770D01*
X557269Y158700D01*
Y158200D01*
X556770Y157700D01*
X555770D01*
X555270Y158200D01*
X560268Y160699D02*
X559269Y160199D01*
X558269Y159200D01*
Y158200D01*
X558769Y157700D01*
X559769D01*
X560268Y158200D01*
Y158700D01*
X559769Y159200D01*
X558269D01*
X80070Y58799D02*
Y56300D01*
X80570Y55800D01*
X81570D01*
X82069Y56300D01*
Y58799D01*
X85069Y55800D02*
X83069D01*
X85069Y57799D01*
Y58299D01*
X84569Y58799D01*
X83569D01*
X83069Y58299D01*
X84970Y106199D02*
Y103700D01*
X85470Y103200D01*
X86470D01*
X86969Y103700D01*
Y106199D01*
X87969Y105699D02*
X88469Y106199D01*
X89469D01*
X89969Y105699D01*
Y105199D01*
X89469Y104700D01*
X88969D01*
X89469D01*
X89969Y104200D01*
Y103700D01*
X89469Y103200D01*
X88469D01*
X87969Y103700D01*
X203500Y99599D02*
X205499D01*
X204500Y100599D02*
Y98600D01*
X124500Y99599D02*
X126499D01*
X87250Y114547D02*
X89250D01*
X88250Y115546D02*
Y113547D01*
X87462Y71969D02*
X87962Y71469D01*
Y70469D01*
X87462Y69969D01*
X86962D01*
X86462Y70469D01*
Y70969D01*
Y70469D01*
X85963Y69969D01*
X85463D01*
X84963Y70469D01*
Y71469D01*
X85463Y71969D01*
X84963Y79969D02*
Y81968D01*
X86962Y79969D01*
X87462D01*
X87962Y80469D01*
Y81469D01*
X87462Y81968D01*
X84963Y90984D02*
Y89985D01*
Y90484D01*
X87962D01*
X87462Y90984D01*
X206909Y53768D02*
Y52769D01*
Y53269D01*
X209908D01*
X209408Y53768D01*
X219038D02*
X219538Y53269D01*
Y52269D01*
X219038Y51769D01*
X218538D01*
X218038Y52269D01*
Y52769D01*
Y52269D01*
X217538Y51769D01*
X217038D01*
X216539Y52269D01*
Y53269D01*
X217038Y53768D01*
X232509Y52868D02*
Y51869D01*
Y52369D01*
X235508D01*
X235008Y52868D01*
X244638D02*
X245138Y52369D01*
Y51369D01*
X244638Y50869D01*
X244138D01*
X243638Y51369D01*
Y51869D01*
Y51369D01*
X243138Y50869D01*
X242638D01*
X242139Y51369D01*
Y52369D01*
X242638Y52868D01*
D42*
X175670Y32700D02*
X176570D01*
X148970D02*
X167570D01*
X234170Y33000D02*
X238070D01*
X228170D02*
X232370D01*
X225770D02*
X226670D01*
X221270D02*
X223970D01*
X220070D02*
X220670D01*
X217670D02*
X218270D01*
X214370D02*
X214970D01*
X208370D02*
X209270D01*
X205970D02*
X206870D01*
X202670D02*
X203570D01*
X200270D02*
X200870D01*
X198470D02*
X199670D01*
X196970D02*
X197870D01*
X191270D02*
X195470D01*
X185570D02*
X186170D01*
X179870D02*
X183770D01*
X175670D02*
X176570D01*
X147770D02*
X168470D01*
X234170Y33300D02*
X238070D01*
X228170D02*
X232370D01*
X225770D02*
X226670D01*
X221270D02*
X223970D01*
X220070D02*
X220670D01*
X217670D02*
X218270D01*
X214370D02*
X214970D01*
X208370D02*
X209270D01*
X205970D02*
X206870D01*
X202670D02*
X203570D01*
X200270D02*
X200870D01*
X198170D02*
X199370D01*
X196970D02*
X197870D01*
X191270D02*
X195470D01*
X185570D02*
X186170D01*
X179870D02*
X183770D01*
X175670D02*
X176570D01*
X146870D02*
X169370D01*
X234170Y33600D02*
X237770D01*
X228470D02*
X232070D01*
X225770D02*
X226670D01*
X221570D02*
X223670D01*
X220070D02*
X220670D01*
X217370D02*
X218270D01*
X214370D02*
X214970D01*
X208370D02*
X209270D01*
X205970D02*
X206870D01*
X202670D02*
X203570D01*
X200270D02*
X200870D01*
X198170D02*
X199370D01*
X196970D02*
X197870D01*
X191270D02*
X195470D01*
X185570D02*
X186470D01*
X179870D02*
X183470D01*
X175670D02*
X176570D01*
X145970D02*
X170270D01*
X234170Y33900D02*
X234770D01*
X225770D02*
X226670D01*
X220070D02*
X220970D01*
X217370D02*
X218270D01*
X214370D02*
X215270D01*
X208370D02*
X209270D01*
X205970D02*
X206870D01*
X202670D02*
X203570D01*
X200270D02*
X200870D01*
X196970D02*
X199070D01*
X194570D02*
X195470D01*
X191270D02*
X192170D01*
X185570D02*
X186470D01*
X175670D02*
X176570D01*
X145970D02*
X170270D01*
X234170Y34200D02*
X238070D01*
X228470D02*
X232370D01*
X225770D02*
X226670D01*
X220070D02*
X223970D01*
X214370D02*
X218270D01*
X208370D02*
X209270D01*
X202970D02*
X206570D01*
X200270D02*
X200870D01*
X196970D02*
X198770D01*
X194570D02*
X195470D01*
X191270D02*
X192170D01*
X185570D02*
X189470D01*
X179870D02*
X183770D01*
X174170D02*
X178070D01*
X146870D02*
X169670D01*
X234170Y34500D02*
X238070D01*
X228170D02*
X232370D01*
X225770D02*
X226670D01*
X220370D02*
X223970D01*
X214370D02*
X217970D01*
X208370D02*
X209270D01*
X202970D02*
X206570D01*
X200270D02*
X200870D01*
X196970D02*
X198470D01*
X194570D02*
X195470D01*
X191270D02*
X192170D01*
X185870D02*
X189770D01*
X179870D02*
X183770D01*
X174170D02*
X178070D01*
X147770D02*
X168770D01*
X234470Y34800D02*
X238070D01*
X228470D02*
X232370D01*
X225770D02*
X226670D01*
X220370D02*
X223970D01*
X214670D02*
X217970D01*
X208670D02*
X209270D01*
X203270D02*
X206270D01*
X200270D02*
X200870D01*
X197270D02*
X198170D01*
X194570D02*
X195470D01*
X191570D02*
X192170D01*
X186170D02*
X189470D01*
X179870D02*
X183770D01*
X174170D02*
X178070D01*
X148670D02*
X167570D01*
X234770Y35100D02*
X237770D01*
X228770D02*
X232070D01*
X220970D02*
X223670D01*
X214970D02*
X217370D01*
X203570D02*
X205970D01*
X186470D02*
X189470D01*
X180170D02*
X183470D01*
X174470D02*
X177770D01*
X149570D02*
X166670D01*
X169670Y35400D02*
X170270D01*
X150470D02*
X165770D01*
X146270D02*
X146870D01*
X168770Y35700D02*
X170270D01*
X151670D02*
X164870D01*
X145970D02*
X147770D01*
X167870Y36000D02*
X170270D01*
X152570D02*
X163970D01*
X145970D02*
X148670D01*
X166670Y36300D02*
X170270D01*
X153470D02*
X162770D01*
X145970D02*
X149570D01*
X165770Y36600D02*
X170270D01*
X154370D02*
X161870D01*
X145970D02*
X150470D01*
X172970Y36900D02*
X239870D01*
X164870D02*
X170270D01*
X155270D02*
X160970D01*
X145970D02*
X151370D01*
X173270Y37200D02*
X239870D01*
X163970D02*
X170270D01*
X156170D02*
X160070D01*
X145970D02*
X152270D01*
X163070Y37500D02*
X170270D01*
X157070D02*
X158870D01*
X145970D02*
X153170D01*
X162170Y37800D02*
X170270D01*
X145970D02*
X154370D01*
X161270Y38100D02*
X170270D01*
X145970D02*
X154970D01*
X235670Y38400D02*
X237770D01*
X227270D02*
X229370D01*
X218870D02*
X220970D01*
X210470D02*
X212870D01*
X202370D02*
X204470D01*
X198170D02*
X200270D01*
X187070D02*
X196070D01*
X173270D02*
X175370D01*
X160370D02*
X170270D01*
X145970D02*
X156170D01*
X235370Y38700D02*
X237770D01*
X227270D02*
X229370D01*
X218870D02*
X221270D01*
X210470D02*
X212870D01*
X202370D02*
X204770D01*
X197870D02*
X200270D01*
X186470D02*
X196070D01*
X172970D02*
X175370D01*
X159470D02*
X170270D01*
X145970D02*
X157070D01*
X235670Y39000D02*
X237770D01*
X227270D02*
X229370D01*
X218870D02*
X221270D01*
X210470D02*
X212870D01*
X202370D02*
X204770D01*
X197870D02*
X200270D01*
X185870D02*
X196070D01*
X172970D02*
X175370D01*
X158870D02*
X170570D01*
X145970D02*
X157670D01*
X235670Y39300D02*
X237770D01*
X227270D02*
X229370D01*
X218870D02*
X221270D01*
X210470D02*
X212870D01*
X202370D02*
X204770D01*
X197870D02*
X200270D01*
X185870D02*
X196070D01*
X172970D02*
X175370D01*
X158570D02*
X170570D01*
X145970D02*
X157670D01*
X235670Y39600D02*
X237770D01*
X227270D02*
X229370D01*
X218870D02*
X221270D01*
X210470D02*
X212870D01*
X202370D02*
X204770D01*
X197870D02*
X200270D01*
X185570D02*
X196070D01*
X172970D02*
X175370D01*
X158570D02*
X170570D01*
X145970D02*
X157670D01*
X235670Y39900D02*
X237770D01*
X227270D02*
X229370D01*
X218870D02*
X221270D01*
X210470D02*
X212870D01*
X202370D02*
X204770D01*
X197870D02*
X200270D01*
X185570D02*
X195770D01*
X172970D02*
X175370D01*
X158570D02*
X170570D01*
X145970D02*
X157670D01*
X235670Y40200D02*
X237770D01*
X227270D02*
X229370D01*
X218870D02*
X221270D01*
X210470D02*
X212870D01*
X202370D02*
X204770D01*
X197870D02*
X200270D01*
X185570D02*
X187970D01*
X172970D02*
X175370D01*
X158570D02*
X170570D01*
X145970D02*
X157670D01*
X235670Y40500D02*
X237770D01*
X227270D02*
X229370D01*
X218870D02*
X221270D01*
X210470D02*
X212870D01*
X202370D02*
X204770D01*
X197870D02*
X200270D01*
X185570D02*
X187670D01*
X172970D02*
X175370D01*
X158570D02*
X170570D01*
X145970D02*
X157670D01*
X235670Y40800D02*
X237770D01*
X227270D02*
X229370D01*
X218870D02*
X221270D01*
X210470D02*
X212870D01*
X202370D02*
X204770D01*
X197870D02*
X200270D01*
X185570D02*
X187670D01*
X172970D02*
X175370D01*
X158570D02*
X170570D01*
X145970D02*
X157670D01*
X235670Y41100D02*
X237770D01*
X227270D02*
X229370D01*
X218870D02*
X221270D01*
X210470D02*
X212870D01*
X202370D02*
X204770D01*
X197870D02*
X200270D01*
X185570D02*
X187670D01*
X173270D02*
X175370D01*
X158570D02*
X170570D01*
X145970D02*
X157670D01*
X227270Y41400D02*
X237770D01*
X218870D02*
X221270D01*
X210470D02*
X212870D01*
X202370D02*
X204770D01*
X197870D02*
X200270D01*
X185570D02*
X187670D01*
X173270D02*
X181970D01*
X158570D02*
X170570D01*
X145970D02*
X157670D01*
X227270Y41700D02*
X237770D01*
X218870D02*
X221270D01*
X210470D02*
X212870D01*
X202370D02*
X204770D01*
X197870D02*
X200270D01*
X185570D02*
X187670D01*
X173270D02*
X182570D01*
X158570D02*
X170570D01*
X145970D02*
X157670D01*
X227270Y42000D02*
X237770D01*
X218870D02*
X221270D01*
X210470D02*
X212870D01*
X202370D02*
X204770D01*
X197870D02*
X200270D01*
X185570D02*
X187670D01*
X173570D02*
X182870D01*
X158570D02*
X170570D01*
X145970D02*
X157670D01*
X227270Y42300D02*
X237770D01*
X218870D02*
X221270D01*
X210470D02*
X212870D01*
X202370D02*
X204770D01*
X197870D02*
X200270D01*
X185570D02*
X187670D01*
X173570D02*
X183170D01*
X158570D02*
X170570D01*
X145970D02*
X157670D01*
X227270Y42600D02*
X237770D01*
X218870D02*
X221270D01*
X210470D02*
X212870D01*
X202370D02*
X204770D01*
X197870D02*
X200270D01*
X185570D02*
X187670D01*
X173870D02*
X183470D01*
X158570D02*
X170570D01*
X145970D02*
X157670D01*
X227270Y42900D02*
X237770D01*
X218870D02*
X221270D01*
X210470D02*
X212870D01*
X202370D02*
X204770D01*
X197870D02*
X200270D01*
X185570D02*
X187670D01*
X174470D02*
X183470D01*
X158570D02*
X170570D01*
X145970D02*
X157670D01*
X235670Y43200D02*
X237770D01*
X227270D02*
X229370D01*
X218870D02*
X221270D01*
X210470D02*
X212870D01*
X202370D02*
X204770D01*
X197870D02*
X200270D01*
X185570D02*
X187670D01*
X181370D02*
X183470D01*
X158570D02*
X170570D01*
X145970D02*
X157670D01*
X235670Y43500D02*
X237770D01*
X227270D02*
X229370D01*
X218870D02*
X221270D01*
X210470D02*
X212870D01*
X202370D02*
X204770D01*
X197870D02*
X200270D01*
X185570D02*
X187670D01*
X181370D02*
X183470D01*
X158570D02*
X170570D01*
X145970D02*
X157670D01*
X235670Y43800D02*
X237770D01*
X227270D02*
X229370D01*
X218870D02*
X221270D01*
X210470D02*
X212870D01*
X202370D02*
X204770D01*
X197870D02*
X200270D01*
X185570D02*
X187670D01*
X181370D02*
X183470D01*
X158570D02*
X170570D01*
X145970D02*
X157670D01*
X235670Y44100D02*
X237770D01*
X227270D02*
X229370D01*
X218870D02*
X221270D01*
X210170D02*
X212870D01*
X202370D02*
X204770D01*
X197870D02*
X200270D01*
X185570D02*
X187670D01*
X181070D02*
X183470D01*
X158570D02*
X170570D01*
X145970D02*
X157670D01*
X235670Y44400D02*
X237770D01*
X227270D02*
X229370D01*
X214970D02*
X225170D01*
X202370D02*
X212570D01*
X197870D02*
X200270D01*
X185570D02*
X187670D01*
X172970D02*
X183470D01*
X158570D02*
X170570D01*
X145970D02*
X157670D01*
X235670Y44700D02*
X237770D01*
X227270D02*
X229370D01*
X214970D02*
X225170D01*
X202370D02*
X212570D01*
X197870D02*
X200270D01*
X185570D02*
X187670D01*
X172970D02*
X183170D01*
X158570D02*
X170570D01*
X145970D02*
X157670D01*
X235670Y45000D02*
X237770D01*
X227270D02*
X229370D01*
X214970D02*
X225170D01*
X202370D02*
X212270D01*
X197870D02*
X200270D01*
X185570D02*
X187670D01*
X172970D02*
X183170D01*
X158570D02*
X170270D01*
X145970D02*
X157670D01*
X235370Y45300D02*
X237770D01*
X227270D02*
X229370D01*
X214970D02*
X225170D01*
X202370D02*
X211970D01*
X197870D02*
X200270D01*
X185570D02*
X187670D01*
X172970D02*
X182870D01*
X158570D02*
X169970D01*
X146570D02*
X157670D01*
X235670Y45600D02*
X237770D01*
X227270D02*
X229370D01*
X214970D02*
X225170D01*
X202370D02*
X211070D01*
X198170D02*
X200270D01*
X185570D02*
X187670D01*
X173270D02*
X182270D01*
X158570D02*
X169070D01*
X147470D02*
X157670D01*
X158570Y45900D02*
X168170D01*
X148370D02*
X157670D01*
X158570Y46200D02*
X167270D01*
X149270D02*
X157670D01*
X158570Y46500D02*
X166370D01*
X150170D02*
X157670D01*
X158570Y46800D02*
X165470D01*
X151070D02*
X157670D01*
X158570Y47100D02*
X164570D01*
X151970D02*
X157670D01*
X158570Y47400D02*
X163670D01*
X152870D02*
X157670D01*
X158570Y47700D02*
X162470D01*
X153770D02*
X157670D01*
X158570Y48000D02*
X161570D01*
X154670D02*
X157670D01*
X158570Y48300D02*
X160670D01*
X155570D02*
X157670D01*
X158870Y48600D02*
X159770D01*
X156470D02*
X157670D01*
X157070Y30300D02*
X159470D01*
X155870Y30600D02*
X160370D01*
X154970Y30900D02*
X161270D01*
X234470Y31200D02*
X237470D01*
X229070D02*
X232070D01*
X220970D02*
X223370D01*
X214970D02*
X217370D01*
X209270D02*
X212270D01*
X203570D02*
X205970D01*
X186470D02*
X189470D01*
X180470D02*
X183470D01*
X153770D02*
X162470D01*
X234170Y31500D02*
X238070D01*
X228470D02*
X232370D01*
X225770D02*
X226670D01*
X220370D02*
X223970D01*
X214670D02*
X217970D01*
X208670D02*
X212570D01*
X203270D02*
X206270D01*
X199970D02*
X200870D01*
X196970D02*
X197870D01*
X194570D02*
X195470D01*
X191570D02*
X192170D01*
X185870D02*
X189470D01*
X180170D02*
X183770D01*
X175670D02*
X176270D01*
X152870D02*
X163370D01*
X234170Y31800D02*
X238070D01*
X228470D02*
X232370D01*
X225770D02*
X226670D01*
X220370D02*
X223970D01*
X214370D02*
X217970D01*
X208670D02*
X212570D01*
X202970D02*
X206570D01*
X199670D02*
X200870D01*
X196970D02*
X197870D01*
X194570D02*
X195470D01*
X191270D02*
X192170D01*
X185870D02*
X189770D01*
X179870D02*
X183770D01*
X175670D02*
X176570D01*
X151670D02*
X164570D01*
X234170Y32100D02*
X238070D01*
X228170D02*
X232370D01*
X225770D02*
X226670D01*
X220070D02*
X223970D01*
X214370D02*
X218270D01*
X208670D02*
X212270D01*
X202970D02*
X206570D01*
X199370D02*
X200870D01*
X196970D02*
X197870D01*
X194570D02*
X195470D01*
X191270D02*
X192170D01*
X185570D02*
X189470D01*
X179870D02*
X183770D01*
X175670D02*
X176570D01*
X150770D02*
X165470D01*
X237470Y32400D02*
X238070D01*
X228170D02*
X229070D01*
X225770D02*
X226670D01*
X223370D02*
X223970D01*
X220070D02*
X220970D01*
X217370D02*
X218270D01*
X214370D02*
X215270D01*
X208370D02*
X209270D01*
X205970D02*
X206870D01*
X202670D02*
X203570D01*
X199070D02*
X200870D01*
X196970D02*
X197870D01*
X194570D02*
X195470D01*
X191270D02*
X192170D01*
X185570D02*
X186470D01*
X179870D02*
X180470D01*
X175670D02*
X176570D01*
X149870D02*
X166670D01*
X234470Y32700D02*
X238070D01*
X228170D02*
X232070D01*
X225770D02*
X226670D01*
X221570D02*
X223970D01*
X220070D02*
X220670D01*
X217370D02*
X218270D01*
X214370D02*
X214970D01*
X208370D02*
X209270D01*
X205970D02*
X206870D01*
X202670D02*
X203570D01*
X200270D02*
X200870D01*
X198770D02*
X199970D01*
X196970D02*
X197870D01*
X191270D02*
X195470D01*
X185570D02*
X186470D01*
X179870D02*
X183470D01*
M02*
