%FSLAX25Y25*%
%MOIN*%
G70*
G01*
G75*
G04 Layer_Color=8388736*
%ADD10R,0.05118X0.05906*%
%ADD11R,0.06102X0.09646*%
%ADD12R,0.06299X0.02362*%
%ADD13R,0.05906X0.05118*%
%ADD14R,0.08661X0.07874*%
%ADD15R,0.09646X0.06102*%
%ADD16R,0.12992X0.09449*%
%ADD17R,0.03937X0.09449*%
G04:AMPARAMS|DCode=18|XSize=50mil|YSize=50mil|CornerRadius=6.25mil|HoleSize=0mil|Usage=FLASHONLY|Rotation=270.000|XOffset=0mil|YOffset=0mil|HoleType=Round|Shape=RoundedRectangle|*
%AMROUNDEDRECTD18*
21,1,0.05000,0.03750,0,0,270.0*
21,1,0.03750,0.05000,0,0,270.0*
1,1,0.01250,-0.01875,-0.01875*
1,1,0.01250,-0.01875,0.01875*
1,1,0.01250,0.01875,0.01875*
1,1,0.01250,0.01875,-0.01875*
%
%ADD18ROUNDEDRECTD18*%
%ADD19C,0.02000*%
%ADD20C,0.03000*%
%ADD21C,0.11000*%
%ADD22C,0.05906*%
%ADD23R,0.05906X0.05906*%
%ADD24O,0.07874X0.03937*%
%ADD25O,0.07874X0.03937*%
%ADD26C,0.10000*%
%ADD27C,0.07874*%
%ADD28R,0.05906X0.05906*%
%ADD29C,0.09843*%
%ADD30C,0.04921*%
%ADD31R,0.04921X0.04921*%
%ADD32C,0.06299*%
%ADD33R,0.06299X0.06299*%
%ADD34O,0.03937X0.07874*%
%ADD35O,0.03937X0.07874*%
%ADD36C,0.03000*%
%ADD37C,0.07874*%
%ADD38C,0.00984*%
%ADD39C,0.00787*%
%ADD40C,0.01000*%
%ADD41C,0.00500*%
%ADD42C,0.00300*%
%ADD43R,0.05918X0.06706*%
%ADD44R,0.06902X0.10446*%
%ADD45R,0.07099X0.03162*%
%ADD46R,0.06706X0.05918*%
%ADD47R,0.09461X0.08674*%
%ADD48R,0.10446X0.06902*%
%ADD49R,0.13792X0.10249*%
%ADD50R,0.04737X0.10249*%
G04:AMPARAMS|DCode=51|XSize=58mil|YSize=58mil|CornerRadius=10.25mil|HoleSize=0mil|Usage=FLASHONLY|Rotation=270.000|XOffset=0mil|YOffset=0mil|HoleType=Round|Shape=RoundedRectangle|*
%AMROUNDEDRECTD51*
21,1,0.05800,0.03750,0,0,270.0*
21,1,0.03750,0.05800,0,0,270.0*
1,1,0.02050,-0.01875,-0.01875*
1,1,0.02050,-0.01875,0.01875*
1,1,0.02050,0.01875,0.01875*
1,1,0.02050,0.01875,-0.01875*
%
%ADD51ROUNDEDRECTD51*%
%ADD52C,0.06706*%
%ADD53R,0.06706X0.06706*%
%ADD54O,0.08674X0.04737*%
%ADD55O,0.08674X0.04737*%
%ADD56C,0.10800*%
%ADD57C,0.08674*%
%ADD58R,0.06706X0.06706*%
%ADD59C,0.10642*%
%ADD60C,0.05721*%
%ADD61R,0.05721X0.05721*%
%ADD62C,0.07099*%
%ADD63R,0.07099X0.07099*%
%ADD64O,0.04737X0.08674*%
%ADD65O,0.04737X0.08674*%
%ADD66C,0.03800*%
D43*
X58160Y21000D02*
D03*
X65640D02*
D03*
X271240Y121700D02*
D03*
X263760D02*
D03*
X270940Y150700D02*
D03*
X263460D02*
D03*
X271240Y136600D02*
D03*
X263760D02*
D03*
X85660Y12000D02*
D03*
X93140D02*
D03*
D44*
X74900Y99898D02*
D03*
Y112102D02*
D03*
X73900Y76602D02*
D03*
Y64398D02*
D03*
X31400Y76602D02*
D03*
Y64398D02*
D03*
X53400D02*
D03*
Y76602D02*
D03*
D45*
X120357Y46000D02*
D03*
X127443Y49740D02*
D03*
Y42260D02*
D03*
D46*
X115400Y24260D02*
D03*
Y31740D02*
D03*
X343700Y121140D02*
D03*
Y113660D02*
D03*
X333600Y121140D02*
D03*
Y113660D02*
D03*
D47*
X129000Y27906D02*
D03*
Y16095D02*
D03*
X68900Y42906D02*
D03*
Y31094D02*
D03*
D48*
X294002Y98200D02*
D03*
X281798D02*
D03*
X577402Y94500D02*
D03*
X565198D02*
D03*
X504602Y95500D02*
D03*
X492398D02*
D03*
X367002Y96800D02*
D03*
X354798D02*
D03*
X436502Y96500D02*
D03*
X424298D02*
D03*
D49*
X93900Y47417D02*
D03*
D50*
X102955Y24583D02*
D03*
X93900D02*
D03*
X84845D02*
D03*
D51*
X52900Y44250D02*
D03*
Y36750D02*
D03*
D52*
X10900Y39000D02*
D03*
X225600Y100200D02*
D03*
Y110200D02*
D03*
Y120200D02*
D03*
Y130200D02*
D03*
X333000Y138000D02*
D03*
X323000D02*
D03*
X313000D02*
D03*
X303000D02*
D03*
X10900Y69000D02*
D03*
D53*
Y29000D02*
D03*
X225600Y90200D02*
D03*
X10900Y59000D02*
D03*
D54*
X245300Y91300D02*
D03*
Y96300D02*
D03*
X245900Y115600D02*
D03*
Y120600D02*
D03*
Y139600D02*
D03*
Y144600D02*
D03*
D55*
X245300Y101300D02*
D03*
X245900Y125600D02*
D03*
Y149600D02*
D03*
D56*
X398143Y132200D02*
D03*
X378457D02*
D03*
X491943D02*
D03*
X472258D02*
D03*
X32757Y117000D02*
D03*
X52443D02*
D03*
X444343Y132200D02*
D03*
X424657D02*
D03*
X565357Y133400D02*
D03*
X585042D02*
D03*
X518558D02*
D03*
X538242D02*
D03*
D57*
X405890Y22983D02*
D03*
Y71014D02*
D03*
X453134Y22983D02*
D03*
Y71014D02*
D03*
X429512Y78888D02*
D03*
X336290Y24283D02*
D03*
Y72314D02*
D03*
X383534Y24283D02*
D03*
Y72314D02*
D03*
X359912Y80188D02*
D03*
X264890Y24083D02*
D03*
Y72114D02*
D03*
X312134Y24083D02*
D03*
Y72114D02*
D03*
X288512Y79988D02*
D03*
X547090Y20983D02*
D03*
Y69014D02*
D03*
X594334Y20983D02*
D03*
Y69014D02*
D03*
X570712Y76888D02*
D03*
X477490Y21683D02*
D03*
Y69714D02*
D03*
X524734Y21683D02*
D03*
Y69714D02*
D03*
X501112Y77588D02*
D03*
D58*
X343000Y138000D02*
D03*
D59*
X203870Y107100D02*
D03*
X125130D02*
D03*
D60*
X106837Y116000D02*
D03*
D61*
X98963D02*
D03*
D62*
X101400Y70000D02*
D03*
Y80000D02*
D03*
D63*
Y90000D02*
D03*
D64*
X219700Y63300D02*
D03*
X214700D02*
D03*
X245300Y62400D02*
D03*
X240300D02*
D03*
D65*
X209700Y63300D02*
D03*
X235300Y62400D02*
D03*
D66*
X84470Y36700D02*
D03*
X102955D02*
D03*
X435270Y88200D02*
D03*
X322670Y97000D02*
D03*
X256870Y20730D02*
D03*
X330270Y16600D02*
D03*
X261770Y35900D02*
D03*
X78970Y90472D02*
D03*
X20600Y49300D02*
D03*
X327970Y150700D02*
D03*
X264870Y131647D02*
D03*
X275670Y124100D02*
D03*
X343470Y101900D02*
D03*
X78270Y42906D02*
D03*
M02*
