M48
;Layer_Color=9474304
;FILE_FORMAT=2:5
INCH,LZ
;TYPE=PLATED
T1F00S00C0.01968
%
T01
X0003887Y0003887
X001176
X0019634
X0027508
X0035382
X0010044Y0010524
X0003887Y0011761
Y0019635
Y0027509
Y0035383
Y0043257
X0012334Y0031552
X0019594Y0031552
X0012806Y0022477
X00485Y00272
X0052145Y0029423
X005256Y0035273
X0055437Y0038265
X0059697Y0038735
X0062088Y0043567
X0050159Y0044523
X0043562Y0043562
X00449Y0037598
X0044776Y0031749
X0059695Y0030056
X0056134Y0024818
X0066704Y0017867
X0072141Y0020703
X007486Y0003887
X0082734
X0090608
X0098482
Y0011761
Y0019635
Y0027509
X00937Y0025724
X0089Y00309
X0098482Y0035383
Y0043257
X0066986Y0003887
X0059112
X0051238
X0043364
X0043257Y0074753
X0051131
X0059005
X0066879
X0074753
X0082627
X0090501
X0098375
X0098482Y0066879
Y0059005
Y0051131
X0085935Y0053219
X0088769Y0060422
X0080895
X007302
X0065146
X0035383Y0074753
X0027509
X0019635
X0011761
X0003887
Y0066879
Y0059005
Y0051131
M30
